<svg xmlns="http://www.w3.org/2000/svg" xmlns:xlink="http://www.w3.org/1999/xlink" width="316.496" height="226.312" viewBox="0 0 316.496 226.312">
  <defs>
    <linearGradient id="linear-gradient" x1="1.038" y1="1.243" x2="1.034" y2="-0.022" gradientUnits="objectBoundingBox">
      <stop offset="0" stop-color="#e5dcff"/>
      <stop offset="1" stop-color="#ddd5ff"/>
    </linearGradient>
    <clipPath id="clip-path">
      <rect id="矩形_3641" data-name="矩形 3641" width="316.496" height="226.312" rx="20" transform="translate(30 6736)" fill="url(#linear-gradient)"/>
    </clipPath>
    <clipPath id="clip-path-2">
      <rect id="矩形_3644" data-name="矩形 3644" width="191.327" height="179.634" transform="translate(0 0)" fill="none"/>
    </clipPath>
    <filter id="联合_120" x="97.021" y="26.279" width="200.863" height="144.244" filterUnits="userSpaceOnUse">
      <feOffset dy="16" input="SourceAlpha"/>
      <feGaussianBlur stdDeviation="10" result="blur"/>
      <feFlood flood-color="#4e00b5" flood-opacity="0.259"/>
      <feComposite operator="in" in2="blur"/>
      <feComposite in="SourceGraphic"/>
    </filter>
    <linearGradient id="linear-gradient-3" x1="0.5" x2="0.5" y2="1" gradientUnits="objectBoundingBox">
      <stop offset="0" stop-color="#ffe76d"/>
      <stop offset="1" stop-color="#fbd71e"/>
    </linearGradient>
    <filter id="椭圆_1555" x="75.616" y="43.873" width="107.906" height="107.906" filterUnits="userSpaceOnUse">
      <feOffset dy="16" input="SourceAlpha"/>
      <feGaussianBlur stdDeviation="12" result="blur-2"/>
      <feFlood flood-color="#ebcf72" flood-opacity="0.388"/>
      <feComposite operator="in" in2="blur-2"/>
      <feComposite in="SourceGraphic"/>
    </filter>
    <filter id="路径_2296" x="-5.156" y="79.7" width="49.944" height="49.976" filterUnits="userSpaceOnUse">
      <feOffset dy="6" input="SourceAlpha"/>
      <feGaussianBlur stdDeviation="6" result="blur-3"/>
      <feFlood flood-color="#3493c4"/>
      <feComposite operator="in" in2="blur-3"/>
      <feComposite in="SourceGraphic"/>
    </filter>
    <filter id="路径_2297" x="18.288" y="16.122" width="42.324" height="42.338" filterUnits="userSpaceOnUse">
      <feOffset dy="6" input="SourceAlpha"/>
      <feGaussianBlur stdDeviation="6" result="blur-4"/>
      <feFlood flood-color="#3493c4"/>
      <feComposite operator="in" in2="blur-4"/>
      <feComposite in="SourceGraphic"/>
    </filter>
    <filter id="路径_2298" x="255.463" y="101.341" width="42.324" height="42.338" filterUnits="userSpaceOnUse">
      <feOffset dy="6" input="SourceAlpha"/>
      <feGaussianBlur stdDeviation="6" result="blur-5"/>
      <feFlood flood-color="#3493c4"/>
      <feComposite operator="in" in2="blur-5"/>
      <feComposite in="SourceGraphic"/>
    </filter>
    <filter id="路径_2299" x="171.225" y="5.441" width="42.324" height="42.338" filterUnits="userSpaceOnUse">
      <feOffset dy="6" input="SourceAlpha"/>
      <feGaussianBlur stdDeviation="6" result="blur-6"/>
      <feFlood flood-color="#3493c4"/>
      <feComposite operator="in" in2="blur-6"/>
      <feComposite in="SourceGraphic"/>
    </filter>
    <filter id="路径_2300" x="242.133" y="19.292" width="48.207" height="48.235" filterUnits="userSpaceOnUse">
      <feOffset dy="6" input="SourceAlpha"/>
      <feGaussianBlur stdDeviation="6" result="blur-7"/>
      <feFlood flood-color="#3493c4"/>
      <feComposite operator="in" in2="blur-7"/>
      <feComposite in="SourceGraphic"/>
    </filter>
  </defs>
  <g id="pic03" transform="translate(-30 -6736)">
    <g id="蒙版组_149" data-name="蒙版组 149" clip-path="url(#clip-path)">
      <rect id="矩形_988" data-name="矩形 988" width="316.496" height="226.312" rx="20" transform="translate(30 6736)" fill="url(#linear-gradient)"/>
      <g id="蒙版组_150" data-name="蒙版组 150" transform="translate(40.916 6782.678)" clip-path="url(#clip-path-2)">
        <rect id="矩形_3642" data-name="矩形 3642" width="191.327" height="179.634" transform="translate(0 0)" fill="none"/>
        <g id="组_8156" data-name="组 8156" transform="translate(2.342 2.532)">
          <g id="组_7987" data-name="组 7987" transform="translate(20.286 0)">
            <g id="组_7905" data-name="组 7905" transform="translate(0 3.463)">
              <path id="路径_28837" data-name="路径 28837" d="M-242.434,232.6a21,21,0,0,0-3.45-1.585,3.724,3.724,0,0,1-2.367-2.757c-.156-1.87,1.908-3.284,2.029-5.158.17-2.639-3.394-4.083-3.915-6.676-.433-2.153,1.392-4.185,1.313-6.38s-1.97-3.832-2.837-5.843c-2.013-4.674,1.7-10.7-1.111-14.941a20.963,20.963,0,0,0-2.856-2.93,4.815,4.815,0,0,1-1.686-3.6l-5.28-2.4c-1.768-2.708-5.778-2.813-8.794-1.658s-5.664,3.234-8.8,4.01c-1.52.377-1.3-1.884-2.837-1.571a7.991,7.991,0,0,0-5.075,4.742c-.617,2.105-1.045,4.433-1.791,6.5-.824,2.28-3.263,3.872-3.491,6.286-.266,2.817,2.639,5.112,2.644,7.942.006,3.045-3.348,5.764-2.28,8.615.611,1.629,2.486,2.5,3.138,4.114.9,2.228-.89,4.669-.726,7.067.162,2.367,2.146,4.149,4.027,5.59a84.647,84.647,0,0,0,23.716,13.061,27.93,27.93,0,0,0,11.511,1.894c3.9-.355,7.828-2.226,9.871-5.577C-239.8,238.593-239.82,234.487-242.434,232.6Z" transform="translate(293.398 -177.979)" fill="#263238"/>
            </g>
            <g id="组_7906" data-name="组 7906" transform="translate(4.814)">
              <path id="路径_28838" data-name="路径 28838" d="M-255.751,180.156c-.957-3.823-2.425-3.518-5.205-5.446a8.527,8.527,0,0,0-10.694.932c-1.126,1.144-3.993,1.072-6.194,2.829-1.417,1.13-1.721.716-3.406,1.38s-4.77,5.368-4.718,7.182l-.843,7.952c.069,1.864,2.457,2.911,4.215,2.3s2.926-2.256,3.856-3.87,1.8-3.36,3.323-4.432c2.523-1.778,5.943-1.167,8.964-.547s6.517,1.062,8.875-.93C-255.545,185.794-255.1,182.74-255.751,180.156Z" transform="translate(286.811 -173.252)" fill="#263238"/>
            </g>
            <g id="组_7908" data-name="组 7908" transform="translate(9.848 7.259)">
              <g id="组_7907" data-name="组 7907">
                <path id="路径_28839" data-name="路径 28839" d="M-252.236,194.16c-.337-5.177-3.774-11.522-8.92-10.964l-16.063,4.107a3.034,3.034,0,0,0-2.7,3.085l1.806,38.842-.111.024s6.535,13.883,17.156,10.536c2.106-.664.194-5.9.612-8.275l.109.014c0-.282.008-.545.012-.814a25.478,25.478,0,0,0,.063-5.334h0c.03-3.136.026-4.422.029-4.393,0,0,6.6-1.113,7.945-9.746C-251.631,206.948-251.862,199.911-252.236,194.16Z" transform="translate(279.923 -183.161)" fill="#ffccb2"/>
              </g>
            </g>
            <g id="组_7917" data-name="组 7917" transform="translate(34.003 23.91)">
              <g id="组_7916" data-name="组 7916">
                <g id="组_7915" data-name="组 7915">
                  <g id="组_7914" data-name="组 7914">
                    <g id="组_7913" data-name="组 7913">
                      <g id="组_7912" data-name="组 7912">
                        <g id="组_7911" data-name="组 7911">
                          <g id="组_7910" data-name="组 7910">
                            <g id="组_7909" data-name="组 7909">
                              <path id="路径_28840" data-name="路径 28840" d="M-244.671,206.89a1.106,1.106,0,0,1-1.062,1.119,1.058,1.058,0,0,1-1.141-1,1.107,1.107,0,0,1,1.061-1.12A1.058,1.058,0,0,1-244.671,206.89Z" transform="translate(246.875 -205.892)" fill="#263238"/>
                            </g>
                          </g>
                        </g>
                      </g>
                    </g>
                  </g>
                </g>
              </g>
            </g>
            <g id="组_7927" data-name="组 7927" transform="translate(31.655 20.763)">
              <g id="组_7926" data-name="组 7926">
                <g id="组_7925" data-name="组 7925">
                  <g id="组_7924" data-name="组 7924">
                    <g id="组_7923" data-name="组 7923">
                      <g id="组_7922" data-name="组 7922">
                        <g id="组_7921" data-name="组 7921">
                          <g id="组_7920" data-name="组 7920">
                            <g id="组_7919" data-name="组 7919">
                              <g id="组_7918" data-name="组 7918">
                                <path id="路径_28841" data-name="路径 28841" d="M-245.722,202.754c-.137.144-.974-.474-2.163-.468-1.187-.012-2.058.6-2.188.458-.064-.064.076-.325.455-.6a3.03,3.03,0,0,1,1.75-.545,2.91,2.91,0,0,1,1.722.553C-245.779,202.428-245.655,202.689-245.722,202.754Z" transform="translate(250.087 -201.595)" fill="#263238"/>
                              </g>
                            </g>
                          </g>
                        </g>
                      </g>
                    </g>
                  </g>
                </g>
              </g>
            </g>
            <g id="组_7947" data-name="组 7947" transform="translate(19.975 21.011)">
              <g id="组_7936" data-name="组 7936" transform="translate(2.796 3.27)">
                <g id="组_7935" data-name="组 7935">
                  <g id="组_7934" data-name="组 7934">
                    <g id="组_7933" data-name="组 7933">
                      <g id="组_7932" data-name="组 7932">
                        <g id="组_7931" data-name="组 7931">
                          <g id="组_7930" data-name="组 7930">
                            <g id="组_7929" data-name="组 7929">
                              <g id="组_7928" data-name="组 7928">
                                <path id="路径_28842" data-name="路径 28842" d="M-260.039,207.395a1.106,1.106,0,0,1-1.063,1.119,1.057,1.057,0,0,1-1.14-1,1.106,1.106,0,0,1,1.061-1.119A1.058,1.058,0,0,1-260.039,207.395Z" transform="translate(262.243 -206.397)" fill="#263238"/>
                              </g>
                            </g>
                          </g>
                        </g>
                      </g>
                    </g>
                  </g>
                </g>
              </g>
              <g id="组_7946" data-name="组 7946">
                <g id="组_7945" data-name="组 7945">
                  <g id="组_7944" data-name="组 7944">
                    <g id="组_7943" data-name="组 7943">
                      <g id="组_7942" data-name="组 7942">
                        <g id="组_7941" data-name="组 7941">
                          <g id="组_7940" data-name="组 7940">
                            <g id="组_7939" data-name="组 7939">
                              <g id="组_7938" data-name="组 7938">
                                <g id="组_7937" data-name="组 7937">
                                  <path id="路径_28843" data-name="路径 28843" d="M-261.7,203.093c-.137.144-.976-.474-2.163-.468-1.186-.012-2.057.6-2.187.458-.063-.065.075-.325.455-.6a3.025,3.025,0,0,1,1.75-.545,2.9,2.9,0,0,1,1.722.553C-261.761,202.767-261.636,203.028-261.7,203.093Z" transform="translate(266.068 -201.934)" fill="#263238"/>
                                </g>
                              </g>
                            </g>
                          </g>
                        </g>
                      </g>
                    </g>
                  </g>
                </g>
              </g>
            </g>
            <g id="组_7957" data-name="组 7957" transform="translate(28.094 21.071)">
              <g id="组_7956" data-name="组 7956">
                <g id="组_7955" data-name="组 7955">
                  <g id="组_7954" data-name="组 7954">
                    <g id="组_7953" data-name="组 7953">
                      <g id="组_7952" data-name="组 7952">
                        <g id="组_7951" data-name="组 7951">
                          <g id="组_7950" data-name="组 7950">
                            <g id="组_7949" data-name="组 7949">
                              <g id="组_7948" data-name="组 7948">
                                <path id="路径_28844" data-name="路径 28844" d="M-254.382,211.938a7.889,7.889,0,0,1,1.93-.353c.3-.032.591-.093.641-.3a1.549,1.549,0,0,0-.2-.9l-.9-2.313a39.877,39.877,0,0,1-2.029-6.053,39.915,39.915,0,0,1,2.51,5.875q.453,1.219.865,2.327a1.759,1.759,0,0,1,.16,1.193.761.761,0,0,1-.5.446,2.023,2.023,0,0,1-.515.073A7.717,7.717,0,0,1-254.382,211.938Z" transform="translate(254.96 -202.015)" fill="#263238"/>
                              </g>
                            </g>
                          </g>
                        </g>
                      </g>
                    </g>
                  </g>
                </g>
              </g>
            </g>
            <g id="组_7966" data-name="组 7966" transform="translate(17.985 42.028)">
              <g id="组_7965" data-name="组 7965">
                <g id="组_7964" data-name="组 7964">
                  <g id="组_7963" data-name="组 7963">
                    <g id="组_7962" data-name="组 7962">
                      <g id="组_7961" data-name="组 7961">
                        <g id="组_7960" data-name="组 7960">
                          <g id="组_7959" data-name="组 7959">
                            <g id="组_7958" data-name="组 7958">
                              <path id="路径_28845" data-name="路径 28845" d="M-257.252,233.681a21.861,21.861,0,0,1-11.538-3.058s2.811,5.923,11.427,5.1Z" transform="translate(268.79 -230.623)" fill="#eeb192"/>
                            </g>
                          </g>
                        </g>
                      </g>
                    </g>
                  </g>
                </g>
              </g>
            </g>
            <g id="组_7975" data-name="组 7975" transform="translate(24.633 33.059)">
              <g id="组_7974" data-name="组 7974">
                <g id="组_7973" data-name="组 7973">
                  <g id="组_7972" data-name="组 7972">
                    <g id="组_7971" data-name="组 7971">
                      <g id="组_7970" data-name="组 7970">
                        <g id="组_7969" data-name="组 7969">
                          <g id="组_7968" data-name="组 7968">
                            <g id="组_7967" data-name="组 7967">
                              <path id="路径_28846" data-name="路径 28846" d="M-256.152,219.186a2.139,2.139,0,0,0-1.922-.793,1.95,1.95,0,0,0-1.348.729,1.245,1.245,0,0,0-.091,1.42,1.436,1.436,0,0,0,1.559.391,4.493,4.493,0,0,0,1.517-.912,1.318,1.318,0,0,0,.339-.353.4.4,0,0,0,0-.443" transform="translate(259.695 -218.38)" fill="#ff884a"/>
                            </g>
                          </g>
                        </g>
                      </g>
                    </g>
                  </g>
                </g>
              </g>
            </g>
            <g id="组_7985" data-name="组 7985" transform="translate(24.985 31.824)">
              <g id="组_7984" data-name="组 7984">
                <g id="组_7983" data-name="组 7983">
                  <g id="组_7982" data-name="组 7982">
                    <g id="组_7981" data-name="组 7981">
                      <g id="组_7980" data-name="组 7980">
                        <g id="组_7979" data-name="组 7979">
                          <g id="组_7978" data-name="组 7978">
                            <g id="组_7977" data-name="组 7977">
                              <g id="组_7976" data-name="组 7976">
                                <path id="路径_28847" data-name="路径 28847" d="M-259.022,216.7c.193-.012.2,1.281,1.3,2.2s2.479.77,2.489.951c.018.081-.306.252-.886.269a3.205,3.205,0,0,1-2.078-.72,2.807,2.807,0,0,1-1.012-1.842C-259.253,217.009-259.11,216.688-259.022,216.7Z" transform="translate(259.213 -216.695)" fill="#263238"/>
                              </g>
                            </g>
                          </g>
                        </g>
                      </g>
                    </g>
                  </g>
                </g>
              </g>
            </g>
            <g id="组_7986" data-name="组 7986" transform="translate(5.3 4.149)">
              <path id="路径_28848" data-name="路径 28848" d="M-258.013,182.9l-5.83-3.987a55.118,55.118,0,0,0-14.487,3.705,12.1,12.1,0,0,0-4.993,3.209c-1.744,2.134-2.021,5.076-2.22,7.827-.754,10.472-1.38,21.258,1.909,31.227a5.532,5.532,0,0,1,3.809-2.133,15.894,15.894,0,0,0,4.347-1.064,5.92,5.92,0,0,0,2.941-3.779,7.129,7.129,0,0,0-.533-4.808c-.8-1.66-2.223-3.261-1.875-5.071.365-1.894,2.535-2.979,3.044-4.839.88-3.215-3.623-6.1-2.712-9.308a4.5,4.5,0,0,1,2.467-2.6c1.1-.549,2.3-.856,3.418-1.374C-265.014,188.183-257.6,191.3-258.013,182.9Z" transform="translate(286.146 -178.916)" fill="#263238"/>
            </g>
          </g>
          <g id="组_8021" data-name="组 8021" transform="translate(11.906 47.604)">
            <g id="组_7996" data-name="组 7996" transform="translate(55.131 12.216)">
              <g id="组_7988" data-name="组 7988" transform="translate(14.978 11.063)">
                <path id="路径_28849" data-name="路径 28849" d="M-198.87,270.012l-10.071,15.709a4.038,4.038,0,0,0,3.542,1.76c2.421-.1,5.756-6.168,6.153-7.4s-.143-2.409.22-3.225a9.948,9.948,0,0,0,.217-3.064C-198.863,273.924-196.634,270.934-198.87,270.012Z" transform="translate(208.941 -270.012)" fill="#ffbe9d"/>
              </g>
              <g id="组_7989" data-name="组 7989" transform="translate(12.197)">
                <path id="路径_28850" data-name="路径 28850" d="M-212.746,281.673l5.247-20.794a2.365,2.365,0,0,1,1.119-1.474l7.625-4.356a1.044,1.044,0,0,1,1.364.3h0a1.05,1.05,0,0,1,.167.872l-5.557,21.889Z" transform="translate(212.746 -254.911)" fill="#263238"/>
              </g>
              <g id="组_7990" data-name="组 7990" transform="translate(0 14.367)">
                <path id="路径_28851" data-name="路径 28851" d="M-219.884,303.035l12.186-22.555-4.588-5.959-17.147,13.044,4.491,12.394Z" transform="translate(229.434 -274.522)" fill="#ff6b73"/>
              </g>
              <g id="组_7992" data-name="组 7992" transform="translate(19.514 8.654)">
                <g id="组_7991" data-name="组 7991">
                  <path id="路径_28852" data-name="路径 28852" d="M-200.367,283.286a5.367,5.367,0,0,0,.234-.93,6.964,6.964,0,0,0-.255-2.6l-.015-.053.028-.048a1.4,1.4,0,0,0,.141-1.158,2.22,2.22,0,0,0-.85-1.061l-.134-.095.091-.136,1.379-2.065a2.955,2.955,0,0,0,.321-.533.761.761,0,0,0-.04-.542,2.57,2.57,0,0,0-.854-.968l-.172-.125.138-.157c.375-.429.789-.852,1.21-1.284a27.73,27.73,0,0,0,2.009-2.321,7.531,7.531,0,0,0,.745-1.2,1.84,1.84,0,0,0,.183-.6c.016-.192-.076-.3-.186-.321l-.042-.008h0a1.271,1.271,0,0,0-.688.107,6.568,6.568,0,0,0-.7.318c-.447.236-.861.489-1.245.735-.768.5-1.421.965-1.959,1.352l-1.245.914a2.279,2.279,0,0,1-.46.305,2.007,2.007,0,0,1,.392-.39c.269-.238.669-.578,1.191-.993s1.161-.905,1.926-1.426c.382-.259.8-.526,1.253-.778a6.751,6.751,0,0,1,.731-.348,1.507,1.507,0,0,1,.917-.122l-.043-.009a.61.61,0,0,1,.511.675,2.132,2.132,0,0,1-.207.731,7.7,7.7,0,0,1-.774,1.27,26.385,26.385,0,0,1-2.03,2.363c-.42.433-.838.857-1.207,1.275l-.033-.283a2.893,2.893,0,0,1,.983,1.138,1.13,1.13,0,0,1,.045.8,2.92,2.92,0,0,1-.365.612l-1.418,2.061-.043-.23a2.494,2.494,0,0,1,.952,1.245,1.667,1.667,0,0,1-.2,1.38l.014-.1a6.546,6.546,0,0,1,.145,2.7,2.606,2.606,0,0,1-.229.7C-200.307,283.221-200.356,283.292-200.367,283.286Z" transform="translate(202.734 -266.724)" fill="#eb996e"/>
                </g>
              </g>
              <g id="组_7994" data-name="组 7994" transform="translate(16.396 0.43)">
                <g id="组_7993" data-name="组 7993">
                  <path id="路径_28853" data-name="路径 28853" d="M-195.845,255.5a2.974,2.974,0,0,1-.627.443c-.417.264-1.025.636-1.783,1.088l-2.668,1.571-1.584.914a7.83,7.83,0,0,0-1.593,1.045,3.3,3.3,0,0,0-.8,1.651c-.159.612-.313,1.2-.46,1.771l-.8,2.995c-.233.851-.428,1.538-.572,2.011a2.993,2.993,0,0,1-.26.725,3.02,3.02,0,0,1,.116-.761c.1-.484.254-1.181.455-2.04l.721-3.015c.141-.57.287-1.164.439-1.778a3.6,3.6,0,0,1,.9-1.831,7.828,7.828,0,0,1,1.679-1.1l1.593-.894,2.706-1.5c.773-.422,1.4-.757,1.841-.982A3.018,3.018,0,0,1-195.845,255.5Z" transform="translate(207 -255.498)" fill="#455a64"/>
                </g>
              </g>
              <g id="组_7995" data-name="组 7995" transform="translate(22.342 6.838)">
                <path id="路径_28854" data-name="路径 28854" d="M-198.708,264.951c-.189.453-.211.875-.049.943s.447-.243.637-.7.211-.875.049-.943S-198.519,264.5-198.708,264.951Z" transform="translate(198.866 -264.245)" fill="#fff"/>
              </g>
            </g>
            <g id="组_8006" data-name="组 8006" transform="translate(0.794)">
              <g id="组_7997" data-name="组 7997" transform="translate(38.889 7.148)">
                <path id="路径_28855" data-name="路径 28855" d="M-250.569,247.993h0a21.235,21.235,0,0,1,12,10.956l16.36,34.878,14.091,5.728-12.407,3.584-11.051-8.121Z" transform="translate(250.569 -247.993)" fill="#ff6b73"/>
              </g>
              <g id="组_7998" data-name="组 7998" transform="translate(16.451)">
                <path id="路径_28856" data-name="路径 28856" d="M-228.788,300.53l-5.936,4.587-29.613-30.531-16.93-30.65,1.957-5.7,13.089,5.464,4.687,6.942,1.045-8.811.841,1.193,1.366,3.713s12.853,10.717,15.626,19.214c2.315,7.093,1.59,21.746,3,25.728Z" transform="translate(281.268 -238.235)" fill="#fafafa"/>
              </g>
              <g id="组_7999" data-name="组 7999" transform="translate(0 2.302)">
                <path id="路径_28857" data-name="路径 28857" d="M-290.5,244.378c-.2.6-12.659,5.614-13.255,9.987s8.956,38.187,8.956,38.187l15.138,13.4h38.874l-12.332-23.142a58.751,58.751,0,0,0-9.979-13.593c-3.649-3.706-8.066-8.292-10.339-11.029-2.464-2.967-12.91-16.816-12.91-16.816Z" transform="translate(303.777 -241.377)" fill="#ff6b73"/>
              </g>
              <g id="组_8001" data-name="组 8001" transform="translate(21.08 6.053)">
                <g id="组_8000" data-name="组 8000">
                  <path id="路径_28858" data-name="路径 28858" d="M-274.934,247.132a15.1,15.1,0,0,1,2.2.99c1.338.656,3.175,1.585,5.193,2.631l2.29,1.2-.263.174a16.675,16.675,0,0,1,.246-4.083,5.672,5.672,0,0,1,.427-1.545,14.808,14.808,0,0,1-.2,1.579,19.985,19.985,0,0,0-.108,4.023l.025.322-.288-.148-2.3-1.182c-2.018-1.047-3.836-2.013-5.143-2.73A15.182,15.182,0,0,1-274.934,247.132Z" transform="translate(274.935 -246.498)" fill="#263238"/>
                </g>
              </g>
              <g id="组_8003" data-name="组 8003" transform="translate(35.861 12.003)">
                <g id="组_8002" data-name="组 8002">
                  <path id="路径_28859" data-name="路径 28859" d="M-239.526,280.145a6.843,6.843,0,0,1-.622-.99l-1.586-2.76c-1.333-2.332-3.184-5.549-5.28-9.073s-4.04-6.686-5.454-8.971l-1.668-2.71a6.912,6.912,0,0,1-.574-1.019,6.733,6.733,0,0,1,.7.938c.429.618,1.035,1.521,1.771,2.647,1.473,2.25,3.454,5.393,5.554,8.921s3.913,6.768,5.188,9.137c.637,1.185,1.143,2.148,1.481,2.82A6.89,6.89,0,0,1-239.526,280.145Z" transform="translate(254.711 -254.62)" fill="#263238"/>
                </g>
              </g>
              <g id="组_8005" data-name="组 8005" transform="translate(44.217 45.453)" opacity="0.3">
                <g id="组_8004" data-name="组 8004">
                  <path id="路径_28860" data-name="路径 28860" d="M-242.438,315.928a19.31,19.31,0,0,0,6.825.338,6.57,6.57,0,0,0,5.163-4.035,4.264,4.264,0,0,1,.843-1.952c.869-.805,2.253-.31,3.432-.418a4.315,4.315,0,0,0,3.13-2.2,12.822,12.822,0,0,0,1.308-3.732,5.72,5.72,0,0,0,.231-1.938,1.932,1.932,0,0,0-1.011-1.578c-.89-.4-1.894.182-2.686.755A202.594,202.594,0,0,0-243.278,316.5" transform="translate(243.278 -300.282)"/>
                </g>
              </g>
            </g>
            <g id="组_8007" data-name="组 8007" transform="translate(54.402 20.974)">
              <path id="路径_28861" data-name="路径 28861" d="M-224.46,281.18s2.228-5.128,3.418-5.839,7.1-4.165,7.1-4.165l-.761,2.819,5.777-4.021c.71-.478,4.836-4.236,5.568-2.77.526,1.056-2.842,3.838-3.293,4.457-1.128,1.549-.754,1.406-.754,1.406s1.224.737.61,1.831a24.7,24.7,0,0,1-1.65,2.434s1.608.575.67,2.669a5.6,5.6,0,0,1,.163,2.689c-.265,1.563-3.084,4.533-3.084,4.533l-14.061,6.712-5.67-9.646Z" transform="translate(230.43 -266.866)" fill="#ffbe9d"/>
            </g>
            <g id="组_8008" data-name="组 8008" transform="translate(0 9.961)">
              <path id="路径_28862" data-name="路径 28862" d="M-277.237,267.519l9.016,19.3,20-8.708s8.3,4.853,7.15,10.156L-259.091,303.1a16.109,16.109,0,0,1-12.2,3.556h0a16.129,16.129,0,0,1-11.523-7.171l-13.041-19.892-7.291-11.945a11.176,11.176,0,0,1,.306-12.363,9.038,9.038,0,0,1,2.576-2.423C-297.013,250.872-287.339,250.011-277.237,267.519Z" transform="translate(304.863 -251.833)" fill="#ff6b73"/>
            </g>
            <g id="组_8010" data-name="组 8010" transform="translate(65.916 26.756)">
              <g id="组_8009" data-name="组 8009">
                <path id="路径_28863" data-name="路径 28863" d="M-208.615,274.765a17.911,17.911,0,0,1-2.937,2.026,17.975,17.975,0,0,1-3.124,1.724,17.938,17.938,0,0,1,2.937-2.027A18,18,0,0,1-208.615,274.765Z" transform="translate(214.677 -274.759)" fill="#eb996e"/>
              </g>
            </g>
            <g id="组_8012" data-name="组 8012" transform="translate(72.109 26.583)">
              <g id="组_8011" data-name="组 8011">
                <path id="路径_28864" data-name="路径 28864" d="M-200.7,274.526a21.1,21.1,0,0,1-2.625,2.84,21.2,21.2,0,0,1-2.875,2.586,21.1,21.1,0,0,1,2.625-2.841A21.043,21.043,0,0,1-200.7,274.526Z" transform="translate(206.204 -274.523)" fill="#eb996e"/>
              </g>
            </g>
            <g id="组_8014" data-name="组 8014" transform="translate(74.118 30.928)">
              <g id="组_8013" data-name="组 8013">
                <path id="路径_28865" data-name="路径 28865" d="M-200.714,280.459a6.412,6.412,0,0,1-1.232,1.724,6.415,6.415,0,0,1-1.5,1.493,6.384,6.384,0,0,1,1.232-1.724A6.416,6.416,0,0,1-200.714,280.459Z" transform="translate(203.454 -280.454)" fill="#eb996e"/>
              </g>
            </g>
            <g id="组_8016" data-name="组 8016" transform="translate(75.643 33.856)">
              <g id="组_8015" data-name="组 8015">
                <path id="路径_28866" data-name="路径 28866" d="M-199.9,284.457c.075.066-.235.541-.631,1.11s-.736,1.023-.824.976.122-.594.532-1.18S-199.968,284.393-199.9,284.457Z" transform="translate(201.369 -284.45)" fill="#eb996e"/>
              </g>
            </g>
            <g id="组_8018" data-name="组 8018" transform="translate(12.975 12.407)">
              <g id="组_8017" data-name="组 8017">
                <path id="路径_28867" data-name="路径 28867" d="M-257.387,305.9s.029-.034.091-.089l.287-.24,1.133-.916,4.322-3.432,15.417-12.115-.064.125a7.725,7.725,0,0,0-.566-2.954,12.314,12.314,0,0,0-1.66-2.716,21.166,21.166,0,0,0-5.114-4.4l.167.01-10.354,4.514-9.643,4.195-.161.07-.079-.156c-2.655-5.233-5.1-10.159-7.589-14.436-1.232-2.145-2.457-4.135-3.608-5.983s-2.207-3.568-3.281-5.048a18.654,18.654,0,0,0-6.229-5.79c-.433-.256-.833-.451-1.18-.62s-.642-.308-.884-.409l-.547-.242a.851.851,0,0,1-.182-.093,16.758,16.758,0,0,1,2.858,1.25,16.463,16.463,0,0,1,3.052,2.09,21.508,21.508,0,0,1,3.309,3.672c1.095,1.48,2.163,3.2,3.328,5.037s2.4,3.829,3.646,5.973c2.514,4.276,4.979,9.2,7.64,14.429l-.24-.086,9.64-4.2,10.357-4.505.09-.039.078.049a21.428,21.428,0,0,1,5.2,4.5,12.6,12.6,0,0,1,1.7,2.809,8.059,8.059,0,0,1,.581,3.1v.076l-.064.049-15.5,12.007-4.38,3.359-1.164.875-.3.22A.444.444,0,0,1-257.387,305.9Z" transform="translate(287.111 -255.171)" fill="#263238"/>
              </g>
            </g>
            <g id="组_8020" data-name="组 8020" transform="translate(35.415 44.532)">
              <g id="组_8019" data-name="组 8019">
                <path id="路径_28868" data-name="路径 28868" d="M-256.4,305.5c-.1-.045.448-1.422.763-3.206s.292-3.267.406-3.272a7.5,7.5,0,0,1-.031,3.34A7.5,7.5,0,0,1-256.4,305.5Z" transform="translate(256.409 -299.024)" fill="#263238"/>
              </g>
            </g>
          </g>
          <g id="组_8155" data-name="组 8155" transform="translate(0 72.888)">
            <g id="组_8070" data-name="组 8070" transform="translate(144.99 82.406)">
              <g id="组_8055" data-name="组 8055" transform="translate(0)">
                <g id="组_8025" data-name="组 8025">
                  <g id="组_8024" data-name="组 8024">
                    <g id="组_8023" data-name="组 8023">
                      <g id="组_8022" data-name="组 8022">
                        <path id="路径_28869" data-name="路径 28869" d="M-110.409,385.239l10.472,13.149s16.853-6.252,19.024-4.011l-24.708,21.268-17.157-19.817Z" transform="translate(122.778 -385.239)" fill="#ff725e"/>
                      </g>
                    </g>
                  </g>
                </g>
                <g id="组_8030" data-name="组 8030" transform="translate(14.074 18.121)" opacity="0.6">
                  <g id="组_8029" data-name="组 8029">
                    <g id="组_8028" data-name="组 8028">
                      <g id="组_8027" data-name="组 8027">
                        <g id="组_8026" data-name="组 8026">
                          <path id="路径_28870" data-name="路径 28870" d="M-103.314,410.507a1.335,1.335,0,0,0,.291,1.754,1.277,1.277,0,0,0,1.738-.274,1.409,1.409,0,0,0-.318-1.856,1.325,1.325,0,0,0-1.776.486" transform="translate(103.522 -409.976)" fill="#fff"/>
                        </g>
                      </g>
                    </g>
                  </g>
                </g>
                <g id="组_8034" data-name="组 8034" transform="translate(15.505 8.598)" opacity="0.6">
                  <g id="组_8033" data-name="组 8033">
                    <g id="组_8032" data-name="组 8032">
                      <g id="组_8031" data-name="组 8031">
                        <path id="路径_28871" data-name="路径 28871" d="M-99.912,418.783l-1.652-2.065L-77.256,397.1s1.511-.467,2.052.416Z" transform="translate(101.564 -396.975)" fill="#fff"/>
                      </g>
                    </g>
                  </g>
                </g>
                <g id="组_8039" data-name="组 8039" transform="translate(21.764 12.657)">
                  <g id="组_8038" data-name="组 8038">
                    <g id="组_8037" data-name="组 8037">
                      <g id="组_8036" data-name="组 8036">
                        <g id="组_8035" data-name="组 8035">
                          <path id="路径_28872" data-name="路径 28872" d="M-91.631,402.538c.1.125-.456.7-.717,1.6-.284.893-.141,1.68-.293,1.727-.132.073-.571-.805-.236-1.889S-91.7,402.4-91.631,402.538Z" transform="translate(93.001 -402.516)" fill="#263238"/>
                        </g>
                      </g>
                    </g>
                  </g>
                </g>
                <g id="组_8044" data-name="组 8044" transform="translate(25.902 11.509)">
                  <g id="组_8043" data-name="组 8043">
                    <g id="组_8042" data-name="组 8042">
                      <g id="组_8041" data-name="组 8041">
                        <g id="组_8040" data-name="组 8040">
                          <path id="路径_28873" data-name="路径 28873" d="M-86.595,400.963c.128.094-.219.749-.19,1.614,0,.864.373,1.507.249,1.605-.1.116-.788-.52-.8-1.595S-86.7,400.85-86.595,400.963Z" transform="translate(87.339 -400.95)" fill="#263238"/>
                        </g>
                      </g>
                    </g>
                  </g>
                </g>
                <g id="组_8049" data-name="组 8049" transform="translate(29.654 10.471)">
                  <g id="组_8048" data-name="组 8048">
                    <g id="组_8047" data-name="组 8047">
                      <g id="组_8046" data-name="组 8046">
                        <g id="组_8045" data-name="组 8045">
                          <path id="路径_28874" data-name="路径 28874" d="M-81.078,402.426c-.088.12-.773-.34-1.031-1.269s.08-1.678.218-1.621c.153.041.091.711.315,1.471C-81.371,401.771-80.969,402.311-81.078,402.426Z" transform="translate(82.206 -399.533)" fill="#263238"/>
                        </g>
                      </g>
                    </g>
                  </g>
                </g>
                <g id="组_8054" data-name="组 8054" transform="translate(17.929 9.89)">
                  <g id="组_8053" data-name="组 8053">
                    <g id="组_8052" data-name="组 8052">
                      <g id="组_8051" data-name="组 8051">
                        <g id="组_8050" data-name="组 8050">
                          <path id="路径_28875" data-name="路径 28875" d="M-95.762,398.8c.044.153-.653.463-1.294,1.1s-.99,1.306-1.141,1.257c-.145-.028-.01-.922.756-1.656S-95.783,398.651-95.762,398.8Z" transform="translate(98.248 -398.74)" fill="#263238"/>
                        </g>
                      </g>
                    </g>
                  </g>
                </g>
              </g>
              <g id="组_8059" data-name="组 8059" transform="translate(2.3 2.607)" opacity="0.3">
                <g id="组_8058" data-name="组 8058">
                  <g id="组_8057" data-name="组 8057">
                    <g id="组_8056" data-name="组 8056">
                      <path id="路径_28876" data-name="路径 28876" d="M-107.492,388.8l1.87,2.341-12.239,10.342-1.771-2.035Z" transform="translate(119.631 -388.797)"/>
                    </g>
                  </g>
                </g>
              </g>
              <g id="组_8064" data-name="组 8064" transform="translate(13.104 7.077)">
                <g id="组_8063" data-name="组 8063">
                  <g id="组_8062" data-name="组 8062">
                    <g id="组_8061" data-name="组 8061">
                      <g id="组_8060" data-name="组 8060">
                        <path id="路径_28877" data-name="路径 28877" d="M-99.7,395.156c.044.049-.369.534-1.243,1.059a7.32,7.32,0,0,1-1.636.716,7.65,7.65,0,0,1-1.035.234,2.022,2.022,0,0,1-.623.03.694.694,0,0,1-.607-.6.876.876,0,0,1,.292-.731,2.155,2.155,0,0,1,.52-.336,5.82,5.82,0,0,1,1-.4,5.743,5.743,0,0,1,1.785-.231,2.707,2.707,0,0,1,1.59.381c-.02.086-.624-.052-1.584.011a6.517,6.517,0,0,0-1.637.327,6.073,6.073,0,0,0-.9.392c-.321.157-.545.346-.512.521.014.065.026.086.146.115a1.582,1.582,0,0,0,.457-.023,8.329,8.329,0,0,0,.975-.188,8.956,8.956,0,0,0,1.59-.57A11.412,11.412,0,0,1-99.7,395.156Z" transform="translate(104.848 -394.9)" fill="#263238"/>
                      </g>
                    </g>
                  </g>
                </g>
              </g>
              <g id="组_8069" data-name="组 8069" transform="translate(15.507 2.719)">
                <g id="组_8068" data-name="组 8068">
                  <g id="组_8067" data-name="组 8067">
                    <g id="组_8066" data-name="组 8066">
                      <g id="组_8065" data-name="组 8065">
                        <path id="路径_28878" data-name="路径 28878" d="M-98.823,393.874c-.027.055-.637-.172-1.353-.917a5.329,5.329,0,0,1-.995-1.5,5.4,5.4,0,0,1-.33-1.024,1.354,1.354,0,0,1,.253-1.306.761.761,0,0,1,.813-.1,2.213,2.213,0,0,1,.517.346,3.632,3.632,0,0,1,.716.834,3.765,3.765,0,0,1,.569,1.736,2.108,2.108,0,0,1-.357,1.6,13.638,13.638,0,0,0-.031-1.556,3.776,3.776,0,0,0-.607-1.5,3.371,3.371,0,0,0-.637-.7c-.265-.231-.545-.358-.62-.246a.934.934,0,0,0-.085.779,5.446,5.446,0,0,0,.269.936,5.887,5.887,0,0,0,.821,1.444C-99.29,393.457-98.773,393.8-98.823,393.874Z" transform="translate(101.561 -388.95)" fill="#263238"/>
                      </g>
                    </g>
                  </g>
                </g>
              </g>
            </g>
            <g id="组_8119" data-name="组 8119" transform="translate(129.333 122.862)">
              <g id="组_8104" data-name="组 8104">
                <g id="组_8074" data-name="组 8074">
                  <g id="组_8073" data-name="组 8073">
                    <g id="组_8072" data-name="组 8072">
                      <g id="组_8071" data-name="组 8071">
                        <path id="路径_28879" data-name="路径 28879" d="M-127.556,440.543l-.65,17.2s17.228,6.44,17.416,9.631l-33.325-.066-.083-26.846Z" transform="translate(144.199 -440.465)" fill="#ff725e"/>
                      </g>
                    </g>
                  </g>
                </g>
                <g id="组_8079" data-name="组 8079" transform="translate(4.718 15.757)" opacity="0.6">
                  <g id="组_8078" data-name="组 8078">
                    <g id="组_8077" data-name="组 8077">
                      <g id="组_8076" data-name="组 8076">
                        <g id="组_8075" data-name="组 8075">
                          <path id="路径_28880" data-name="路径 28880" d="M-136.771,462.031a1.365,1.365,0,0,0-.944,1.555,1.309,1.309,0,0,0,1.53.952,1.441,1.441,0,0,0,.991-1.652,1.357,1.357,0,0,0-1.7-.813" transform="translate(137.744 -461.975)" fill="#fff"/>
                        </g>
                      </g>
                    </g>
                  </g>
                </g>
                <g id="组_8083" data-name="组 8083" transform="translate(0.083 24.14)" opacity="0.6">
                  <g id="组_8082" data-name="组 8082">
                    <g id="组_8081" data-name="组 8081">
                      <g id="组_8080" data-name="组 8080">
                        <path id="路径_28881" data-name="路径 28881" d="M-144.085,476.124l.1-2.706,31.916,1.075s1.482.65,1.313,1.7Z" transform="translate(144.085 -473.418)" fill="#fff"/>
                      </g>
                    </g>
                  </g>
                </g>
                <g id="组_8088" data-name="组 8088" transform="translate(13.492 16.96)">
                  <g id="组_8087" data-name="组 8087">
                    <g id="组_8086" data-name="组 8086">
                      <g id="组_8085" data-name="组 8085">
                        <g id="组_8084" data-name="组 8084">
                          <path id="路径_28882" data-name="路径 28882" d="M-122.7,463.769c-.006.163-.819.236-1.621.758-.816.5-1.229,1.208-1.379,1.143-.15-.032.1-1.007,1.077-1.623S-122.663,463.619-122.7,463.769Z" transform="translate(125.74 -463.617)" fill="#263238"/>
                        </g>
                      </g>
                    </g>
                  </g>
                </g>
                <g id="组_8093" data-name="组 8093" transform="translate(17.812 18.502)">
                  <g id="组_8092" data-name="组 8092">
                    <g id="组_8091" data-name="组 8091">
                      <g id="组_8090" data-name="组 8090">
                        <g id="组_8089" data-name="组 8089">
                          <path id="路径_28883" data-name="路径 28883" d="M-117.615,465.788c.037.158-.669.434-1.223,1.123-.574.672-.716,1.418-.877,1.41-.153.026-.264-.93.441-1.774S-117.619,465.632-117.615,465.788Z" transform="translate(119.829 -465.721)" fill="#263238"/>
                        </g>
                      </g>
                    </g>
                  </g>
                </g>
                <g id="组_8098" data-name="组 8098" transform="translate(21.808 19.953)">
                  <g id="组_8097" data-name="组 8097">
                    <g id="组_8096" data-name="组 8096">
                      <g id="组_8095" data-name="组 8095">
                        <g id="组_8094" data-name="组 8094">
                          <path id="路径_28884" data-name="路径 28884" d="M-114.167,470.514c-.148.034-.373-.781.048-1.673s1.181-1.247,1.25-1.111c.091.134-.4.612-.737,1.351C-113.958,469.811-114.006,470.5-114.167,470.514Z" transform="translate(114.362 -467.702)" fill="#263238"/>
                        </g>
                      </g>
                    </g>
                  </g>
                </g>
                <g id="组_8103" data-name="组 8103" transform="translate(12.782 12.586)">
                  <g id="组_8102" data-name="组 8102">
                    <g id="组_8101" data-name="组 8101">
                      <g id="组_8100" data-name="组 8100">
                        <g id="组_8099" data-name="组 8099">
                          <path id="路径_28885" data-name="路径 28885" d="M-123.246,458.235c-.069.149-.814-.078-1.734-.018-.921.043-1.637.35-1.722.21-.094-.118.606-.72,1.691-.776S-123.165,458.107-123.246,458.235Z" transform="translate(126.711 -457.646)" fill="#263238"/>
                        </g>
                      </g>
                    </g>
                  </g>
                </g>
              </g>
              <g id="组_8108" data-name="组 8108" transform="translate(0.004 3.485)" opacity="0.3">
                <g id="组_8107" data-name="组 8107">
                  <g id="组_8106" data-name="组 8106">
                    <g id="组_8105" data-name="组 8105">
                      <path id="路径_28886" data-name="路径 28886" d="M-127.688,445.222l-.112,3.066-16.378-.182-.016-2.763Z" transform="translate(144.193 -445.222)"/>
                    </g>
                  </g>
                </g>
              </g>
              <g id="组_8113" data-name="组 8113" transform="translate(11.25 7.003)">
                <g id="组_8112" data-name="组 8112">
                  <g id="组_8111" data-name="组 8111">
                    <g id="组_8110" data-name="组 8110">
                      <g id="组_8109" data-name="组 8109">
                        <path id="路径_28887" data-name="路径 28887" d="M-123.742,452.724a3.118,3.118,0,0,1-1.669-.012,7.489,7.489,0,0,1-1.745-.541,7.82,7.82,0,0,1-.957-.512,2.044,2.044,0,0,1-.5-.394.712.712,0,0,1-.073-.868.894.894,0,0,1,.714-.371,2.2,2.2,0,0,1,.626.088,6.047,6.047,0,0,1,1.036.359,5.88,5.88,0,0,1,1.538,1.016c.771.719,1.034,1.329.978,1.36-.073.053-.449-.458-1.234-1.052a6.652,6.652,0,0,0-1.487-.843,6.154,6.154,0,0,0-.957-.3c-.353-.094-.653-.1-.744.06-.033.06-.037.083.036.187a1.659,1.659,0,0,0,.371.288,8.728,8.728,0,0,0,.881.507,9.269,9.269,0,0,0,1.612.623A11.447,11.447,0,0,1-123.742,452.724Z" transform="translate(128.806 -450.024)" fill="#263238"/>
                      </g>
                    </g>
                  </g>
                </g>
              </g>
              <g id="组_8118" data-name="组 8118" transform="translate(15.659 4.63)">
                <g id="组_8117" data-name="组 8117">
                  <g id="组_8116" data-name="组 8116">
                    <g id="组_8115" data-name="组 8115">
                      <g id="组_8114" data-name="组 8114">
                        <path id="路径_28888" data-name="路径 28888" d="M-122.331,452.09a2.665,2.665,0,0,1-.437-1.616,5.444,5.444,0,0,1,.231-1.831,5.456,5.456,0,0,1,.428-1.015,1.379,1.379,0,0,1,1.066-.842.779.779,0,0,1,.7.468,2.264,2.264,0,0,1,.17.613,3.73,3.73,0,0,1,0,1.127,3.842,3.842,0,0,1-.716,1.727c-.653.864-1.332,1.058-1.346,1-.054-.082.514-.4,1.014-1.227a3.852,3.852,0,0,0,.531-1.571,3.449,3.449,0,0,0-.029-.966c-.051-.355-.183-.642-.316-.606-.166,0-.448.264-.585.547a5.552,5.552,0,0,0-.415.906,6,6,0,0,0-.327,1.669C-122.415,451.455-122.243,452.066-122.331,452.09Z" transform="translate(122.775 -446.785)" fill="#263238"/>
                      </g>
                    </g>
                  </g>
                </g>
              </g>
            </g>
            <g id="组_8137" data-name="组 8137" transform="translate(59.252 27.699)">
              <g id="组_8120" data-name="组 8120" transform="translate(69.825 13.898)">
                <path id="路径_28889" data-name="路径 28889" d="M-144.55,329.533l32.979,43.928L-127,386.741l-15.881-20.813Z" transform="translate(144.55 -329.533)" fill="#263238"/>
              </g>
              <g id="组_8121" data-name="组 8121">
                <path id="路径_28890" data-name="路径 28890" d="M-240.085,326.559s53.057-16.2,57.918-16,14.085,17.792,14.085,17.792l-14.895-.54c-3.822,9.4-10.882,19.072-18.833,28.822l-30.458-1.42Z" transform="translate(240.085 -310.56)" fill="#263238"/>
              </g>
              <g id="组_8123" data-name="组 8123" transform="translate(18.902 3.193)">
                <g id="组_8122" data-name="组 8122">
                  <path id="路径_28891" data-name="路径 28891" d="M-189.754,314.924c.03.1-5.424,1.815-12.179,3.827s-12.259,3.563-12.289,3.462,5.422-1.815,12.18-3.828S-189.784,314.823-189.754,314.924Z" transform="translate(214.223 -314.92)" fill="#263238"/>
                </g>
              </g>
              <g id="组_8124" data-name="组 8124" transform="translate(37.318 16.972)">
                <path id="路径_28892" data-name="路径 28892" d="M-170.644,333.728h14.9a17.521,17.521,0,0,1,16.526,11.73h0a27.169,27.169,0,0,1,1.5,10.313l-1.16,60.74h-20.055l-.36-19.411-2.535-36.9-17.36.736-9.838-.614Z" transform="translate(189.026 -333.728)" fill="#263238"/>
              </g>
              <g id="组_8126" data-name="组 8126" transform="translate(37.317 16.668)">
                <g id="组_8125" data-name="组 8125">
                  <path id="路径_28893" data-name="路径 28893" d="M-170.2,333.314a8.562,8.562,0,0,1-.281,1.283,34.092,34.092,0,0,1-1.053,3.425,34.945,34.945,0,0,1-2.212,4.839,39.39,39.39,0,0,1-3.627,5.409,96.976,96.976,0,0,1-8.1,8.583l-2.573,2.478a8.669,8.669,0,0,1-.976.876,8.675,8.675,0,0,1,.87-.981c.577-.617,1.43-1.49,2.489-2.565,2.1-2.16,5.11-5.056,7.994-8.629a39.188,39.188,0,0,0,5.886-10.106c.528-1.407.933-2.559,1.162-3.37A8.731,8.731,0,0,1-170.2,333.314Z" transform="translate(189.027 -333.314)" fill="#455a64"/>
                </g>
              </g>
              <g id="组_8128" data-name="组 8128" transform="translate(55.903 16.744)">
                <g id="组_8127" data-name="组 8127">
                  <path id="路径_28894" data-name="路径 28894" d="M-145.14,334.054c-.007.058-1.039-.038-2.706-.131s-3.975-.165-6.522-.111-4.854.2-6.522.314a21.982,21.982,0,0,1-2.708.138,2.751,2.751,0,0,1,.715-.152c.463-.075,1.136-.162,1.969-.256,1.666-.182,3.977-.378,6.538-.427a56.577,56.577,0,0,1,6.551.223c.835.079,1.509.167,1.972.243A2.682,2.682,0,0,1-145.14,334.054Z" transform="translate(163.599 -333.417)" fill="#455a64"/>
                </g>
              </g>
              <g id="组_8130" data-name="组 8130" transform="translate(64.189 38.829)">
                <g id="组_8129" data-name="组 8129">
                  <path id="路径_28895" data-name="路径 28895" d="M-149.124,413.394a2.548,2.548,0,0,1-.054-.506c-.02-.371-.048-.853-.081-1.453-.058-1.308-.139-3.122-.238-5.346-.2-4.513-.47-10.748-.9-17.626s-.944-13.1-1.312-17.6c-.181-2.218-.327-4.029-.433-5.333-.042-.6-.076-1.081-.1-1.452a2.532,2.532,0,0,1-.009-.508,2.513,2.513,0,0,1,.085.5c.045.369.1.848.173,1.445.135,1.3.323,3.109.553,5.323.438,4.5.99,10.719,1.424,17.6s.661,13.124.789,17.641c.049,2.226.088,4.042.118,5.351,0,.6.007,1.084.01,1.456A2.569,2.569,0,0,1-149.124,413.394Z" transform="translate(152.262 -363.565)" fill="#263238"/>
                </g>
              </g>
              <g id="组_8132" data-name="组 8132" transform="translate(87.911 36.674)">
                <g id="组_8131" data-name="组 8131">
                  <path id="路径_28896" data-name="路径 28896" d="M-119.059,360.623c.105,0,.034,13.919-.158,31.083s-.434,31.082-.539,31.08-.034-13.916.159-31.085S-119.163,360.622-119.059,360.623Z" transform="translate(119.805 -360.623)" fill="#455a64"/>
                </g>
              </g>
              <g id="组_8134" data-name="组 8134" transform="translate(64.275 34.392)">
                <g id="组_8133" data-name="组 8133">
                  <path id="路径_28897" data-name="路径 28897" d="M-144.125,357.52a34.866,34.866,0,0,0-4.277,2.024,34.867,34.867,0,0,0-3.738,2.906,4.036,4.036,0,0,1,.876-1.106,13.917,13.917,0,0,1,2.663-2.125,13.921,13.921,0,0,1,3.1-1.417A4.043,4.043,0,0,1-144.125,357.52Z" transform="translate(152.144 -357.508)" fill="#263238"/>
                </g>
              </g>
              <g id="组_8136" data-name="组 8136" transform="translate(37.318 17.611)" opacity="0.3">
                <g id="组_8135" data-name="组 8135">
                  <path id="路径_28898" data-name="路径 28898" d="M-189.026,360.558a17.372,17.372,0,0,0,11.951-2.66,16.076,16.076,0,0,0,7.016-9.555c.443-1.75.577-3.563,1.018-5.313a8.027,8.027,0,0,1,2.712-4.6c1.7-1.267,5.875-2.074,7.12-3.768,0-.256-4.952.319-6.614.411-1.809.1-4.843.56-4.781.346a45.709,45.709,0,0,1-1.749,5.181c-3.617,6.217-11.547,15.353-16.674,19.955" transform="translate(189.026 -334.6)"/>
                </g>
              </g>
            </g>
            <g id="组_8154" data-name="组 8154">
              <g id="组_8138" data-name="组 8138" transform="translate(13.884 114.265)">
                <path id="路径_28899" data-name="路径 28899" d="M-302.157,428.729l5.638,36.971h5.6l-2.755-36.831Z" transform="translate(302.157 -428.729)" fill="#263238"/>
              </g>
              <g id="组_8139" data-name="组 8139" transform="translate(113.13 114.265)">
                <path id="路径_28900" data-name="路径 28900" d="M-166.369,428.869V465.7h5.906l2.2-36.971Z" transform="translate(166.369 -428.729)" fill="#263238"/>
              </g>
              <g id="组_8147" data-name="组 8147">
                <g id="组_8140" data-name="组 8140">
                  <path id="路径_28901" data-name="路径 28901" d="M-308.269,272.749s-7.9.314-10.319,3.636c-4.265,5.854-1.868,10.93-2.106,12.661s13.425,97.968,13.425,97.968h5.625l101.725.941,4.881-11.9-2.348-32.17-27.2.122s-11.137-32.042-20.875-34.185c-6.594-1.45-22.082-.937-31.4-.453a13.006,13.006,0,0,1-11.6-5.937Z" transform="translate(321.153 -272.749)" fill="#a58fff"/>
                </g>
                <g id="组_8142" data-name="组 8142" transform="translate(5.42 2.227)">
                  <g id="组_8141" data-name="组 8141">
                    <path id="路径_28902" data-name="路径 28902" d="M-216.117,384.046s-.56.073-1.642.125c-1.08.031-2.677.081-4.738.1-4.124.056-10.113.075-17.57.068-14.916-.012-35.707-.13-59.213-.335h-.152l-.031-.148c-.422-2.018-.857-4.088-1.3-6.195-.422-2.109-.851-4.254-1.283-6.416-5.107-26.095-8.1-50-9.71-67.341-.809-8.671-1.294-15.7-1.6-20.562-.132-2.423-.236-4.306-.307-5.6-.029-.632-.052-1.116-.068-1.456s-.01-.5-.01-.5.023.167.049.5.06.824.106,1.454c.088,1.292.215,3.173.379,5.593.352,4.856.877,11.882,1.72,20.546,1.677,17.326,4.711,41.214,9.815,67.294.431,2.16.86,4.3,1.281,6.413.44,2.1.873,4.174,1.294,6.191l-.182-.149,59.211.461,17.568.047,4.737-.034c.54,0,.947-.04,1.224-.045S-216.117,384.046-216.117,384.046Z" transform="translate(313.738 -275.789)" fill="#263238"/>
                  </g>
                </g>
                <g id="组_8144" data-name="组 8144" transform="translate(97.039 70.884)">
                  <g id="组_8143" data-name="组 8143">
                    <path id="路径_28903" data-name="路径 28903" d="M-183.454,413.654a2.146,2.146,0,0,1,.042-.458c.05-.337.113-.768.192-1.3.092-.563.2-1.251.289-2.056s.234-1.714.3-2.73c.092-1.014.2-2.124.238-3.32.08-1.194.084-2.473.1-3.818a81.693,81.693,0,0,0-.509-8.731,85.36,85.36,0,0,0-1.5-8.619c-.615-2.62-1.278-4.953-1.908-6.888-.292-.977-.62-1.837-.879-2.6s-.505-1.418-.709-1.95l-.454-1.232a2.056,2.056,0,0,1-.135-.44,2.146,2.146,0,0,1,.205.41l.52,1.207c.226.525.495,1.169.772,1.931s.626,1.619.934,2.593c.665,1.931,1.358,4.266,1.994,6.893a80.2,80.2,0,0,1,1.541,8.655,76.992,76.992,0,0,1,.482,8.777c-.028,1.351-.042,2.636-.137,3.834-.056,1.2-.176,2.314-.285,3.33-.089,1.018-.251,1.93-.363,2.732s-.24,1.491-.354,2.05c-.108.527-.2.954-.263,1.288A2.019,2.019,0,0,1-183.454,413.654Z" transform="translate(188.385 -369.511)" fill="#263238"/>
                  </g>
                </g>
                <g id="组_8146" data-name="组 8146" transform="translate(27.427 36.026)">
                  <g id="组_8145" data-name="组 8145">
                    <path id="路径_28904" data-name="路径 28904" d="M-283.627,331.982a2.809,2.809,0,0,1,.411-.347l1.228-.939.895-.672c.341-.224.727-.445,1.134-.694a26.945,26.945,0,0,1,2.827-1.584l1.7-.826c.588-.292,1.237-.506,1.89-.777.661-.248,1.328-.552,2.046-.777l2.212-.7a63.271,63.271,0,0,1,10.1-2.105,73.309,73.309,0,0,1,10.3-.626c1.587-.028,3.092.1,4.5.152,1.4.13,2.717.221,3.905.39a50.721,50.721,0,0,1,5.585,1.027l1.488.413a2.887,2.887,0,0,1,.511.169,2.893,2.893,0,0,1-.531-.1l-1.5-.343c-1.307-.277-3.211-.63-5.585-.9-1.185-.151-2.493-.226-3.892-.342-1.4-.038-2.9-.155-4.483-.116a76.243,76.243,0,0,0-10.247.653A65.173,65.173,0,0,0-269.189,325l-2.2.681c-.716.218-1.38.514-2.039.754-.65.263-1.3.468-1.886.752l-1.695.8a28.411,28.411,0,0,0-2.837,1.524c-.41.239-.8.451-1.145.664l-.909.642-1.266.878A2.894,2.894,0,0,1-283.627,331.982Z" transform="translate(283.628 -321.928)" fill="#263238"/>
                  </g>
                </g>
              </g>
              <g id="组_8149" data-name="组 8149" transform="translate(9.61 51.289)">
                <g id="组_8148" data-name="组 8148">
                  <path id="路径_28905" data-name="路径 28905" d="M-229.732,342.763a1.145,1.145,0,0,1-.069.241c-.055.156-.127.393-.247.695a9.729,9.729,0,0,1-1.5,2.4,12.237,12.237,0,0,1-3.515,2.767,16.839,16.839,0,0,1-2.59,1.075,16.965,16.965,0,0,1-3.079.631,25.391,25.391,0,0,1-7.168-.407c-2.545-.456-5.2-1.193-8.013-1.87a35.4,35.4,0,0,0-8.933-1.183,16.943,16.943,0,0,0-4.681.72,14.657,14.657,0,0,0-4.336,2.2,25.5,25.5,0,0,0-6.348,7.246c-1.67,2.664-2.994,5.41-4.405,7.95a39.687,39.687,0,0,1-4.574,6.868,16.926,16.926,0,0,1-5.624,4.453,14.347,14.347,0,0,1-5.758,1.36,10.693,10.693,0,0,1-4.388-.822,9.492,9.492,0,0,1-1.44-.779c-.376-.289-.7-.534-.934-.752l-.507-.536a1.25,1.25,0,0,1-.162-.19,1.217,1.217,0,0,1,.191.164l.529.5c.244.207.568.44.945.715a9.786,9.786,0,0,0,1.435.737,10.687,10.687,0,0,0,4.325.746,14.24,14.24,0,0,0,5.648-1.39,16.73,16.73,0,0,0,5.5-4.416,39.749,39.749,0,0,0,4.506-6.832c1.4-2.534,2.716-5.288,4.4-7.978a25.761,25.761,0,0,1,6.441-7.356,14.982,14.982,0,0,1,4.448-2.257,17.275,17.275,0,0,1,4.784-.731,35.5,35.5,0,0,1,9.023,1.215c2.816.689,5.464,1.433,7.988,1.9a25.337,25.337,0,0,0,7.083.449,16.863,16.863,0,0,0,3.036-.595,16.8,16.8,0,0,0,2.563-1.031,12.311,12.311,0,0,0,3.5-2.675A10.608,10.608,0,0,0-229.732,342.763Z" transform="translate(308.004 -342.762)" fill="#fff"/>
                </g>
              </g>
              <g id="组_8151" data-name="组 8151" transform="translate(12.111 91.139)">
                <g id="组_8150" data-name="组 8150">
                  <path id="路径_28906" data-name="路径 28906" d="M-191.636,404.174s-.108.033-.321.078l-.944.19a13.9,13.9,0,0,0-1.491.463,7.426,7.426,0,0,0-.912.4,8.629,8.629,0,0,0-1.009.516,25.286,25.286,0,0,0-4.657,3.528c-1.7,1.533-3.508,3.418-5.732,5.271a20.959,20.959,0,0,1-3.755,2.558,15.983,15.983,0,0,1-2.226.968l-1.208.324a11.018,11.018,0,0,1-1.254.218,15.345,15.345,0,0,1-5.269-.269,21.944,21.944,0,0,1-5.241-1.954,45.655,45.655,0,0,1-9.7-7.013,82.081,82.081,0,0,0-9.86-8.156,24.694,24.694,0,0,0-5.767-2.882,16.5,16.5,0,0,0-6.154-.855,18.216,18.216,0,0,0-5.845,1.4,35.908,35.908,0,0,0-5.151,2.7c-3.231,2-6.171,4.14-9.161,5.773a37.015,37.015,0,0,1-8.8,3.4,37.492,37.492,0,0,1-13.581.82,29.518,29.518,0,0,1-4.9-.995s.112.012.325.056l.943.2c.828.176,2.058.4,3.655.588a38.069,38.069,0,0,0,13.5-.935,36.963,36.963,0,0,0,8.715-3.419c2.959-1.631,5.886-3.774,9.128-5.794a36.075,36.075,0,0,1,5.2-2.741,18.547,18.547,0,0,1,5.962-1.44,16.85,16.85,0,0,1,6.294.867,25.033,25.033,0,0,1,5.856,2.923,81.773,81.773,0,0,1,9.9,8.2,45.548,45.548,0,0,0,9.61,6.975,21.643,21.643,0,0,0,5.156,1.94,15.054,15.054,0,0,0,5.155.282,10.685,10.685,0,0,0,1.226-.207l1.183-.312a15.736,15.736,0,0,0,2.185-.939,20.783,20.783,0,0,0,3.72-2.505c2.218-1.826,4.044-3.7,5.759-5.222a24.9,24.9,0,0,1,4.727-3.5,8.539,8.539,0,0,1,1.027-.505,7.362,7.362,0,0,1,.928-.387,12.957,12.957,0,0,1,1.513-.431l.955-.154C-191.747,404.18-191.636,404.174-191.636,404.174Z" transform="translate(304.583 -397.16)" fill="#fff"/>
                </g>
              </g>
              <g id="组_8153" data-name="组 8153" transform="translate(4.516 18.134)">
                <g id="组_8152" data-name="组 8152">
                  <path id="路径_28907" data-name="路径 28907" d="M-296.149,297.5a3.792,3.792,0,0,1-.2.926,12.771,12.771,0,0,1-.976,2.393,14.371,14.371,0,0,1-5.96,5.978,14.326,14.326,0,0,1-8.3,1.489,12.715,12.715,0,0,1-2.516-.563,3.736,3.736,0,0,1-.872-.366,25.6,25.6,0,0,0,3.418.661,14.722,14.722,0,0,0,8.1-1.559,14.77,14.77,0,0,0,5.9-5.769A25.747,25.747,0,0,0-296.149,297.5Z" transform="translate(314.974 -297.504)" fill="#fff"/>
                </g>
              </g>
            </g>
          </g>
          <path id="路径_28908" data-name="路径 28908" d="M-257.867,181.441s.319,4.247,3,5.14,4.636.826,6.134,3.508,3.236,1.98,3.7,2.4,1.27,2.7,1.338,2.428a30.827,30.827,0,0,0-2.625-6.734c-.986-1.444-3.481-6.2-5.143-7.075S-257.938,180.895-257.867,181.441Z" transform="translate(304.122 -175.24)" fill="#263238"/>
        </g>
        <g id="组_8174" data-name="组 8174" transform="translate(202.714 91.727)">
          <g id="Plant" transform="translate(0 0)">
            <g id="组_8173" data-name="组 8173">
              <g id="组_8157" data-name="组 8157" transform="translate(28.579 2.294)">
                <path id="路径_28909" data-name="路径 28909" d="M423.713,272.733c-5.012,2.6-8.855,7.082-11.619,12.016s-4.545,10.346-6.309,15.72l-1.544,27.716c5.832-9.944,10.513-21.634,11.777-33.1l-3.881-.346a9.288,9.288,0,0,0,6.176-4.528,27.619,27.619,0,0,0,2.8-7.368l-4.735.705A17.588,17.588,0,0,0,423.713,272.733Z" transform="translate(-404.241 -272.733)" fill="#455a64"/>
              </g>
              <g id="组_8159" data-name="组 8159" transform="translate(28.579 2.294)" opacity="0.68">
                <g id="组_8158" data-name="组 8158">
                  <path id="路径_28910" data-name="路径 28910" d="M423.713,272.733c-5.012,2.6-8.855,7.082-11.619,12.016s-4.545,10.346-6.309,15.72l-1.544,27.716c5.832-9.944,10.513-21.634,11.777-33.1l-3.881-.346a9.288,9.288,0,0,0,6.176-4.528,27.619,27.619,0,0,0,2.8-7.368l-4.735.705A17.588,17.588,0,0,0,423.713,272.733Z" transform="translate(-404.241 -272.733)" fill="#e5c316"/>
                </g>
              </g>
              <g id="组_8160" data-name="组 8160" transform="translate(15.178)">
                <path id="路径_28911" data-name="路径 28911" d="M389.1,332.245s-12.658-15.186-12.512-29.682H381.7s-5.554-3.661-5.115-5.711.586-9.811.586-9.811l4.675,1.171s-3.506-1.757-3.944-4.54,1.023-15.668,1.023-15.668,5.7,6,7.451,12.154,6.355,13.325,5,32.068S389.1,332.245,389.1,332.245Z" transform="translate(-376.56 -268.005)" fill="#e6c51a"/>
              </g>
              <g id="组_8161" data-name="组 8161" transform="translate(34.128 16.533)">
                <path id="路径_28912" data-name="路径 28912" d="M415.708,351.217s13.714-9.157,16.761-20.844l-4.111-1.121s5.265-1.725,5.358-3.47,1.671-8.016,1.671-8.016l-4.014-.083s3.2-.644,4.162-2.784,2.6-12.821,2.6-12.821-5.891,3.577-8.643,8.138-8.018,9.319-11.023,24.685S415.708,351.217,415.708,351.217Z" transform="translate(-415.703 -302.077)" fill="#e6c51a"/>
              </g>
              <g id="组_8163" data-name="组 8163" transform="translate(20.998 13.24)">
                <g id="组_8162" data-name="组 8162">
                  <path id="路径_28913" data-name="路径 28913" d="M388.583,295.29a.7.7,0,0,1,.047.157c.029.119.065.274.112.467.1.43.232,1.033.4,1.8s.382,1.741.6,2.858.49,2.386.747,3.8c.544,2.815,1.117,6.182,1.707,9.926.572,3.748,1.142,7.878,1.648,12.223s.881,8.5,1.178,12.281c.278,3.782.487,7.19.6,10.056.07,1.432.1,2.729.137,3.867s.057,2.119.063,2.921.012,1.406.016,1.846c0,.2,0,.357,0,.48a.082.082,0,1,1-.028,0c-.006-.123-.014-.281-.024-.479-.016-.44-.038-1.058-.067-1.844s-.057-1.781-.109-2.918-.094-2.433-.177-3.864c-.136-2.862-.364-6.267-.656-10.045-.31-3.776-.7-7.924-1.2-12.269s-1.068-8.47-1.626-12.217c-.576-3.745-1.129-7.112-1.648-9.93-.245-1.412-.5-2.683-.707-3.8s-.4-2.081-.558-2.866l-.355-1.811c-.036-.2-.064-.351-.086-.473A.763.763,0,0,1,388.583,295.29Z" transform="translate(-388.581 -295.29)" fill="#fcfeff"/>
                </g>
              </g>
              <g id="组_8164" data-name="组 8164" transform="translate(0 38.106)">
                <path id="路径_28914" data-name="路径 28914" d="M371.17,381.966s-11.583-13.174-15.18-21.137l2.715-1.163a7.024,7.024,0,0,1-5.51-1.81,20.871,20.871,0,0,1-3.746-4.649l3.577-.606a13.3,13.3,0,0,1-7.815-6.068,22.213,22.213,0,0,1,11.186,5.924,55.783,55.783,0,0,1,6.778,7.872,26.887,26.887,0,0,1,2.633,4.338C367.754,368.7,371.177,377.128,371.17,381.966Z" transform="translate(-345.21 -346.534)" fill="#b1a12e"/>
              </g>
              <g id="组_8166" data-name="组 8166" transform="translate(31.06 24.201)">
                <g id="组_8165" data-name="组 8165">
                  <path id="路径_28915" data-name="路径 28915" d="M429.381,317.879a.608.608,0,0,1-.052.135l-.177.383-.7,1.463c-.619,1.266-1.5,3.106-2.56,5.39-2.129,4.566-4.934,10.938-7.7,18.109s-4.967,13.782-6.456,18.6c-.746,2.406-1.331,4.36-1.723,5.714-.2.66-.351,1.181-.462,1.556-.052.164-.094.3-.127.4a.073.073,0,1,1-.027-.007l.1-.41.413-1.57c.36-1.363.918-3.325,1.641-5.741,1.443-4.831,3.619-11.455,6.386-18.638s5.609-13.546,7.783-18.093c1.086-2.275,1.991-4.1,2.639-5.355l.748-1.441.2-.371A.565.565,0,0,1,429.381,317.879Z" transform="translate(-409.365 -317.879)" fill="#fff"/>
                </g>
              </g>
              <g id="组_8168" data-name="组 8168" transform="translate(18.459 56.664)">
                <g id="组_8167" data-name="组 8167">
                  <path id="路径_28916" data-name="路径 28916" d="M391.821,407.3a.871.871,0,0,1-.059-.242c-.031-.191-.07-.421-.116-.7-.09-.608-.243-1.484-.457-2.561s-.508-2.351-.888-3.75-.873-2.918-1.459-4.486-1.237-3.025-1.863-4.333-1.253-2.456-1.806-3.4-1.013-1.709-1.346-2.224l-.373-.6a.875.875,0,0,1-.115-.22c.008-.005.063.06.16.189l.416.574c.361.5.85,1.244,1.423,2.185s1.212,2.088,1.866,3.391,1.3,2.774,1.892,4.347,1.065,3.109,1.446,4.516.65,2.694.836,3.781.315,1.969.373,2.583l.066.706A.87.87,0,0,1,391.821,407.3Z" transform="translate(-383.337 -384.778)" fill="#fff"/>
                </g>
              </g>
              <g id="组_8169" data-name="组 8169" transform="translate(16.875 76.085)">
                <rect id="矩形_3643" data-name="矩形 3643" width="25.353" height="5.183" fill="#455a64"/>
              </g>
              <g id="组_8170" data-name="组 8170" transform="translate(19.291 81.268)">
                <path id="路径_28917" data-name="路径 28917" d="M385.056,435.483l2.742,17.435h15.32l2.556-17.435Z" transform="translate(-385.056 -435.483)" fill="#455a64"/>
              </g>
              <g id="组_8172" data-name="组 8172" transform="translate(19.25 81.132)">
                <g id="组_8171" data-name="组 8171">
                  <path id="路径_28918" data-name="路径 28918" d="M406.394,435.339c0,.075-4.8.136-10.711.136s-10.712-.061-10.712-.136,4.795-.136,10.712-.136S406.394,435.264,406.394,435.339Z" transform="translate(-384.971 -435.203)" fill="#263238"/>
                </g>
              </g>
            </g>
          </g>
        </g>
      </g>
      <g transform="matrix(1, 0, 0, 1, 30, 6736)" filter="url(#联合_120)">
        <path id="联合_120-2" data-name="联合 120" d="M7.548,73.085H6a6,6,0,0,1-6-6V6A6,6,0,0,1,6,0H134.862a6,6,0,0,1,6,6V67.084a6,6,0,0,1-6,6H22.273L9.908,84.244Z" transform="translate(127.02 40.28)" fill="#fff"/>
      </g>
      <g id="组_8175" data-name="组 8175" transform="translate(171.946 6784.64)">
        <rect id="矩形_984" data-name="矩形 984" width="15.943" height="32.697" rx="4" transform="translate(30.373 24.59)" fill="#a58fff"/>
        <rect id="矩形_990" data-name="矩形 990" width="15.943" height="25.904" rx="4" transform="translate(13.079 31.383)" fill="#a58fff"/>
        <rect id="矩形_985" data-name="矩形 985" width="15.943" height="38.912" rx="4" transform="translate(47.667 18.375)" fill="#a58fff"/>
        <rect id="矩形_986" data-name="矩形 986" width="15.943" height="57.287" rx="4" transform="translate(64.961)" fill="#a58fff"/>
        <path id="路径_16216" data-name="路径 16216" d="M3.468-8.486H.765v.823h2.7v2.831h.865V-7.664H7.025v-.823H4.333V-11.3H3.468Zm5.459-4.391-.5,3.889A6.054,6.054,0,0,1,9.4-9.052c1.431,0,2.137.652,2.137,1.688A1.641,1.641,0,0,1,9.813-5.7,3.336,3.336,0,0,1,8.254-6.1l-.278.94a3.821,3.821,0,0,0,1.88.449,2.757,2.757,0,0,0,2.938-2.756,2.482,2.482,0,0,0-2.724-2.5c-.224,0-.374.021-.534.032L9.8-11.851h2.82v-1.026Zm8.226,3.354,2.681-3.483H18.328l-2.1,2.927c-.192.288-.4.588-.588.908H15.6v-3.835H14.375v8.172H15.6v-3l.684-.855,2.265,3.856h1.442Z" transform="translate(97.372 60.947)" fill="#e4be00"/>
        <path id="路径_2213" data-name="路径 2213" d="M3451.84,7024.69H3377.13a1.7,1.7,0,0,1,0-3.4h74.721a9.07,9.07,0,0,0,2.741-.541,15.474,15.474,0,0,0,6.161-4.116c4.294-4.51,9.532-14.342,10.107-35.571a1.7,1.7,0,0,1,1.7-1.656h.047a1.7,1.7,0,0,1,1.655,1.747c-.278,10.289-1.653,18.976-4.087,25.819-1.967,5.531-4.629,9.889-7.911,12.953C3457.392,7024.468,3452.7,7024.69,3451.84,7024.69Z" transform="translate(-3375.429 -6966.079)" fill="#a58fff"/>
        <path id="多边形_18" data-name="多边形 18" d="M4.561,2.967a2,2,0,0,1,3.456,0l2.81,4.823A2,2,0,0,1,9.1,10.8H3.48A2,2,0,0,1,1.751,7.79Z" transform="translate(90.693 8.112)" fill="#a58fff"/>
      </g>
      <g id="组_8176" data-name="组 8176" transform="translate(141.616 6799.873)">
        <g transform="matrix(1, 0, 0, 1, -111.62, -63.87)" filter="url(#椭圆_1555)">
          <circle id="椭圆_1555-2" data-name="椭圆 1555" cx="17.953" cy="17.953" r="17.953" transform="translate(111.62 63.87)" fill="url(#linear-gradient-3)"/>
        </g>
        <path id="ic_group_add_24px" d="M8.609,10.38H5.38V7.152H3.228V10.38H0v2.152H3.228v3.228H5.38V12.532H8.609Zm10.761,1.076a3.228,3.228,0,1,0-.979-6.306,5.31,5.31,0,0,1,.968,3.078,5.414,5.414,0,0,1-.968,3.078A3.217,3.217,0,0,0,19.369,11.456Zm-5.38,0a3.228,3.228,0,1,0-3.228-3.228A3.215,3.215,0,0,0,13.989,11.456Zm7.124,2.324A3.981,3.981,0,0,1,22.6,16.837v2.152h3.228V16.837C25.826,15.18,23.275,14.157,21.112,13.781Zm-7.124-.172c-2.152,0-6.456,1.076-6.456,3.228v2.152H20.445V16.837C20.445,14.685,16.141,13.609,13.989,13.609Z" transform="translate(5.04 4.543)" fill="#fff"/>
      </g>
      <g id="组_8177" data-name="组 8177" transform="translate(42.844 6753.441)">
        <g transform="matrix(1, 0, 0, 1, -12.84, -17.44)" filter="url(#路径_2296)">
          <path id="路径_2296-2" data-name="路径 2296" d="M363.925,202.184l2.465,4.517,4.507,2.471-4.507,2.471-2.465,4.517-2.465-4.517-4.507-2.471,4.507-2.471Z" transform="translate(-344.11 -110.48)" fill="#fff" opacity="0.3"/>
        </g>
        <g transform="matrix(1, 0, 0, 1, -12.84, -17.44)" filter="url(#路径_2297)">
          <path id="路径_2297-2" data-name="路径 2297" d="M375,155.052l2.563-.169,2.067-1.528.169,2.569L381.324,158l-2.563.169-2.067,1.528-.169-2.569Z" transform="translate(-338.71 -125.23)" fill="#fff" opacity="0.61"/>
        </g>
        <g transform="matrix(1, 0, 0, 1, -12.84, -17.44)" filter="url(#路径_2298)">
          <path id="路径_2298-2" data-name="路径 2298" d="M469.551,214.124l2.563-.169,2.067-1.528.169,2.569,1.525,2.072-2.563.169-2.067,1.528-.169-2.569Z" transform="translate(-196.09 -99.08)" fill="#fff" opacity="0.59"/>
        </g>
        <g transform="matrix(1, 0, 0, 1, -12.84, -17.44)" filter="url(#路径_2299)">
          <path id="路径_2299-2" data-name="路径 2299" d="M481.566,129.627l2.563-.169,2.067-1.528.169,2.569,1.525,2.072-2.563.169-2.067,1.528-.169-2.569Z" transform="translate(-292.34 -110.49)" fill="#fff" opacity="0.3"/>
        </g>
        <g transform="matrix(1, 0, 0, 1, -12.84, -17.44)" filter="url(#路径_2300)">
          <path id="路径_2300-2" data-name="路径 2300" d="M421.019,183.124l3.9-2.25,2.071-4,2.245,3.907,3.993,2.076-3.9,2.25-2.071,4-2.245-3.907Z" transform="translate(-160.89 -145.58)" fill="#fff" opacity="0.3"/>
        </g>
      </g>
    </g>
  </g>
</svg>
