<svg xmlns="http://www.w3.org/2000/svg" xmlns:xlink="http://www.w3.org/1999/xlink" width="316.496" height="226.312" viewBox="0 0 316.496 226.312">
  <defs>
    <linearGradient id="linear-gradient" x1="1.038" y1="1.243" x2="1.034" y2="-0.022" gradientUnits="objectBoundingBox">
      <stop offset="0" stop-color="#e5dcff"/>
      <stop offset="1" stop-color="#ddd5ff"/>
    </linearGradient>
    <clipPath id="clip-path">
      <rect id="矩形_3637" data-name="矩形 3637" width="316.496" height="226.312" rx="20" transform="translate(29.58 4789.471)" fill="url(#linear-gradient)"/>
    </clipPath>
    <filter id="路径_2113" x="104.491" y="4.568" width="154.258" height="253.264" filterUnits="userSpaceOnUse">
      <feOffset dy="10" input="SourceAlpha"/>
      <feGaussianBlur stdDeviation="10" result="blur"/>
      <feFlood flood-color="#8b3eff" flood-opacity="0.271"/>
      <feComposite operator="in" in2="blur"/>
      <feComposite in="SourceGraphic"/>
    </filter>
    <filter id="路径_2118" x="190.599" y="101.261" width="69.98" height="68.706" filterUnits="userSpaceOnUse">
      <feOffset dy="10" input="SourceAlpha"/>
      <feGaussianBlur stdDeviation="10" result="blur-2"/>
      <feFlood flood-color="#d40000"/>
      <feComposite operator="in" in2="blur-2"/>
      <feComposite in="SourceGraphic"/>
    </filter>
    <filter id="路径_980" x="220.73" y="84.27" width="73.857" height="74.156" filterUnits="userSpaceOnUse">
      <feOffset dy="3" input="SourceAlpha"/>
      <feGaussianBlur stdDeviation="8" result="blur-3"/>
      <feFlood flood-color="#5525db" flood-opacity="0.451"/>
      <feComposite operator="in" in2="blur-3"/>
      <feComposite in="SourceGraphic"/>
    </filter>
    <linearGradient id="linear-gradient-4" x1="0.5" x2="0.5" y2="1" gradientUnits="objectBoundingBox">
      <stop offset="0" stop-color="#c564ea"/>
      <stop offset="0.506" stop-color="#ab57f6"/>
      <stop offset="1" stop-color="#866bf5"/>
    </linearGradient>
    <filter id="矩形_969" x="117.324" y="25.926" width="184.134" height="112.393" filterUnits="userSpaceOnUse">
      <feOffset dy="16" input="SourceAlpha"/>
      <feGaussianBlur stdDeviation="12" result="blur-4"/>
      <feFlood flood-color="#4800b5" flood-opacity="0.388"/>
      <feComposite operator="in" in2="blur-4"/>
      <feComposite in="SourceGraphic"/>
    </filter>
    <linearGradient id="linear-gradient-6" x1="0.139" y1="0.97" x2="0.691" y2="0.1" gradientUnits="objectBoundingBox">
      <stop offset="0" stop-color="#ffd753"/>
      <stop offset="1" stop-color="#fff1d8"/>
    </linearGradient>
    <filter id="路径_980-2" x="183.988" y="39.372" width="126.799" height="127.051" filterUnits="userSpaceOnUse">
      <feOffset dy="15" input="SourceAlpha"/>
      <feGaussianBlur stdDeviation="17.5" result="blur-5"/>
      <feFlood flood-color="#f70" flood-opacity="0.29"/>
      <feComposite operator="in" in2="blur-5"/>
      <feComposite in="SourceGraphic"/>
    </filter>
    <filter id="ios-thumbs-up" x="212.548" y="61.68" width="69.679" height="70.615" filterUnits="userSpaceOnUse">
      <feOffset dy="10" input="SourceAlpha"/>
      <feGaussianBlur stdDeviation="10" result="blur-6"/>
      <feFlood flood-color="#d40000" flood-opacity="0.659"/>
      <feComposite operator="in" in2="blur-6"/>
      <feComposite in="SourceGraphic"/>
    </filter>
  </defs>
  <g id="pic01" transform="translate(-29.58 -4789.471)">
    <g id="蒙版组_147" data-name="蒙版组 147" clip-path="url(#clip-path)">
      <rect id="矩形_3636" data-name="矩形 3636" width="316.496" height="226.312" rx="20" transform="translate(29.58 4789.471)" fill="url(#linear-gradient)"/>
      <g id="组_7892" data-name="组 7892" transform="translate(29.58 4789.471)">
        <rect id="矩形_214" data-name="矩形 214" width="316.496" height="226.312" rx="20" fill="url(#linear-gradient)"/>
        <g id="椭圆_139" data-name="椭圆 139" transform="translate(263.84 17.195)" fill="none" stroke="#fff" stroke-width="2" opacity="0.33">
          <ellipse cx="17.108" cy="17.769" rx="17.108" ry="17.769" stroke="none"/>
          <ellipse cx="17.108" cy="17.769" rx="16.108" ry="16.769" fill="none"/>
        </g>
        <g id="路径_19990" data-name="路径 19990" transform="translate(42.873 125.08) rotate(110)" fill="none">
          <path d="M6.875,0a7.945,7.945,0,0,1,7.351,7.8,6.8,6.8,0,0,1-6.87,7.331A7.945,7.945,0,0,1,0,7.335,6.8,6.8,0,0,1,6.875,0Z" stroke="none"/>
          <path d="M 6.652649879455566 1.999995231628418 C 5.427849769592285 1.999995231628418 4.283359527587891 2.485105514526367 3.430020332336426 3.365965843200684 C 2.46165943145752 4.365555763244629 1.954910278320313 5.752435684204102 2.003119468688965 7.271115779876709 C 2.051750183105469 8.802865982055664 2.658510208129883 10.26147556304932 3.711620330810547 11.37825584411621 C 4.735179901123047 12.46368598937988 6.052189826965332 13.08604526519775 7.419980049133301 13.13067531585693 C 7.47298002243042 13.13240528106689 7.524280071258545 13.13324546813965 7.576799869537354 13.13324546813965 C 8.801460266113281 13.13324546813965 9.945899963378906 12.64809608459473 10.79930019378662 11.76717567443848 C 11.76772975921631 10.76751518249512 12.27451992034912 9.38067626953125 12.22632026672363 7.862125396728516 C 12.17768955230713 6.330385208129883 11.57092952728271 4.87177562713623 10.51780986785889 3.754995346069336 C 9.494259834289551 2.6695556640625 8.177249908447266 2.047205924987793 6.80951976776123 2.002565383911133 C 6.757169723510742 2.000855445861816 6.704390048980713 1.999995231628418 6.652649879455566 1.999995231628418 M 6.652653217315674 -2.86102294921875e-06 C 6.726331233978271 -2.86102294921875e-06 6.800326347351074 0.001200675964355469 6.874629974365234 0.003625869750976563 C 10.80169010162354 0.1317853927612305 14.0927095413208 3.621746063232422 14.22531032562256 7.798665523529053 C 14.35791015625 11.97559547424316 11.28189182281494 15.25777530670166 7.354809761047363 15.12961578369141 C 3.427740097045898 15.00146579742432 0.1367301940917969 11.51150512695313 0.004129409790039063 7.334575653076172 C -0.1259613037109375 3.236686706542969 2.832310676574707 -2.86102294921875e-06 6.652653217315674 -2.86102294921875e-06 Z" stroke="none" fill="#fff"/>
        </g>
        <ellipse id="椭圆_140" data-name="椭圆 140" cx="2.875" cy="3.32" rx="2.875" ry="3.32" transform="translate(264.632 21.068)" fill="#fff"/>
        <path id="路径_19991" data-name="路径 19991" d="M2.841,0A3.309,3.309,0,0,1,5.877,3.269,2.833,2.833,0,0,1,3.037,6.34,3.309,3.309,0,0,1,0,3.073,2.833,2.833,0,0,1,2.841,0Z" transform="translate(42.661 122.784) rotate(110)" fill="#fff" opacity="0.35"/>
        <g id="草" transform="translate(23.283 149.496)">
          <g id="组_635" data-name="组 635" transform="translate(0 31.901)" opacity="0.44">
            <g id="组_634" data-name="组 634">
              <g id="组_633" data-name="组 633">
                <path id="路径_2107" data-name="路径 2107" d="M277.892,577.453c.452-1.587-.7-3.18-1.985-4.331s-2.828-2.183-3.5-3.7c-1.086-2.466.373-5.659-1.479-7.717-1.089-1.211-3.043-1.615-4.011-2.909a6.213,6.213,0,0,1-.871-2.311,22.87,22.87,0,0,0-6.445-10.924,18.787,18.787,0,0,0,2.529,10.528,12.778,12.778,0,0,1,1.92,4c.4,2.344-1.042,4.76-.405,7.061.727,2.633,3.992,4.395,4.147,7.1.131,2.291-2.074,4.3-1.909,6.592a5.837,5.837,0,0,0,1.125,2.717,10.237,10.237,0,0,0,9.186,4.907l5.334.169Z" transform="translate(-259.571 -545.558)" fill="#a58fff"/>
              </g>
            </g>
          </g>
          <g id="组_657" data-name="组 657" transform="translate(4.707 0)">
            <g id="组_648" data-name="组 648" transform="translate(15.629 15.306)">
              <g id="组_643" data-name="组 643">
                <g id="组_642" data-name="组 642">
                  <g id="组_641" data-name="组 641">
                    <g id="组_640" data-name="组 640">
                      <path id="路径_2109" data-name="路径 2109" d="M288.577,581.657a4.692,4.692,0,0,0,1.468-.029,9.711,9.711,0,0,0,1.734-.395,7.613,7.613,0,0,0,2.141-1.062,2.745,2.745,0,0,0,.881-1.063,4.567,4.567,0,0,0,.251-1.443,12.773,12.773,0,0,1,.124-1.563,4.071,4.071,0,0,1,.652-1.554c.629-1,1.674-1.948,2.011-3.306a9.941,9.941,0,0,0-.145-4.235,8.17,8.17,0,0,1,.125-4.539c.572-1.511,1.742-2.875,2.327-4.578.582-1.721.311-3.571.434-5.4a6.6,6.6,0,0,1,.7-2.683c.432-.855,1.03-1.662,1.5-2.562a17.263,17.263,0,0,0,1.373-5.9q.189-1.528.382-3.087a13.837,13.837,0,0,1,.593-3.089,25.72,25.72,0,0,1,1.277-2.991,9.309,9.309,0,0,0,.618-1.561,14.3,14.3,0,0,0,.173-1.662,17.774,17.774,0,0,0-.142-3.344c-.145-1.115-.367-2.22-.5-3.337l-.024-.193-.027-.223-.219.1a8.1,8.1,0,0,0-2.872,2.2,11.523,11.523,0,0,0-1.764,2.944,33.422,33.422,0,0,0-1.662,6.327,16.119,16.119,0,0,1-2.192,5.843c-.585.861-1.291,1.646-1.911,2.485a6.532,6.532,0,0,0-1.324,2.754c-.315,2.043.928,3.839.669,5.648a5.882,5.882,0,0,1-.973,2.507c-.484.772-1.054,1.488-1.594,2.207a13.931,13.931,0,0,0-1.432,2.23,6.529,6.529,0,0,0-.656,2.421c-.13,1.629.125,3.175-.006,4.634a9.933,9.933,0,0,1-1.317,3.971c-.646,1.188-1.363,2.263-1.965,3.306a16.331,16.331,0,0,0-.809,1.54A7,7,0,0,0,286,574.5a8.714,8.714,0,0,0-.039,2.757,6.6,6.6,0,0,0,1.526,3.517,3.481,3.481,0,0,0,.431.424,2.086,2.086,0,0,0,.35.269c.2.133.305.194.305.194a6.513,6.513,0,0,1-1.033-.925,6.627,6.627,0,0,1-1.448-3.493,8.683,8.683,0,0,1,.068-2.718,6.908,6.908,0,0,1,.472-1.492,16.125,16.125,0,0,1,.813-1.519c.606-1.033,1.331-2.1,1.991-3.3a10.124,10.124,0,0,0,1.362-4.04c.14-1.49-.107-3.041.028-4.632a6.32,6.32,0,0,1,.643-2.341,13.727,13.727,0,0,1,1.416-2.185c.54-.714,1.116-1.433,1.615-2.221a6.151,6.151,0,0,0,1.018-2.61c.257-1.928-.977-3.735-.656-5.635a6.272,6.272,0,0,1,1.28-2.634c.609-.824,1.32-1.61,1.922-2.492a16.368,16.368,0,0,0,2.242-5.94,33.344,33.344,0,0,1,1.65-6.274,11.246,11.246,0,0,1,1.719-2.867,7.756,7.756,0,0,1,2.751-2.105l-.246-.123c.007.062.015.128.024.195.134,1.131.356,2.239.5,3.34a17.442,17.442,0,0,1,.141,3.293,14.039,14.039,0,0,1-.164,1.612,9.111,9.111,0,0,1-.6,1.506,25.947,25.947,0,0,0-1.286,3.023,14.05,14.05,0,0,0-.6,3.141q-.191,1.56-.378,3.089a17.065,17.065,0,0,1-1.334,5.817c-.451.874-1.048,1.684-1.493,2.567a6.846,6.846,0,0,0-.714,2.781c-.117,1.865.151,3.688-.406,5.339s-1.717,3.015-2.3,4.575a8.356,8.356,0,0,0-.114,4.651,9.805,9.805,0,0,1,.172,4.155c-.308,1.3-1.323,2.236-1.965,3.265a4.219,4.219,0,0,0-.662,1.615,12.723,12.723,0,0,0-.112,1.582,4.466,4.466,0,0,1-.227,1.4,2.623,2.623,0,0,1-.828,1.018,7.567,7.567,0,0,1-2.089,1.067,10.033,10.033,0,0,1-1.71.42,7.578,7.578,0,0,1-1.085.094C288.7,581.653,288.577,581.657,288.577,581.657Z" transform="translate(-285.872 -521.858)" fill="#fff"/>
                    </g>
                  </g>
                </g>
              </g>
              <g id="组_647" data-name="组 647" transform="translate(2.702 2.883)">
                <g id="组_646" data-name="组 646">
                  <g id="组_645" data-name="组 645">
                    <g id="组_644" data-name="组 644">
                      <path id="路径_2110" data-name="路径 2110" d="M306.225,525.975a.538.538,0,0,0-.052.146c-.031.116-.07.259-.118.435-.1.38-.23.955-.431,1.672s-.694,1.526-1.107,2.524a34,34,0,0,0-1.268,3.427c-.407,1.288-.768,2.719-1.144,4.252a16.731,16.731,0,0,1-1.708,4.718c-.437.785-.929,1.58-1.321,2.449a10.524,10.524,0,0,0-.768,2.772,51.324,51.324,0,0,1-1.151,5.845c-1.069,3.959-2.088,7.73-3.016,11.164-.95,3.422-1.806,6.506-2.528,9.105-.7,2.575-1.273,4.668-1.676,6.145L289.5,582.3c-.043.177-.077.321-.106.437a.493.493,0,0,0-.024.152.534.534,0,0,0,.058-.144l.139-.429.5-1.66,1.781-6.121c.742-2.594,1.623-5.673,2.6-9.088.936-3.435,1.965-7.206,3.045-11.167a50.6,50.6,0,0,0,1.148-5.869,10.277,10.277,0,0,1,.739-2.705c.377-.847.861-1.637,1.3-2.43a16.844,16.844,0,0,0,1.7-4.791c.365-1.537.711-2.963,1.1-4.249a35.73,35.73,0,0,1,1.213-3.423c.393-1,.861-1.814,1.058-2.554s.286-1.3.37-1.692l.084-.441A.5.5,0,0,0,306.225,525.975Z" transform="translate(-289.367 -525.975)" fill="#fff"/>
                    </g>
                  </g>
                </g>
              </g>
            </g>
            <g id="组_656" data-name="组 656">
              <g id="组_651" data-name="组 651">
                <g id="组_650" data-name="组 650">
                  <g id="组_649" data-name="组 649">
                    <path id="路径_2111" data-name="路径 2111" d="M284.933,575.12c3.485-1.876,4.485-7.569,3.032-11s-4-6.558-4.39-10.212c-.3-2.809.714-5.691-.008-8.437-.975-3.7-4.969-6.574-4.923-10.383.026-2.136,1.369-4.147,1.262-6.282-.131-2.619-2.351-4.7-3.725-7-2.1-3.531-2.242-7.705-2.961-11.664s-2.385-8.2-6.26-10.144c-.572,3.361-1.549,5.663-1.242,10.216.11,1.635,2.207,4.765,2.493,8.349.171,2.142.289,4.287.434,6.43a18.855,18.855,0,0,0,1.115,6.161,47.529,47.529,0,0,1,2.119,4.4c.884,2.9-.278,6.051.436,8.994.6,2.493,2.51,4.638,2.9,7.167.547,3.552-1.992,7.243-.693,10.631.645,1.681,2.172,3.031,2.606,4.767.336,1.347-.03,2.773.275,4.126.49,2.18,5.081,3.873,7.534,3.739" transform="translate(-265.659 -500)" fill="#a58fff" opacity="0.66"/>
                  </g>
                </g>
              </g>
              <g id="组_655" data-name="组 655" transform="translate(2.259 3.337)">
                <g id="组_654" data-name="组 654">
                  <g id="组_653" data-name="组 653">
                    <g id="组_652" data-name="组 652">
                      <path id="路径_2112" data-name="路径 2112" d="M268.582,504.765a.772.772,0,0,0,.015.19c.02.141.046.323.079.552.08.486.169,1.2.351,2.12s.721,1.97,1.143,3.228a43.653,43.653,0,0,1,1.278,4.321c.4,1.619.731,3.412,1.079,5.34a20.719,20.719,0,0,0,1.787,6.038c.489,1.009,1.037,2.018,1.448,3.094a12.722,12.722,0,0,1,.735,3.409,62.528,62.528,0,0,0,1.022,7.351c1.067,4.98,2.084,9.723,3.009,14.041.975,4.3,1.854,8.174,2.593,11.436l1.778,7.7.5,2.092.139.543a.754.754,0,0,0,.059.183.844.844,0,0,0-.025-.189l-.105-.548c-.1-.5-.25-1.206-.438-2.1-.4-1.844-.968-4.478-1.67-7.724-.72-3.265-1.573-7.144-2.522-11.449-.916-4.316-1.923-9.058-2.981-14.037a63.46,63.46,0,0,1-1.025-7.327,12.971,12.971,0,0,0-.76-3.478c-.424-1.1-.98-2.112-1.469-3.112a20.658,20.658,0,0,1-1.795-5.965c-.361-1.926-.709-3.722-1.123-5.345a41.9,41.9,0,0,0-1.332-4.327c-.443-1.263-.986-2.3-1.2-3.2s-.312-1.625-.413-2.1c-.046-.228-.084-.408-.112-.548A.827.827,0,0,0,268.582,504.765Z" transform="translate(-268.58 -504.765)" fill="#fff"/>
                    </g>
                  </g>
                </g>
              </g>
            </g>
          </g>
        </g>
      </g>
      <g id="手机" transform="translate(165.071 4815.039)">
        <g id="组_665" data-name="组 665" transform="translate(0 0)">
          <g id="组_661" data-name="组 661" opacity="0.5">
            <g id="组_660" data-name="组 660">
              <g id="组_659" data-name="组 659">
                <g transform="matrix(1, 0, 0, 1, -135.49, -25.57)" filter="url(#路径_2113)">
                  <g id="路径_2113-2" data-name="路径 2113" transform="translate(-376.67 -536.25)" fill="rgba(255,255,255,0.87)" stroke-linecap="round" stroke-linejoin="round">
                    <path d="M 590.39208984375 753.5826416015625 L 590.3825073242188 753.5826416015625 L 526.1427612304688 753.5445556640625 C 522.2714233398438 753.5422973632813 518.6326904296875 752.0156860351563 515.8968505859375 749.2459106445313 C 513.16259765625 746.477783203125 511.6572265625 742.7987670898438 511.6580200195313 738.886474609375 L 511.689208984375 575.9717407226563 C 511.6900634765625 572.05859375 513.1974487304688 568.3795776367188 515.9337158203125 565.6122436523438 C 518.6713256835938 562.8435668945313 522.3111572265625 561.3187866210938 526.1826171875 561.3187866210938 L 526.1908569335938 561.3187866210938 L 590.4312744140625 561.3570556640625 C 594.3024291992188 561.3594970703125 597.9409790039063 562.8861694335938 600.6766967773438 565.6558227539063 C 603.4109497070313 568.4239501953125 604.91650390625 572.10302734375 604.9159545898438 576.0154418945313 L 604.88427734375 738.930419921875 C 604.8833618164063 742.84326171875 603.3760986328125 746.5221557617188 600.64013671875 749.289306640625 C 597.9027709960938 752.0579223632813 594.2632446289063 753.5826416015625 590.39208984375 753.5826416015625 Z" stroke="none"/>
                    <path d="M 590.3920288085938 753.0826416015625 C 598.1176147460938 753.0826416015625 604.3825073242188 746.7470703125 604.38427734375 738.9302978515625 L 604.4159545898438 576.015380859375 C 604.4169921875 568.1997680664063 598.1566772460938 561.8619384765625 590.4309692382813 561.8570556640625 L 526.1905517578125 561.8187866210938 C 526.1876831054688 561.8187866210938 526.1854248046875 561.8187866210938 526.1826171875 561.8187866210938 C 518.4564819335938 561.8187866210938 512.1908569335938 568.154541015625 512.189208984375 575.9718017578125 L 512.1580200195313 738.8865966796875 C 512.1564331054688 746.7017211914063 518.4166870117188 753.0400390625 526.14306640625 753.0445556640625 L 590.3828125 753.0826416015625 C 590.3861083984375 753.0826416015625 590.3887329101563 753.0826416015625 590.3920288085938 753.0826416015625 M 590.3920288085938 754.0826416015625 L 590.3828125 754.0826416015625 L 526.1424560546875 754.0445556640625 C 522.1365356445313 754.042236328125 518.3715209960938 752.4628295898438 515.5411376953125 749.5972900390625 C 512.7138061523438 746.7349243164063 511.1571960449219 742.9310913085938 511.1580200195313 738.8864135742188 L 511.189208984375 575.9716186523438 C 511.1900634765625 571.926025390625 512.748779296875 568.1221923828125 515.578125 565.2607421875 C 518.4104614257813 562.3963012695313 522.176513671875 560.8187866210938 526.1826171875 560.8187866210938 L 526.1905517578125 560.8187866210938 L 590.4315795898438 560.8570556640625 C 594.4373168945313 560.859619140625 598.2020874023438 562.4390258789063 601.032470703125 565.304443359375 C 603.8597412109375 568.166748046875 605.41650390625 571.970703125 605.4159545898438 576.0155029296875 L 605.38427734375 738.9304809570313 C 605.3833618164063 742.975830078125 603.8247680664063 746.7794799804688 600.9956665039063 749.640869140625 C 598.1636352539063 752.5051879882813 594.3978271484375 754.0826416015625 590.3920288085938 754.0826416015625 Z" stroke="none" fill="#fff"/>
                  </g>
                </g>
              </g>
            </g>
          </g>
          <g id="组_664" data-name="组 664" transform="translate(4.256 5.763)" opacity="0.57">
            <g id="组_663" data-name="组 663">
              <g id="组_662" data-name="组 662">
                <path id="路径_2114" data-name="路径 2114" d="M593.89,572.275l-12.455-.007a3.113,3.113,0,0,0-3.025,3.2v2.286a3.113,3.113,0,0,1-3.025,3.2l-24.277-.014a3.117,3.117,0,0,1-3.024-3.2v-2.285a3.117,3.117,0,0,0-3.024-3.2l-4.38,0-10.9-.007a9.858,9.858,0,0,0-9.806,9.912l-.031,159.016a9.857,9.857,0,0,0,9.794,9.916l64.112.038a9.857,9.857,0,0,0,9.806-9.912l.031-159.017A9.857,9.857,0,0,0,593.89,572.275Z" transform="translate(-519.942 -572.237)" fill="#fff"/>
              </g>
            </g>
          </g>
          <g id="组_671" data-name="组 671" transform="translate(21.441 94.438)">
            <g id="组_668" data-name="组 668">
              <path id="路径_2115" data-name="路径 2115" d="M981.451,1072.665h-21.27a14.151,14.151,0,0,1-14.053-14.216v-21.516a14.151,14.151,0,0,1,14.053-14.216h21.27a14.151,14.151,0,0,1,14.053,14.216v21.516A14.151,14.151,0,0,1,981.451,1072.665ZM960.181,1027a9.89,9.89,0,0,0-9.821,9.934v21.516a9.89,9.89,0,0,0,9.821,9.935h21.27a9.89,9.89,0,0,0,9.821-9.935v-21.516a9.889,9.889,0,0,0-9.821-9.934Z" transform="translate(-946.128 -1022.717)" fill="#c7b7ff"/>
            </g>
            <g id="组_669" data-name="组 669" transform="translate(12.046 12.185)">
              <path id="路径_2116" data-name="路径 2116" d="M997.279,1086.8a12.79,12.79,0,1,1,12.642-12.789A12.73,12.73,0,0,1,997.279,1086.8Zm0-21.3a8.508,8.508,0,1,0,8.41,8.507A8.469,8.469,0,0,0,997.279,1065.505Z" transform="translate(-984.636 -1061.224)" fill="#c7b7ff"/>
            </g>
            <g id="组_670" data-name="组 670" transform="translate(34.835 8.379)">
              <path id="路径_2117" data-name="路径 2117" d="M1063.566,1052.272a3.039,3.039,0,1,1-3.038-3.074A3.056,3.056,0,0,1,1063.566,1052.272Z" transform="translate(-1057.489 -1049.198)" fill="#c7b7ff"/>
            </g>
          </g>
        </g>
      </g>
      <g id="组_7893" data-name="组 7893" transform="translate(244.27 4903.55)">
        <path id="路径_980-3" data-name="路径 980" d="M10.9,0A10.963,10.963,0,0,1,21.8,11.026,10.963,10.963,0,0,1,10.9,22.051,10.963,10.963,0,0,1,0,11.026,10.963,10.963,0,0,1,10.9,0Z" transform="translate(0 0)" fill="#ffdd53"/>
        <g transform="matrix(1, 0, 0, 1, -214.69, -114.08)" filter="url(#路径_2118)">
          <path id="路径_2118-2" data-name="路径 2118" d="M1611.071,842.1a4.825,4.825,0,0,1-5.7-.354,2.79,2.79,0,0,0-1.36.354,2.864,2.864,0,0,0-1.318,3.378c.483,2.2,4.852,4.974,4.852,4.974s4.363-2.773,4.848-4.974a2.826,2.826,0,0,0,.14-.878A2.86,2.86,0,0,0,1611.071,842.1Z" transform="translate(-1381.95 -720.49)" fill="rgba(255,255,255,0.75)"/>
        </g>
      </g>
      <g id="组_7894" data-name="组 7894" transform="translate(274.311 4894.741)">
        <g transform="matrix(1, 0, 0, 1, -244.73, -105.27)" filter="url(#路径_980)">
          <path id="路径_980-4" data-name="路径 980" d="M12.928,0A13,13,0,0,1,25.857,13.078,13,13,0,0,1,12.928,26.156,13,13,0,0,1,0,13.078,13,13,0,0,1,12.928,0Z" transform="translate(244.73 105.27)" fill="#fff"/>
        </g>
        <g id="组_675" data-name="组 675" transform="translate(5.982 6.71)">
          <g id="组_674" data-name="组 674" transform="translate(0 0)">
            <path id="路径_2119" data-name="路径 2119" d="M987.046,688.374a2.555,2.555,0,0,1,1.175,1.9,1.994,1.994,0,0,0,.862.2,2.062,2.062,0,1,0-2.036-2.092m-1.335,4.219a2.061,2.061,0,1,0-2.037-2.061,2.051,2.051,0,0,0,2.037,2.061m.864.141h-1.729a2.626,2.626,0,0,0-2.608,2.638v2.14l0,.033.147.046a11.734,11.734,0,0,0,3.547.577,7.2,7.2,0,0,0,3.1-.588l.136-.069h.015v-2.14a2.626,2.626,0,0,0-2.609-2.638m3.371-2.129H988.23a2.557,2.557,0,0,1-.775,1.77,3.131,3.131,0,0,1,2.214,3v.659a6.949,6.949,0,0,0,2.734-.582l.136-.07h.015v-2.139a2.627,2.627,0,0,0-2.61-2.639m-7.81-.139a2.009,2.009,0,0,0,1.084-.318,2.553,2.553,0,0,1,.947-1.627c0-.039.006-.076.006-.115a2.038,2.038,0,1,0-2.037,2.06m1.83,1.909a2.558,2.558,0,0,1-.775-1.759c-.064,0-.126-.011-.191-.011h-1.729a2.627,2.627,0,0,0-2.609,2.639v2.139l.005.034.146.047a12.029,12.029,0,0,0,2.938.557v-.645a3.133,3.133,0,0,1,2.214-3" transform="translate(-978.662 -686.343)" stroke="rgba(0,0,0,0)" stroke-width="1" fill="url(#linear-gradient-4)"/>
          </g>
        </g>
      </g>
      <g id="组_7895" data-name="组 7895" transform="translate(182.904 4835.397)">
        <g transform="matrix(1, 0, 0, 1, -153.32, -45.93)" filter="url(#矩形_969)">
          <rect id="矩形_969-2" data-name="矩形 969" width="112.134" height="40.393" rx="7" transform="translate(153.32 45.93)" fill="#fff"/>
        </g>
        <g id="组_666" data-name="组 666" transform="translate(45.925 8.797)">
          <path id="路径_2008" data-name="路径 2008" d="M801.833,469.148a11.075,11.075,0,0,0,0-22.148c-2.572,0-5.65,1.523-9.41,4.658l-.054.046,4.536,4.61c3.469-2.807,4.868-2.841,4.928-2.841a4.6,4.6,0,0,1,0,9.2c-.062,0-1.569-.036-5.341-3.18-.436-.364-7.515-7.321-8.134-7.837-3.76-3.134-6.838-4.658-9.41-4.658a11.075,11.075,0,0,0,0,22.148c2.572,0,5.65-1.523,9.41-4.658l.051-.042-4.523-4.622c-3.476,2.815-4.878,2.85-4.938,2.85a4.6,4.6,0,0,1,0-9.2c.061,0,1.728-.165,5.292,3.139,1.818,1.686,7.731,7.527,8.184,7.878,3.863,3,6.838,4.658,9.41,4.658Zm0,0" transform="translate(-768 -447)" fill="url(#linear-gradient-4)"/>
        </g>
        <g id="icon_gets" transform="translate(16.405 5.896)">
          <path id="路径_959" data-name="路径 959" d="M-955.683,274.562H-967v-1.386a5.634,5.634,0,0,1,1.633-3.987,5.5,5.5,0,0,1,3.941-1.651h4.56a5.489,5.489,0,0,1,2.095.412,4.253,4.253,0,0,0-2.095,3.665,4.231,4.231,0,0,0,1.182,2.947Zm-3.794-9.031a4.165,4.165,0,0,1-2.981-1.249,4.262,4.262,0,0,1-1.235-3.016,4.262,4.262,0,0,1,1.235-3.016A4.165,4.165,0,0,1-959.477,257a4.164,4.164,0,0,1,2.981,1.249,4.262,4.262,0,0,1,1.235,3.016,4.261,4.261,0,0,1-1.235,3.016A4.164,4.164,0,0,1-959.477,265.53Z" transform="translate(967 -249.782)" fill="#263238"/>
          <path id="路径_960" data-name="路径 960" d="M-964.973,261.87v-1.281h-1.267a.764.764,0,0,1-.76-.769.765.765,0,0,1,.76-.769h1.267v-1.281a.765.765,0,0,1,.76-.769.764.764,0,0,1,.76.769v1.281h1.267a.765.765,0,0,1,.76.769.764.764,0,0,1-.76.769h-1.267v1.281a.764.764,0,0,1-.76.769A.765.765,0,0,1-964.973,261.87Z" transform="translate(979.16 -238.115)" fill="#263238"/>
          <path id="ic_favorite_24px" d="M2.531,4.527a.658.658,0,0,1-.367-.173C.861,3.159,0,2.37,0,1.4A1.381,1.381,0,0,1,1.388,0,1.511,1.511,0,0,1,2.527.536,1.5,1.5,0,0,1,3.663,0,1.389,1.389,0,0,1,5.055,1.41c0,.966-.857,1.753-2.158,2.947A.649.649,0,0,1,2.531,4.527Z" transform="matrix(0.995, 0.105, -0.105, 0.995, 14.047, 4.667)" fill="#ffae36"/>
          <path id="ic_favorite_24px-2" data-name="ic_favorite_24px" d="M1.377,2.472a.356.356,0,0,1-.2-.094C.467,1.729,0,1.3,0,.774A.762.762,0,0,1,.762,0a.819.819,0,0,1,.621.29A.83.83,0,0,1,2.006,0a.751.751,0,0,1,.758.765c0,.527-.473.959-1.186,1.614A.359.359,0,0,1,1.377,2.472Z" transform="translate(9.022 0.762) rotate(-16)" fill="#ffae36" opacity="0.33"/>
        </g>
      </g>
      <g id="组_7896" data-name="组 7896" transform="translate(266.068 4866.343)">
        <g transform="matrix(1, 0, 0, 1, -236.49, -76.87)" filter="url(#路径_980-2)">
          <g id="路径_980-5" data-name="路径 980" transform="translate(236.49 76.87)" fill="url(#linear-gradient-6)">
            <path d="M10.9,0A10.963,10.963,0,0,1,21.8,11.026,10.963,10.963,0,0,1,10.9,22.051,10.963,10.963,0,0,1,0,11.026,10.963,10.963,0,0,1,10.9,0Z" stroke="none"/>
            <path d="M 10.89948081970215 1.000003814697266 C 5.440891265869141 1.000003814697266 1 5.497493743896484 1 11.02566432952881 C 1 16.55383491516113 5.440891265869141 21.05132484436035 10.89948081970215 21.05132484436035 C 16.35807037353516 21.05132484436035 20.7989616394043 16.55383491516113 20.7989616394043 11.02566432952881 C 20.7989616394043 5.497493743896484 16.35807037353516 1.000003814697266 10.89948081970215 1.000003814697266 M 10.89948081970215 3.814697265625e-06 C 16.91909027099609 3.814697265625e-06 21.7989616394043 4.93635368347168 21.7989616394043 11.02566432952881 C 21.7989616394043 17.11497497558594 16.91909027099609 22.05132484436035 10.89948081970215 22.05132484436035 C 4.879859924316406 22.05132484436035 0 17.11497497558594 0 11.02566432952881 C 0 4.93635368347168 4.879859924316406 3.814697265625e-06 10.89948081970215 3.814697265625e-06 Z" stroke="none" fill="rgba(255,255,255,0.22)"/>
          </g>
        </g>
        <g transform="matrix(1, 0, 0, 1, -236.49, -76.87)" filter="url(#ios-thumbs-up)">
          <path id="ios-thumbs-up-2" data-name="ios-thumbs-up" d="M13.771,12.073a1.039,1.039,0,0,0,.421-.8,1.128,1.128,0,0,0-.275-.742c-.015-.03-.028-.059-.041-.087l-.005-.028a.336.336,0,0,1,.051-.255,1.129,1.129,0,0,0,.146-.656.778.778,0,0,0-.245-.592.491.491,0,0,1-.1-.467.993.993,0,0,0-.207-.964c-.265-.3-.512-.337-1.17-.3-.454.028-1.4.176-2.022.275-.255.041-.477.077-.545.082-.32.033-.383,0-.414-.125a.835.835,0,0,1,.124-.332,5.533,5.533,0,0,0,.366-.913,3.238,3.238,0,0,0-.068-2.3.825.825,0,0,0-.663-.487,1,1,0,0,0-.7.2c-.086.1-.058.3-.156.684a7.477,7.477,0,0,1-.3,1.071A7.293,7.293,0,0,1,6.52,6.879c-.1.092-.192.171-.255.232a5.252,5.252,0,0,0-.643.834,4.475,4.475,0,0,1-.345.472.906.906,0,0,1-.562.278.2.2,0,0,0-.2.2v4.069a.21.21,0,0,0,.209.212,3.934,3.934,0,0,1,1.675.3,4.329,4.329,0,0,0,1.17.309A23.965,23.965,0,0,0,10.406,14a12.485,12.485,0,0,0,1.427-.1c.782-.092,1.619-.275,1.9-.944a.728.728,0,0,0-.013-.6.2.2,0,0,1-.02-.066.218.218,0,0,1,.073-.209Z" transform="translate(238.04 78.3)" fill="rgba(255,255,255,0.75)"/>
        </g>
      </g>
      <g id="人" transform="translate(93.81 4815.039)">
        <g id="组_368" data-name="组 368" transform="translate(0.056 185.821)">
          <g id="组_361" data-name="组 361">
            <g id="组_360" data-name="组 360">
              <g id="组_352" data-name="组 352">
                <g id="组_351" data-name="组 351">
                  <g id="组_350" data-name="组 350">
                    <path id="路径_2009" data-name="路径 2009" d="M1085.026,654.357l-3.246,12.143,10.551.974,2.218-11.56Z" transform="translate(-1081.779 -654.357)" fill="#ffd630"/>
                  </g>
                </g>
              </g>
              <g id="组_356" data-name="组 356" transform="translate(0.401 10.876)">
                <g id="组_355" data-name="组 355">
                  <g id="组_354" data-name="组 354">
                    <g id="组_353" data-name="组 353">
                      <path id="路径_2010" data-name="路径 2010" d="M1095.256,672.6a7.385,7.385,0,0,1-1.545-.053c-.951-.077-2.26-.224-3.7-.412l-3.687-.5a8.531,8.531,0,0,1-1.522-.266,7.416,7.416,0,0,1,1.545.058c.951.079,2.26.227,3.7.415l3.688.5A8.639,8.639,0,0,1,1095.256,672.6Z" transform="translate(-1084.799 -671.347)" fill="#263238"/>
                    </g>
                  </g>
                </g>
              </g>
              <g id="组_359" data-name="组 359" transform="translate(0 10.887)" opacity="0.6">
                <g id="组_358" data-name="组 358">
                  <g id="组_357" data-name="组 357">
                    <path id="路径_2011" data-name="路径 2011" d="M1085.013,672.621l10.551.974.171-.89-10.417-1.339-.294,1.135" transform="translate(-1085.013 -671.365)" fill="#fff"/>
                  </g>
                </g>
              </g>
            </g>
          </g>
          <g id="组_364" data-name="组 364" transform="translate(5.235 2.357)">
            <g id="组_363" data-name="组 363">
              <g id="组_362" data-name="组 362">
                <path id="路径_2012" data-name="路径 2012" d="M1090.119,667.285a91.14,91.14,0,0,1,2.247-9.245,91.163,91.163,0,0,1-2.247,9.245Z" transform="translate(-1090.112 -658.04)" fill="#263238"/>
              </g>
            </g>
          </g>
          <g id="组_367" data-name="组 367" transform="translate(1.366 6.186)">
            <g id="组_366" data-name="组 366">
              <g id="组_365" data-name="组 365">
                <path id="路径_2013" data-name="路径 2013" d="M1094.182,669.884a5.184,5.184,0,0,0,.025-2.257,4.515,4.515,0,0,0-1.155-2.113,4.3,4.3,0,0,0-2.626-1.22,4.451,4.451,0,0,0-2.825.65,4.934,4.934,0,0,0-1.643,1.766,6.4,6.4,0,0,0-.666,2.166c-.009,0-.014-.056-.015-.161a3.179,3.179,0,0,1,.024-.462,4.888,4.888,0,0,1,.5-1.626,4.955,4.955,0,0,1,1.675-1.877,4.6,4.6,0,0,1,2.972-.7,4.456,4.456,0,0,1,2.764,1.307,4.569,4.569,0,0,1,1.163,2.237,4.257,4.257,0,0,1,0,1.7,2.854,2.854,0,0,1-.13.444C1094.214,669.836,1094.19,669.886,1094.182,669.884Z" transform="translate(-1085.274 -664.021)" fill="#263238"/>
              </g>
            </g>
          </g>
        </g>
        <g id="组_395" data-name="组 395" transform="translate(36.099 182.217)">
          <g id="组_388" data-name="组 388">
            <g id="组_370" data-name="组 370">
              <g id="组_369" data-name="组 369">
                <path id="路径_2014" data-name="路径 2014" d="M1023,649.073l-.707,10.788s10.615,3.564,10.676,5.57l-20.739.152.419-16.855Z" transform="translate(-1012.227 -648.728)" fill="#ffd630"/>
              </g>
            </g>
            <g id="组_373" data-name="组 373" transform="translate(3.053 9.998)" opacity="0.6">
              <g id="组_372" data-name="组 372">
                <g id="组_371" data-name="组 371">
                  <path id="路径_2015" data-name="路径 2015" d="M1038.245,664.378a.856.856,0,0,0-.615.959.815.815,0,0,0,.935.625.9.9,0,0,0,.646-1.02.843.843,0,0,0-1.043-.54" transform="translate(-1037.617 -664.347)" fill="#fff"/>
                </g>
              </g>
            </g>
            <g id="组_375" data-name="组 375" transform="translate(0 15.156)" opacity="0.6">
              <g id="组_374" data-name="组 374">
                <path id="路径_2016" data-name="路径 2016" d="M1012.06,674.1l.042-1.7,20.03.56a1.448,1.448,0,0,1,.772,1.14Z" transform="translate(-1012.06 -672.404)" fill="#fff"/>
              </g>
            </g>
            <g id="组_378" data-name="组 378" transform="translate(8.479 10.932)">
              <g id="组_377" data-name="组 377">
                <g id="组_376" data-name="组 376">
                  <path id="路径_2017" data-name="路径 2017" d="M1030.484,665.911c-.006.1-.514.133-1.021.447s-.786.736-.878.693c-.092-.022.077-.63.7-1S1030.509,665.817,1030.484,665.911Z" transform="translate(-1028.561 -665.805)" fill="#263238"/>
                </g>
              </g>
            </g>
            <g id="组_381" data-name="组 381" transform="translate(11.134 11.968)">
              <g id="组_380" data-name="组 380">
                <g id="组_379" data-name="组 379">
                  <path id="路径_2018" data-name="路径 2018" d="M1026.584,667.469c.02.1-.424.26-.78.683s-.47.878-.57.87c-.1.013-.148-.589.306-1.106S1026.584,667.371,1026.584,667.469Z" transform="translate(-1025.168 -667.424)" fill="#263238"/>
                </g>
              </g>
            </g>
            <g id="组_384" data-name="组 384" transform="translate(13.595 12.939)">
              <g id="组_383" data-name="组 383">
                <g id="组_382" data-name="组 382">
                  <path id="路径_2019" data-name="路径 2019" d="M1022.092,670.685c-.093.019-.218-.5.058-1.049s.757-.762.8-.675c.055.086-.261.378-.481.835S1022.192,670.678,1022.092,670.685Z" transform="translate(-1021.981 -668.942)" fill="#263238"/>
                </g>
              </g>
            </g>
            <g id="组_387" data-name="组 387" transform="translate(8.136 8.161)">
              <g id="组_386" data-name="组 386">
                <g id="组_385" data-name="组 385">
                  <path id="路径_2020" data-name="路径 2020" d="M1030.885,661.876c-.046.092-.506-.063-1.079-.042s-1.025.19-1.074.1.389-.442,1.065-.458S1030.937,661.8,1030.885,661.876Z" transform="translate(-1028.727 -661.477)" fill="#263238"/>
                </g>
              </g>
            </g>
          </g>
          <g id="组_391" data-name="组 391" transform="translate(7.281 4.612)">
            <g id="组_390" data-name="组 390">
              <g id="组_389" data-name="组 389">
                <path id="路径_2021" data-name="路径 2021" d="M1031.687,657.7a1.918,1.918,0,0,1-1.038-.037,4.624,4.624,0,0,1-1.076-.371,4.776,4.776,0,0,1-.586-.338,1.288,1.288,0,0,1-.307-.257.451.451,0,0,1-.03-.546.554.554,0,0,1,.45-.22,1.337,1.337,0,0,1,.388.066,3.733,3.733,0,0,1,.639.244,3.675,3.675,0,0,1,.938.665c.467.465.62.853.585.871s-.271-.3-.749-.682a4.163,4.163,0,0,0-.91-.556,3.77,3.77,0,0,0-.59-.2c-.218-.065-.405-.072-.464.024-.022.037-.025.052.019.119a1.04,1.04,0,0,0,.225.188,5.338,5.338,0,0,0,.539.334,5.731,5.731,0,0,0,.992.42A7.112,7.112,0,0,1,1031.687,657.7Z" transform="translate(-1028.571 -655.933)" fill="#263238"/>
              </g>
            </g>
          </g>
          <g id="组_394" data-name="组 394" transform="translate(10.016 3.217)">
            <g id="组_393" data-name="组 393">
              <g id="组_392" data-name="组 392">
                <path id="路径_2022" data-name="路径 2022" d="M1026.768,657.06a1.683,1.683,0,0,1-.244-1.023,3.432,3.432,0,0,1,.459-1.775.861.861,0,0,1,.678-.51.486.486,0,0,1,.425.306,1.418,1.418,0,0,1,.095.389,2.356,2.356,0,0,1-.02.707,2.426,2.426,0,0,1-.476,1.071c-.422.531-.847.64-.855.606-.032-.053.326-.239.652-.752a2.429,2.429,0,0,0,.358-.977,2.2,2.2,0,0,0,0-.608c-.025-.223-.1-.406-.186-.385-.1-.005-.283.157-.374.333a3.5,3.5,0,0,0-.274.561,3.793,3.793,0,0,0-.232,1.042C1026.727,656.66,1026.824,657.046,1026.768,657.06Z" transform="translate(-1026.524 -653.753)" fill="#263238"/>
              </g>
            </g>
          </g>
        </g>
        <g id="组_447" data-name="组 447" transform="translate(0 88.598)">
          <g id="组_396" data-name="组 396">
            <path id="路径_2023" data-name="路径 2023" d="M1071.249,502.72l-31.6-.241-15.27,101.452,13.114,1.684L1054.3,522.2l5.03,83.715.013.249,14.183-.251Z" transform="translate(-1024.379 -502.48)" fill="#263238"/>
          </g>
          <g id="组_397" data-name="组 397" transform="translate(32.368 8.131)">
            <path id="路径_2024" data-name="路径 2024" d="M1035.731,515.512a6.4,6.4,0,0,0,.711.021l1.933,0,6.745-.055-.149-.147c-.005,2.006-.012,4.247-.018,6.626l.053-.122-1.19,1.105-3.5,3.259.213,0-4.713-4.171.043.1c-.028-1.977-.051-3.6-.067-4.788-.013-.547-.024-.99-.033-1.337a3.684,3.684,0,0,0-.028-.488,2.459,2.459,0,0,0-.028.437c-.008.339-.019.773-.032,1.308-.017,1.2-.04,2.857-.068,4.866v.058l.043.04,4.673,4.217.106.1.105-.1,3.507-3.25,1.19-1.106.053-.049v-.073c-.007-2.379-.013-4.62-.018-6.626v-.152l-.148,0-6.834.2-1.9.075A4.446,4.446,0,0,0,1035.731,515.512Z" transform="translate(-1035.602 -515.181)" fill="#455a64"/>
          </g>
          <g id="组_398" data-name="组 398" transform="translate(16.695 8.017)">
            <path id="路径_2025" data-name="路径 2025" d="M1061.573,515.009a5.384,5.384,0,0,0,.631.1l1.723.214,6.048.692-.128-.161c-.243,1.961-.52,4.194-.815,6.574l.06-.11-1.363,1.1-3.355,2.714.224.026-3.717-4.664.027.1c.208-1.957.38-3.574.506-4.754.052-.545.094-.987.128-1.335a3.773,3.773,0,0,0,.03-.491,2.457,2.457,0,0,0-.082.433c-.049.338-.113.768-.19,1.3-.162,1.2-.383,2.835-.651,4.818l-.008.054.035.044,3.671,4.7.1.126.125-.1,3.362-2.7,1.362-1.1.053-.042.008-.067c.28-2.383.543-4.617.775-6.579l.017-.148-.145-.013-6.152-.555-1.7-.136A3.722,3.722,0,0,0,1061.573,515.009Z" transform="translate(-1060.643 -515.004)" fill="#455a64"/>
          </g>
          <g id="组_399" data-name="组 399" transform="translate(27.247 18.516)">
            <path id="路径_2026" data-name="路径 2026" d="M1053.353,536.31a7.033,7.033,0,0,0-1.326-.9c-.845-.511-2.035-1.179-3.378-1.857s-2.588-1.238-3.5-1.613a7.063,7.063,0,0,0-1.506-.532,8.293,8.293,0,0,0,1.412.747c.885.429,2.108,1.02,3.447,1.7s2.541,1.309,3.412,1.765A8.29,8.29,0,0,0,1053.353,536.31Z" transform="translate(-1043.642 -531.405)" fill="#455a64"/>
          </g>
          <g id="组_400" data-name="组 400" transform="translate(31.126 20.485)">
            <path id="路径_2027" data-name="路径 2027" d="M1049.71,539.88a17.988,17.988,0,0,1-3.114-2.283,18.2,18.2,0,0,1-2.3-3.116,7.3,7.3,0,0,0,2.073,3.354A7.169,7.169,0,0,0,1049.71,539.88Z" transform="translate(-1044.284 -534.48)" fill="#455a64"/>
          </g>
          <g id="组_401" data-name="组 401" transform="translate(34.268 55.199)">
            <path id="路径_2028" data-name="路径 2028" d="M1041.386,588.71c-.058-.023-.291.729-.985,1.751a8.522,8.522,0,0,1-3.625,3.017,8.4,8.4,0,0,1-4.667.522c-1.208-.21-1.9-.565-1.927-.508a1.532,1.532,0,0,0,.472.273,6.865,6.865,0,0,0,1.411.466,8.069,8.069,0,0,0,4.839-.447,8.174,8.174,0,0,0,3.692-3.195,6.99,6.99,0,0,0,.654-1.347A1.572,1.572,0,0,0,1041.386,588.71Z" transform="translate(-1030.182 -588.709)" fill="#455a64"/>
          </g>
          <g id="组_402" data-name="组 402" transform="translate(34.584 54.327)">
            <path id="路径_2029" data-name="路径 2029" d="M1042.282,587.355a9.776,9.776,0,0,0-1.267.326,15.116,15.116,0,0,1-3.1.425c-2.451.092-4.431-.287-4.447-.176a4.434,4.434,0,0,0,1.282.314,16.161,16.161,0,0,0,3.178.2,11.594,11.594,0,0,0,3.146-.531A3.572,3.572,0,0,0,1042.282,587.355Z" transform="translate(-1033.472 -587.347)" fill="#455a64"/>
          </g>
          <g id="组_403" data-name="组 403" transform="translate(10.669 54.935)">
            <path id="路径_2030" data-name="路径 2030" d="M1079.828,588.3a16.589,16.589,0,0,1-9.231,3.478,4.617,4.617,0,0,0,1.484.049,12.558,12.558,0,0,0,6.656-2.508A4.653,4.653,0,0,0,1079.828,588.3Z" transform="translate(-1070.597 -588.296)" fill="#455a64"/>
          </g>
          <g id="组_404" data-name="组 404" transform="translate(11.408 54.338)">
            <path id="路径_2031" data-name="路径 2031" d="M1080.7,587.842c-.015-.1-1.3.061-2.873-.071s-2.819-.485-2.848-.391a8.592,8.592,0,0,0,5.721.462Z" transform="translate(-1074.976 -587.365)" fill="#455a64"/>
          </g>
          <g id="组_405" data-name="组 405" transform="translate(19.357 20.411)">
            <path id="路径_2032" data-name="路径 2032" d="M1065.435,534.372a29.972,29.972,0,0,1-10.377,1.68,5.612,5.612,0,0,0,1.55.184,19.3,19.3,0,0,0,7.41-1.2A5.655,5.655,0,0,0,1065.435,534.372Z" transform="translate(-1055.058 -534.364)" fill="#455a64"/>
          </g>
          <g id="组_412" data-name="组 412" transform="translate(28.709 4.203)">
            <g id="组_406" data-name="组 406" transform="translate(0.004 12.783)">
              <path id="路径_2033" data-name="路径 2033" d="M1056.307,529.015c-.091,0-.161.288-.157.642s.082.64.173.638.161-.289.157-.643S1056.4,529.014,1056.307,529.015Z" transform="translate(-1056.15 -529.015)" fill="#455a64"/>
            </g>
            <g id="组_407" data-name="组 407" transform="translate(0 10.222)">
              <path id="路径_2034" data-name="路径 2034" d="M1056.328,525.014c-.091,0-.167.285-.171.639s.068.641.159.641.168-.286.171-.638S1056.419,525.016,1056.328,525.014Z" transform="translate(-1056.157 -525.014)" fill="#455a64"/>
            </g>
            <g id="组_408" data-name="组 408" transform="translate(0.051 7.662)">
              <path id="路径_2035" data-name="路径 2035" d="M1056.259,521.015c-.091,0-.173.281-.185.635s.054.643.145.645.173-.282.185-.635S1056.35,521.019,1056.259,521.015Z" transform="translate(-1056.073 -521.015)" fill="#455a64"/>
            </g>
            <g id="组_409" data-name="组 409" transform="translate(0.157 5.104)">
              <path id="路径_2036" data-name="路径 2036" d="M1056.1,517.019c-.091-.005-.18.277-.2.631s.039.644.13.648.179-.278.2-.631S1056.193,517.024,1056.1,517.019Z" transform="translate(-1055.9 -517.019)" fill="#455a64"/>
            </g>
            <g id="组_410" data-name="组 410" transform="translate(0.317 2.55)">
              <path id="路径_2037" data-name="路径 2037" d="M1055.856,513.029c-.091-.008-.186.273-.213.626s.026.645.116.65.186-.273.213-.625S1055.947,513.036,1055.856,513.029Z" transform="translate(-1055.637 -513.029)" fill="#455a64"/>
            </g>
            <g id="组_411" data-name="组 411" transform="translate(0.532)">
              <path id="路径_2038" data-name="路径 2038" d="M1055.521,509.046c-.09-.01-.192.268-.226.621s.012.645.1.654.192-.27.226-.621S1055.611,509.055,1055.521,509.046Z" transform="translate(-1055.283 -509.046)" fill="#455a64"/>
            </g>
          </g>
          <g id="组_446" data-name="组 446" transform="translate(11.329 20.739)">
            <g id="组_413" data-name="组 413" transform="translate(0 80.017)">
              <path id="路径_2039" data-name="路径 2039" d="M1083.828,659.877c-.089-.018-.217.248-.286.595s-.051.643.038.661.217-.248.285-.6S1083.917,659.9,1083.828,659.877Z" transform="translate(-1083.5 -659.876)" fill="#455a64"/>
            </g>
            <g id="组_414" data-name="组 414" transform="translate(0.496 77.506)">
              <path id="路径_2040" data-name="路径 2040" d="M1083.043,655.956c-.089-.019-.217.248-.286.595s-.052.643.037.661.217-.248.286-.6S1083.132,655.973,1083.043,655.956Z" transform="translate(-1082.714 -655.955)" fill="#455a64"/>
            </g>
            <g id="组_415" data-name="组 415" transform="translate(0.993 74.995)">
              <path id="路径_2041" data-name="路径 2041" d="M1082.258,652.032c-.089-.018-.217.248-.285.6s-.052.642.037.66.217-.248.285-.595S1082.347,652.051,1082.258,652.032Z" transform="translate(-1081.93 -652.032)" fill="#455a64"/>
            </g>
            <g id="组_416" data-name="组 416" transform="translate(1.489 72.484)">
              <path id="路径_2042" data-name="路径 2042" d="M1081.474,648.111c-.089-.018-.217.248-.286.595s-.052.643.038.661.217-.248.285-.595S1081.563,648.128,1081.474,648.111Z" transform="translate(-1081.145 -648.11)" fill="#455a64"/>
            </g>
            <g id="组_417" data-name="组 417" transform="translate(1.986 69.974)">
              <path id="路径_2043" data-name="路径 2043" d="M1080.689,644.188c-.09-.018-.218.248-.286.595s-.052.643.037.661.217-.248.286-.6S1080.777,644.206,1080.689,644.188Z" transform="translate(-1080.361 -644.188)" fill="#455a64"/>
            </g>
            <g id="组_418" data-name="组 418" transform="translate(2.483 67.462)">
              <path id="路径_2044" data-name="路径 2044" d="M1079.9,640.266c-.089-.018-.217.248-.285.6s-.052.642.037.661.217-.248.285-.6S1079.993,640.284,1079.9,640.266Z" transform="translate(-1079.576 -640.265)" fill="#455a64"/>
            </g>
            <g id="组_419" data-name="组 419" transform="translate(2.979 64.952)">
              <path id="路径_2045" data-name="路径 2045" d="M1079.12,636.343c-.089-.018-.217.248-.286.6s-.052.642.037.66.217-.248.286-.595S1079.209,636.361,1079.12,636.343Z" transform="translate(-1078.792 -636.343)" fill="#455a64"/>
            </g>
            <g id="组_420" data-name="组 420" transform="translate(3.476 62.441)">
              <path id="路径_2046" data-name="路径 2046" d="M1078.334,632.421c-.089-.018-.217.248-.286.595s-.052.643.037.661.217-.248.286-.6S1078.423,632.439,1078.334,632.421Z" transform="translate(-1078.007 -632.421)" fill="#455a64"/>
            </g>
            <g id="组_421" data-name="组 421" transform="translate(3.972 59.93)">
              <path id="路径_2047" data-name="路径 2047" d="M1077.55,628.5c-.089-.018-.217.248-.285.595s-.052.643.037.661.217-.248.286-.6S1077.639,628.517,1077.55,628.5Z" transform="translate(-1077.222 -628.498)" fill="#455a64"/>
            </g>
            <g id="组_422" data-name="组 422" transform="translate(4.469 57.419)">
              <path id="路径_2048" data-name="路径 2048" d="M1076.766,624.577c-.089-.018-.218.248-.286.6s-.052.642.037.66.217-.248.286-.595S1076.855,624.6,1076.766,624.577Z" transform="translate(-1076.438 -624.576)" fill="#455a64"/>
            </g>
            <g id="组_423" data-name="组 423" transform="translate(4.965 54.909)">
              <path id="路径_2049" data-name="路径 2049" d="M1075.981,620.654c-.089-.018-.217.248-.285.595s-.052.643.037.661.217-.248.286-.595S1076.07,620.672,1075.981,620.654Z" transform="translate(-1075.653 -620.654)" fill="#455a64"/>
            </g>
            <g id="组_424" data-name="组 424" transform="translate(5.462 52.398)">
              <path id="路径_2050" data-name="路径 2050" d="M1075.2,616.732c-.089-.018-.217.248-.286.595s-.051.643.038.661.217-.248.285-.6S1075.286,616.75,1075.2,616.732Z" transform="translate(-1074.869 -616.732)" fill="#455a64"/>
            </g>
            <g id="组_425" data-name="组 425" transform="translate(5.958 49.887)">
              <path id="路径_2051" data-name="路径 2051" d="M1074.411,612.809c-.089-.018-.217.248-.286.6s-.052.642.037.661.217-.248.286-.6S1074.5,612.828,1074.411,612.809Z" transform="translate(-1074.083 -612.809)" fill="#455a64"/>
            </g>
            <g id="组_426" data-name="组 426" transform="translate(6.455 47.376)">
              <path id="路径_2052" data-name="路径 2052" d="M1073.627,608.888c-.089-.018-.217.248-.286.6s-.052.642.037.66.217-.248.286-.595S1073.716,608.905,1073.627,608.888Z" transform="translate(-1073.299 -608.887)" fill="#455a64"/>
            </g>
            <g id="组_427" data-name="组 427" transform="translate(6.951 44.865)">
              <path id="路径_2053" data-name="路径 2053" d="M1072.843,604.966c-.089-.018-.217.248-.286.595s-.051.643.038.661.217-.248.285-.6S1072.932,604.984,1072.843,604.966Z" transform="translate(-1072.515 -604.965)" fill="#455a64"/>
            </g>
            <g id="组_428" data-name="组 428" transform="translate(7.448 42.355)">
              <path id="路径_2054" data-name="路径 2054" d="M1072.058,601.044c-.09-.019-.218.248-.286.595s-.052.642.037.661.217-.248.286-.6S1072.147,601.061,1072.058,601.044Z" transform="translate(-1071.73 -601.043)" fill="#455a64"/>
            </g>
            <g id="组_429" data-name="组 429" transform="translate(7.944 39.843)">
              <path id="路径_2055" data-name="路径 2055" d="M1071.273,597.121c-.089-.018-.217.248-.285.6s-.052.642.037.66.217-.248.286-.595S1071.362,597.139,1071.273,597.121Z" transform="translate(-1070.945 -597.12)" fill="#455a64"/>
            </g>
            <g id="组_430" data-name="组 430" transform="translate(8.441 37.333)">
              <path id="路径_2056" data-name="路径 2056" d="M1070.489,593.2c-.089-.018-.217.248-.286.595s-.052.643.037.661.218-.248.286-.595S1070.578,593.216,1070.489,593.2Z" transform="translate(-1070.161 -593.198)" fill="#455a64"/>
            </g>
            <g id="组_431" data-name="组 431" transform="translate(8.938 34.822)">
              <path id="路径_2057" data-name="路径 2057" d="M1069.7,589.276c-.089-.018-.217.248-.285.595s-.052.643.037.661.217-.248.286-.6S1069.793,589.294,1069.7,589.276Z" transform="translate(-1069.376 -589.276)" fill="#455a64"/>
            </g>
            <g id="组_432" data-name="组 432" transform="translate(9.434 32.311)">
              <path id="路径_2058" data-name="路径 2058" d="M1068.919,585.354c-.089-.018-.217.248-.285.6s-.052.642.037.661.217-.248.285-.6S1069.008,585.372,1068.919,585.354Z" transform="translate(-1068.591 -585.353)" fill="#455a64"/>
            </g>
            <g id="组_433" data-name="组 433" transform="translate(9.931 29.8)">
              <path id="路径_2059" data-name="路径 2059" d="M1068.134,581.432c-.089-.018-.217.248-.286.6s-.052.642.037.66.218-.248.286-.595S1068.224,581.449,1068.134,581.432Z" transform="translate(-1067.806 -581.431)" fill="#455a64"/>
            </g>
            <g id="组_434" data-name="组 434" transform="translate(10.427 27.29)">
              <path id="路径_2060" data-name="路径 2060" d="M1067.349,577.509c-.089-.018-.217.248-.286.595s-.052.643.037.661.217-.248.286-.6S1067.439,577.527,1067.349,577.509Z" transform="translate(-1067.022 -577.509)" fill="#455a64"/>
            </g>
            <g id="组_435" data-name="组 435" transform="translate(10.924 24.779)">
              <path id="路径_2061" data-name="路径 2061" d="M1066.565,573.587c-.089-.019-.217.248-.286.595s-.051.642.038.661.217-.248.286-.6S1066.655,573.605,1066.565,573.587Z" transform="translate(-1066.238 -573.586)" fill="#455a64"/>
            </g>
            <g id="组_436" data-name="组 436" transform="translate(11.42 22.268)">
              <path id="路径_2062" data-name="路径 2062" d="M1065.78,569.665c-.089-.018-.218.248-.286.6s-.052.642.037.66.217-.248.286-.595S1065.87,569.682,1065.78,569.665Z" transform="translate(-1065.452 -569.664)" fill="#455a64"/>
            </g>
            <g id="组_437" data-name="组 437" transform="translate(11.917 19.757)">
              <path id="路径_2063" data-name="路径 2063" d="M1065,565.742c-.089-.018-.217.248-.285.595s-.052.643.037.661.217-.248.286-.595S1065.085,565.76,1065,565.742Z" transform="translate(-1064.668 -565.741)" fill="#455a64"/>
            </g>
            <g id="组_438" data-name="组 438" transform="translate(12.413 17.246)">
              <path id="路径_2064" data-name="路径 2064" d="M1064.211,561.82c-.089-.018-.217.248-.286.595s-.051.643.038.661.217-.248.286-.6S1064.3,561.838,1064.211,561.82Z" transform="translate(-1063.884 -561.819)" fill="#455a64"/>
            </g>
            <g id="组_439" data-name="组 439" transform="translate(12.91 14.735)">
              <path id="路径_2065" data-name="路径 2065" d="M1063.427,557.9c-.089-.018-.218.248-.286.6s-.052.642.037.661.217-.248.286-.6S1063.516,557.916,1063.427,557.9Z" transform="translate(-1063.099 -557.897)" fill="#455a64"/>
            </g>
            <g id="组_440" data-name="组 440" transform="translate(13.406 12.225)">
              <path id="路径_2066" data-name="路径 2066" d="M1062.642,553.975c-.089-.018-.217.248-.285.6s-.052.642.037.66.217-.248.286-.595S1062.731,553.993,1062.642,553.975Z" transform="translate(-1062.314 -553.975)" fill="#455a64"/>
            </g>
            <g id="组_441" data-name="组 441" transform="translate(13.903 9.714)">
              <path id="路径_2067" data-name="路径 2067" d="M1061.857,550.054c-.089-.018-.217.248-.286.595s-.052.643.038.661.217-.248.286-.6S1061.946,550.071,1061.857,550.054Z" transform="translate(-1061.529 -550.053)" fill="#455a64"/>
            </g>
            <g id="组_442" data-name="组 442" transform="translate(14.399 7.203)">
              <path id="路径_2068" data-name="路径 2068" d="M1061.072,546.131c-.089-.019-.217.248-.285.595s-.052.643.037.661.217-.248.286-.6S1061.161,546.149,1061.072,546.131Z" transform="translate(-1060.745 -546.131)" fill="#455a64"/>
            </g>
            <g id="组_443" data-name="组 443" transform="translate(14.896 4.692)">
              <path id="路径_2069" data-name="路径 2069" d="M1060.288,542.208c-.089-.018-.217.248-.285.6s-.052.642.037.66.217-.248.286-.595S1060.377,542.226,1060.288,542.208Z" transform="translate(-1059.96 -542.208)" fill="#455a64"/>
            </g>
            <g id="组_444" data-name="组 444" transform="translate(15.392 2.181)">
              <path id="路径_2070" data-name="路径 2070" d="M1059.5,538.286c-.089-.018-.217.248-.286.595s-.052.643.038.661.218-.248.286-.595S1059.593,538.3,1059.5,538.286Z" transform="translate(-1059.176 -538.286)" fill="#455a64"/>
            </g>
            <g id="组_445" data-name="组 445" transform="translate(15.874)">
              <path id="路径_2071" data-name="路径 2071" d="M1058.748,534.879c-.089-.018-.2.174-.253.43s-.019.477.07.5.2-.175.253-.43S1058.837,534.9,1058.748,534.879Z" transform="translate(-1058.471 -534.878)" fill="#455a64"/>
            </g>
          </g>
        </g>
        <g id="组_454" data-name="组 454" transform="translate(66.819 30.878)">
          <g id="组_448" data-name="组 448" transform="translate(4.054)">
            <path id="路径_2072" data-name="路径 2072" d="M972.111,423.656s3.7-5.608,3.8-5.656h0s3.337-5.686,4.447-5.687.71,1.152-.437,3.189a8.171,8.171,0,0,0-1.106,2.9l2.741,1.675s1.831-.717,1.907,1.01a12.181,12.181,0,0,1-.315,2.345c-.111.615-.387,1.27-.96,1.038a.726.726,0,0,1-.491-.693c-.035-1.022.154-1.4.025-1.4-.164,0-1.973,5.358-1.973,5.358Z" transform="translate(-972.111 -412.313)" fill="#ffbe9d"/>
            <path id="路径_2073" data-name="路径 2073" d="M974.151,422.759a5.346,5.346,0,0,1,.88-.53,1.774,1.774,0,0,1,1-.157.89.89,0,0,1,.556.3.927.927,0,0,1,.105.851,2.694,2.694,0,0,1-.449.764" transform="translate(-966.685 -415.818)" fill="#ffbe9d"/>
            <path id="路径_2074" data-name="路径 2074" d="M976.343,421.015a5.094,5.094,0,0,1,.833-.5,1.69,1.69,0,0,1,.945-.148.845.845,0,0,1,.527.282.868.868,0,0,1,.1.8,7.153,7.153,0,0,1-.852,1.109" transform="translate(-970.128 -415.205)" fill="#ffbe9d"/>
          </g>
          <path id="路径_2075" data-name="路径 2075" d="M981.245,425.088,975.9,436.647l5.89,6.09,3.069-8.615s1.645.332,2.316-.772a29.065,29.065,0,0,0,1.731-4.792Z" transform="translate(-975.902 -416.91)" fill="#ffbe9d"/>
          <g id="组_449" data-name="组 449" transform="translate(9.143 5.26)">
            <path id="路径_2076" data-name="路径 2076" d="M978.79,423.129c.1.042.373-.682.881-1.413s1.2-1.077,1.145-1.173a2.113,2.113,0,0,0-1.411.976A2.766,2.766,0,0,0,978.79,423.129Z" transform="translate(-978.773 -420.531)" fill="#eb996e"/>
          </g>
          <g id="组_450" data-name="组 450" transform="translate(12.17 7.485)">
            <path id="路径_2077" data-name="路径 2077" d="M975.527,424.429c.024-.031-.123-.209-.463-.331a1.7,1.7,0,0,0-1.371.12,2.337,2.337,0,0,0-.9,1.029c-.15.31-.206.514-.167.536s.171-.145.366-.413a2.911,2.911,0,0,1,.865-.86,1.805,1.805,0,0,1,1.154-.184C975.314,424.375,975.5,424.471,975.527,424.429Z" transform="translate(-972.609 -424.006)" fill="#eb996e"/>
          </g>
          <g id="组_451" data-name="组 451" transform="translate(10.854 6.233)">
            <path id="路径_2078" data-name="路径 2078" d="M978,422.094a1.617,1.617,0,0,0-1.459.511,1.947,1.947,0,0,0-.769,1.356c.092.046.393-.575.986-1.1S978.016,422.193,978,422.094Z" transform="translate(-975.757 -422.05)" fill="#eb996e"/>
          </g>
          <g id="组_452" data-name="组 452" transform="translate(13.601 8.772)">
            <path id="路径_2079" data-name="路径 2079" d="M974.307,426.018c-.092.015-.11.364-.328.7s-.508.512-.482.6c.009.092.479.031.761-.426S974.393,425.985,974.307,426.018Z" transform="translate(-973.496 -426.016)" fill="#eb996e"/>
          </g>
          <path id="路径_2080" data-name="路径 2080" d="M984,427.113s-.186-3.45.638-4.231,3.186.031,3.186.031" transform="translate(-979.937 -415.994)" fill="#ffbe9d"/>
          <g id="组_453" data-name="组 453" transform="translate(5.539 5.271)">
            <path id="路径_2081" data-name="路径 2081" d="M986.134,420.549a16.171,16.171,0,0,0-2.679,3.761,16.179,16.179,0,0,0,2.679-3.761Z" transform="translate(-983.448 -420.546)" fill="#eb996e"/>
          </g>
        </g>
        <g id="组_455" data-name="组 455" transform="translate(6.077 27.906)">
          <path id="路径_2082" data-name="路径 2082" d="M1081.687,419.058c.082-.462.193-1,.352-1.63a4.93,4.93,0,0,1,.675-1.513,7.446,7.446,0,0,1,1.308-1.592.644.644,0,0,0-.279-1.182c-.572,0-1.993,1.014-2.97,2.813s-1.551-1.378-1.781-2.532-1.106-4.692-1.513-4.9c-.6-.307-1.031.282-.776,1.43s.784,4.642.176,4.736-1.689-5.8-1.689-5.8-.032-1.3-.739-1.213c-1.274.152.341,6.328.509,6.913.116.406-.541.531-.643.088s-.952-5.9-2.252-5.761c-1,.109,1.281,5.094.836,6.322s-1.348-3.957-2.3-3.814c-.353.054-.609.143.335,3.046.458,1.409,2.234,8.006,2.234,8.006l-1.019,5.407,8.118,2.079Z" transform="translate(-1070.287 -407.669)" fill="#ffbe9d"/>
        </g>
        <g id="组_469" data-name="组 469" transform="translate(22.581 0)">
          <g id="组_459" data-name="组 459" transform="translate(1.27 2.925)">
            <g id="组_458" data-name="组 458">
              <g id="组_456" data-name="组 456" transform="translate(3.81 3.762)">
                <path id="路径_2083" data-name="路径 2083" d="M1030.972,377.836l-.082,26.917,11.416.551.33-6.547s4.055.815,5.1-2.995c.668-2.434.5-21.239.5-21.239Z" transform="translate(-1030.891 -374.523)" fill="#ffbe9d"/>
              </g>
              <g id="组_457" data-name="组 457">
                <path id="路径_2084" data-name="路径 2084" d="M1048.727,374.3c-1.8.52-2.189,3.493-2.189,3.493l-2.82,6.3c-1.437-1.138-3.366-1.073-3.731,1.481-.264,1.846,2,2.219,2,2.219a33.509,33.509,0,0,1-4.139,6.275c-2.082,2.34-3.247,2.576-5.5,2.614h-2.489s-1.218-4-3.474-14c-2.5-11.1,10.47-9.669,12.876-12.5C1043.178,365.568,1054.4,372.662,1048.727,374.3Z" transform="translate(-1026.066 -368.646)" fill="#263238"/>
              </g>
            </g>
          </g>
          <path id="路径_2085" data-name="路径 2085" d="M1025.343,382.086c-2.1-1.429-2.293-5.427-1.066-7.825a7.609,7.609,0,0,1,6.477-4.074,3.051,3.051,0,0,0,1.058-.12,2.94,2.94,0,0,0,1.136-1.091c1.879-2.472,3.727-4.9,7.229-4.9a3.948,3.948,0,0,1,2.2.552,3.5,3.5,0,0,1,1.323,1.771,7.425,7.425,0,0,1,2.049-.745,2.509,2.509,0,0,1,2.055.507,1.577,1.577,0,0,1,.323,1.992,2.5,2.5,0,0,1,2.486,2.1c.186,1.182-1.488,2.012-1.662,2.1a2.353,2.353,0,0,1-1.273,3.112,2.6,2.6,0,0,1-2.159-.164" transform="translate(-1023.516 -364.076)" fill="#263238"/>
          <g id="组_460" data-name="组 460" transform="translate(9.276 20.598)">
            <path id="路径_2086" data-name="路径 2086" d="M1051.023,396.253c-.1,0-.124.9-.367,1.975s-.591,1.9-.5,1.943a5.23,5.23,0,0,0,.872-3.918Z" transform="translate(-1050.138 -396.253)" fill="#455a64"/>
          </g>
          <g id="组_461" data-name="组 461" transform="translate(10.811 19.277)">
            <path id="路径_2087" data-name="路径 2087" d="M1048.749,394.189a33.812,33.812,0,0,0-.709,3.842,7.121,7.121,0,0,0,.709-3.842Z" transform="translate(-1048.018 -394.189)" fill="#455a64"/>
          </g>
          <g id="组_462" data-name="组 462" transform="translate(12.573 14.83)">
            <path id="路径_2088" data-name="路径 2088" d="M1044.794,387.247c-.02-.033-.4.145-.868.613a6.216,6.216,0,0,0-1.358,2.186,11.68,11.68,0,0,0-.608,2.492,3.259,3.259,0,0,0-.068,1.059,3.621,3.621,0,0,0,.3-1.015,19,19,0,0,1,.687-2.417,7.532,7.532,0,0,1,1.222-2.146C1044.5,387.533,1044.824,387.29,1044.794,387.247Z" transform="translate(-1041.871 -387.243)" fill="#455a64"/>
          </g>
          <g id="组_463" data-name="组 463" transform="translate(15.907 11.809)">
            <path id="路径_2089" data-name="路径 2089" d="M1040.085,382.524a11.706,11.706,0,0,1-.178,2.49,11.536,11.536,0,0,1-1,2.28,3.594,3.594,0,0,0,1.324-2.2A3.633,3.633,0,0,0,1040.085,382.524Z" transform="translate(-1038.896 -382.523)" fill="#455a64"/>
          </g>
          <g id="组_464" data-name="组 464" transform="translate(2.045 17.704)">
            <path id="路径_2090" data-name="路径 2090" d="M1062.3,392.561c.045-.081-.238-.325-.63-.547s-.746-.337-.79-.256.237.325.63.547S1062.253,392.641,1062.3,392.561Z" transform="translate(-1060.872 -391.733)" fill="#455a64"/>
          </g>
          <g id="组_465" data-name="组 465" transform="translate(7.779 15.658)">
            <path id="路径_2091" data-name="路径 2091" d="M1053.308,388.537c-.092-.021-.266.472-.591,1.01s-.67.925-.608,1,.537-.231.89-.826S1053.394,388.55,1053.308,388.537Z" transform="translate(-1052.102 -388.536)" fill="#455a64"/>
          </g>
          <g id="组_466" data-name="组 466" transform="translate(9.091 14.736)">
            <path id="路径_2092" data-name="路径 2092" d="M1051.033,387.1c-.092-.028-.333.574-.766,1.227s-.88,1.116-.82,1.19.634-.3,1.094-1.006A2.183,2.183,0,0,0,1051.033,387.1Z" transform="translate(-1049.442 -387.097)" fill="#455a64"/>
          </g>
          <g id="组_467" data-name="组 467" transform="translate(3.893 2.332)">
            <path id="路径_2093" data-name="路径 2093" d="M1051.379,368.851c.008-.008-.036-.06-.127-.151a2.909,2.909,0,0,0-.437-.355,4.018,4.018,0,0,0-1.965-.617,5.176,5.176,0,0,0-2.964.737,7.117,7.117,0,0,0-2.515,2.792,11.956,11.956,0,0,0-.984,2.6l.227-.1a5.763,5.763,0,0,0-2.684-.651,5.859,5.859,0,0,0-2.139.4,5.2,5.2,0,0,0-1.251.686,1.577,1.577,0,0,0-.378.348,9.574,9.574,0,0,1,1.7-.845,5.879,5.879,0,0,1,4.607.348l.175.093.053-.193a12.211,12.211,0,0,1,.969-2.519,7,7,0,0,1,2.383-2.687,5.08,5.08,0,0,1,2.8-.764,4.2,4.2,0,0,1,1.909.493C1051.162,368.691,1051.357,368.876,1051.379,368.851Z" transform="translate(-1036.161 -367.718)" fill="#455a64"/>
          </g>
          <g id="组_468" data-name="组 468" transform="translate(11.447 4.529)">
            <path id="路径_2094" data-name="路径 2094" d="M1038.868,371.551a1.041,1.041,0,0,1,.561.376,1.054,1.054,0,0,1,.185.746,1.136,1.136,0,0,1-.6.789,1.651,1.651,0,0,1-1.221.132,3.838,3.838,0,0,1-1.323-.684,13.3,13.3,0,0,0-1.419-1,5.962,5.962,0,0,0-1.775-.639,7.151,7.151,0,0,0-3.587.272,9.092,9.092,0,0,0-2.585,1.4,10.861,10.861,0,0,0-1.456,1.343,2.625,2.625,0,0,0-.446.575c.045.045.706-.762,2.04-1.727a9.416,9.416,0,0,1,2.541-1.3,7.044,7.044,0,0,1,3.433-.236,5.751,5.751,0,0,1,1.681.6,14,14,0,0,1,1.4.968,4,4,0,0,0,1.438.7,1.879,1.879,0,0,0,1.4-.2,1.321,1.321,0,0,0,.668-.97,1.167,1.167,0,0,0-.268-.849C1039.187,371.458,1038.847,371.543,1038.868,371.551Z" transform="translate(-1025.2 -371.151)" fill="#455a64"/>
          </g>
        </g>
        <g id="组_479" data-name="组 479" transform="translate(1.651 34.264)">
          <path id="路径_2095" data-name="路径 2095" d="M1090.15,423.8,1076.2,449.034a7.224,7.224,0,0,0,1.076,6.706l-.288-.419a5.931,5.931,0,0,0,4.632,2.237h.264a5.954,5.954,0,0,0,5.461-3.621l3.276-5.028Z" transform="translate(-1075.662 -419.833)" fill="#a58fff"/>
          <path id="路径_2096" data-name="路径 2096" d="M1055.116,419.765a18.546,18.546,0,0,0-8.388-1.821c-3.434-.1-8.273-.587-11.974-.189,0,0-11.275-.349-11.326,8.49l1.491,33.933-2.413,14.543,33.785,1.033-.243-17.158c.417-8.927-.473-21.569-.473-21.569.52-4.8,3.116-6.96,3.484-10.08A7.7,7.7,0,0,0,1055.116,419.765Z" transform="translate(-1010.414 -417.601)" fill="#a58fff"/>
          <g id="组_470" data-name="组 470" transform="translate(19.185 43.068)">
            <path id="路径_2097" data-name="路径 2097" d="M1059.837,484.883c-.039-.05-.767.613-2.143,1.35a12.641,12.641,0,0,1-11.663.209c-1.4-.688-2.152-1.324-2.188-1.273a2.457,2.457,0,0,0,.509.464,10.689,10.689,0,0,0,1.575,1.019,12.156,12.156,0,0,0,11.88-.213,10.748,10.748,0,0,0,1.538-1.075A2.476,2.476,0,0,0,1059.837,484.883Z" transform="translate(-1043.843 -484.881)" fill="#263238"/>
          </g>
          <g id="组_471" data-name="组 471" transform="translate(12.99 8.644)">
            <path id="路径_2098" data-name="路径 2098" d="M1076.546,431.105a1.3,1.3,0,0,0-.023.336c0,.257,0,.575,0,.961.016.884.038,2.079.064,3.533.072,2.983.2,7.1.391,11.651s.408,8.666.612,11.644c.1,1.488.194,2.692.276,3.523.039.384.072.7.1.956a1.3,1.3,0,0,0,.057.332,1.277,1.277,0,0,0,.009-.337c-.009-.257-.022-.575-.037-.96-.042-.882-.1-2.075-.171-3.528-.134-3.025-.315-7.118-.516-11.644s-.361-8.619-.487-11.644c-.07-1.453-.127-2.646-.169-3.529-.025-.385-.045-.7-.061-.959A1.316,1.316,0,0,0,1076.546,431.105Z" transform="translate(-1076.522 -431.105)" fill="#263238"/>
          </g>
          <path id="路径_2099" data-name="路径 2099" d="M1088.8,435.683s-1.278,3.8-1.5,4.31a123.112,123.112,0,0,0-4.183,15.456l10.086-18.427C1093.285,437.034,1088.935,435.721,1088.8,435.683Z" transform="translate(-1082.87 -424.108)" fill="#a58fff"/>
          <g id="组_472" data-name="组 472" transform="translate(0 10.461)">
            <path id="路径_2100" data-name="路径 2100" d="M1093.11,433.944a7.4,7.4,0,0,0-.6.946l-1.58,2.614c-1.329,2.21-3.284,5.19-5.242,8.618-.98,1.718-1.8,3.41-2.507,4.973a9.2,9.2,0,0,0-.94,4.463,6.772,6.772,0,0,0,.9,2.945,4.914,4.914,0,0,0,.484.683c.128.141.2.212.208.2.027-.021-.248-.317-.579-.951a7.029,7.029,0,0,1-.775-2.9,9.152,9.152,0,0,1,.985-4.323c.716-1.541,1.542-3.228,2.515-4.933,1.949-3.413,3.875-6.417,5.155-8.662.648-1.117,1.154-2.033,1.493-2.671A7.253,7.253,0,0,0,1093.11,433.944Z" transform="translate(-1082.212 -433.944)" fill="#263238"/>
          </g>
          <g id="组_476" data-name="组 476" transform="translate(38.737 1.128)">
            <path id="路径_2101" data-name="路径 2101" d="M1016.007,438.121l-7.818-5.173-4.934,8.646s-6.841-9.619-9.948-15.253c-2.86-5.187-6.56-6.583-8.346-6.96a.8.8,0,0,0-.947.875l2.7,18.7c.34.974,5.982,9.249,9.136,13.413,5.263,6.949,13.018,2.5,15.147-2.362C1012.684,446.149,1015.315,440.283,1016.007,438.121Z" transform="translate(-981.701 -419.364)" fill="#a58fff"/>
            <g id="组_473" data-name="组 473" transform="translate(21.629 22.047)">
              <path id="路径_2102" data-name="路径 2102" d="M1002.672,461.792a4.483,4.483,0,0,0,.069-1.245,15.6,15.6,0,0,0-.294-3,8.225,8.225,0,0,0-1.114-2.81,2.742,2.742,0,0,0-.831-.931c-.039.036.268.395.631,1.054a9.924,9.924,0,0,1,.991,2.757,24.867,24.867,0,0,1,.383,2.941A4.946,4.946,0,0,0,1002.672,461.792Z" transform="translate(-1000.499 -453.804)" fill="#a58fff"/>
            </g>
            <g id="组_474" data-name="组 474" transform="translate(21.49 21.662)">
              <path id="路径_2103" data-name="路径 2103" d="M1001.535,457.711a2.125,2.125,0,0,0-.067-1.073,5,5,0,0,0-1.238-2.277,3.2,3.2,0,0,0-2.3-1.155c-.7.027-1.026.377-.994.4a2.585,2.585,0,0,1,3.056.988,5.649,5.649,0,0,1,1.251,2.111A9.81,9.81,0,0,0,1001.535,457.711Z" transform="translate(-996.935 -453.203)" fill="#a58fff"/>
            </g>
            <g id="组_475" data-name="组 475" transform="translate(0 2.326)">
              <path id="路径_2104" data-name="路径 2104" d="M1025.239,423a.971.971,0,0,0-.23.173,4.619,4.619,0,0,0-.59.582,7.42,7.42,0,0,0-1.47,2.671,10.467,10.467,0,0,0-.37,4.519,9.957,9.957,0,0,0,.675,2.609,26.585,26.585,0,0,0,1.273,2.574,99.316,99.316,0,0,0,5.4,8.438c.742,1.044,1.357,1.878,1.8,2.442.218.284.4.5.518.642s.191.216.2.209a8.2,8.2,0,0,0-.615-.928l-1.711-2.5c-1.422-2.125-3.39-5.067-5.3-8.465a27.639,27.639,0,0,1-1.263-2.538,9.865,9.865,0,0,1-.672-2.524,10.516,10.516,0,0,1,.292-4.408,7.792,7.792,0,0,1,1.346-2.659,6.4,6.4,0,0,1,.536-.616C1025.182,423.084,1025.246,423.007,1025.239,423Z" transform="translate(-1022.487 -422.998)" fill="#a58fff"/>
            </g>
          </g>
          <g id="组_477" data-name="组 477" transform="translate(20.847 35.625)" opacity="0.03">
            <path id="路径_2105" data-name="路径 2105" d="M1052.41,482.223a7.807,7.807,0,0,0,4.534-6.457,2.692,2.692,0,0,0-.613-2,2.512,2.512,0,0,0-2.9-.112c-1.511.8-2.5,2.31-3.559,3.661s-2.408,2.68-4.106,2.844a10.6,10.6,0,0,1-2.185-.166,3.668,3.668,0,0,0-2.146.262,1.646,1.646,0,0,0-.886,1.835,11.584,11.584,0,0,0,6.1,1.656A17.447,17.447,0,0,0,1052.41,482.223Z" transform="translate(-1040.491 -473.253)"/>
          </g>
          <g id="组_478" data-name="组 478" transform="translate(16.451 53.144)">
            <path id="路径_2106" data-name="路径 2106" d="M1058.9,500.624a5.672,5.672,0,0,0-.976.233c-.619.178-1.523.4-2.646.649s-2.471.482-3.978.671a41.993,41.993,0,0,1-9.852.028c-1.507-.18-2.859-.4-3.982-.648s-2.03-.46-2.649-.634a5.778,5.778,0,0,0-.976-.228,5.794,5.794,0,0,0,.94.352c.611.213,1.511.471,2.635.739a37.772,37.772,0,0,0,4,.723,38.82,38.82,0,0,0,9.925-.029,37.73,37.73,0,0,0,3.992-.746c1.122-.276,2.021-.538,2.631-.754A5.819,5.819,0,0,0,1058.9,500.624Z" transform="translate(-1033.842 -500.62)" fill="#263238"/>
          </g>
        </g>
      </g>
    </g>
  </g>
</svg>
