<svg xmlns="http://www.w3.org/2000/svg" xmlns:xlink="http://www.w3.org/1999/xlink" width="303.521" height="226.312" viewBox="0 0 303.521 226.312">
  <defs>
    <linearGradient id="linear-gradient" x1="1.038" y1="1.243" x2="1.034" y2="-0.022" gradientUnits="objectBoundingBox">
      <stop offset="0" stop-color="#e5dcff"/>
      <stop offset="1" stop-color="#ddd5ff"/>
    </linearGradient>
    <clipPath id="clip-path">
      <rect id="矩形_3646" data-name="矩形 3646" width="303.521" height="226.312" rx="20" transform="translate(30 7701)" fill="url(#linear-gradient)"/>
    </clipPath>
    <radialGradient id="radial-gradient" cx="0.5" cy="0.5" r="0.5" gradientUnits="objectBoundingBox">
      <stop offset="0" stop-color="#c9beff"/>
      <stop offset="1" stop-color="#9c87ff"/>
    </radialGradient>
    <filter id="路径_5326" x="62.18" y="33.516" width="166.333" height="166.332" filterUnits="userSpaceOnUse">
      <feOffset dy="12" input="SourceAlpha"/>
      <feGaussianBlur stdDeviation="13" result="blur"/>
      <feFlood flood-color="#553ba1" flood-opacity="0.459"/>
      <feComposite operator="in" in2="blur"/>
      <feComposite in="SourceGraphic"/>
    </filter>
    <filter id="路径_5337" x="5.126" y="29.202" width="84.942" height="84.942" filterUnits="userSpaceOnUse">
      <feOffset dy="16" input="SourceAlpha"/>
      <feGaussianBlur stdDeviation="12" result="blur-2"/>
      <feFlood flood-color="#5b00b5" flood-opacity="0.388"/>
      <feComposite operator="in" in2="blur-2"/>
      <feComposite in="SourceGraphic"/>
    </filter>
    <filter id="椭圆_2569" x="2.567" y="143.571" width="83.504" height="83.504" filterUnits="userSpaceOnUse">
      <feOffset dy="16" input="SourceAlpha"/>
      <feGaussianBlur stdDeviation="12" result="blur-3"/>
      <feFlood flood-color="#5b00b5" flood-opacity="0.388"/>
      <feComposite operator="in" in2="blur-3"/>
      <feComposite in="SourceGraphic"/>
    </filter>
    <filter id="椭圆_2571" x="203.648" y="95.408" width="89.957" height="89.957" filterUnits="userSpaceOnUse">
      <feOffset dy="16" input="SourceAlpha"/>
      <feGaussianBlur stdDeviation="12" result="blur-4"/>
      <feFlood flood-color="#5b00b5" flood-opacity="0.388"/>
      <feComposite operator="in" in2="blur-4"/>
      <feComposite in="SourceGraphic"/>
    </filter>
    <filter id="路径_5356" x="167.267" y="28.312" width="108.227" height="108.227" filterUnits="userSpaceOnUse">
      <feOffset dy="16" input="SourceAlpha"/>
      <feGaussianBlur stdDeviation="12" result="blur-5"/>
      <feFlood flood-color="#5b00b5" flood-opacity="0.388"/>
      <feComposite operator="in" in2="blur-5"/>
      <feComposite in="SourceGraphic"/>
    </filter>
    <filter id="椭圆_2576" x="133.328" y="-0.302" width="91.771" height="91.771" filterUnits="userSpaceOnUse">
      <feOffset dy="16" input="SourceAlpha"/>
      <feGaussianBlur stdDeviation="12" result="blur-6"/>
      <feFlood flood-color="#5b00b5" flood-opacity="0.388"/>
      <feComposite operator="in" in2="blur-6"/>
      <feComposite in="SourceGraphic"/>
    </filter>
    <filter id="椭圆_2578" x="65.54" y="148.32" width="99.961" height="99.961" filterUnits="userSpaceOnUse">
      <feOffset dy="16" input="SourceAlpha"/>
      <feGaussianBlur stdDeviation="12" result="blur-7"/>
      <feFlood flood-color="#5b00b5" flood-opacity="0.388"/>
      <feComposite operator="in" in2="blur-7"/>
      <feComposite in="SourceGraphic"/>
    </filter>
    <filter id="路径_5390" x="27.286" y="51.868" width="90.645" height="90.645" filterUnits="userSpaceOnUse">
      <feOffset dy="16" input="SourceAlpha"/>
      <feGaussianBlur stdDeviation="12" result="blur-8"/>
      <feFlood flood-color="#5b00b5" flood-opacity="0.388"/>
      <feComposite operator="in" in2="blur-8"/>
      <feComposite in="SourceGraphic"/>
    </filter>
    <filter id="椭圆_2582" x="57.069" y="1.023" width="105.164" height="105.164" filterUnits="userSpaceOnUse">
      <feOffset dy="16" input="SourceAlpha"/>
      <feGaussianBlur stdDeviation="12" result="blur-9"/>
      <feFlood flood-color="#5b00b5" flood-opacity="0.388"/>
      <feComposite operator="in" in2="blur-9"/>
      <feComposite in="SourceGraphic"/>
    </filter>
    <filter id="椭圆_2583" x="14.006" y="100.514" width="103.356" height="103.357" filterUnits="userSpaceOnUse">
      <feOffset dy="16" input="SourceAlpha"/>
      <feGaussianBlur stdDeviation="12" result="blur-10"/>
      <feFlood flood-color="#5b00b5" flood-opacity="0.388"/>
      <feComposite operator="in" in2="blur-10"/>
      <feComposite in="SourceGraphic"/>
    </filter>
    <filter id="椭圆_2584" x="147.103" y="114.11" width="126.956" height="126.956" filterUnits="userSpaceOnUse">
      <feOffset dy="16" input="SourceAlpha"/>
      <feGaussianBlur stdDeviation="12" result="blur-11"/>
      <feFlood flood-color="#5b00b5" flood-opacity="0.388"/>
      <feComposite operator="in" in2="blur-11"/>
      <feComposite in="SourceGraphic"/>
    </filter>
    <filter id="矩形_1056" x="110.631" y="41.939" width="83.997" height="83.997" filterUnits="userSpaceOnUse">
      <feOffset dy="16" input="SourceAlpha"/>
      <feGaussianBlur stdDeviation="12" result="blur-12"/>
      <feFlood flood-color="#4200b5" flood-opacity="0.388"/>
      <feComposite operator="in" in2="blur-12"/>
      <feComposite in="SourceGraphic"/>
    </filter>
    <filter id="路径_5458" x="112.547" y="52.541" width="77.082" height="76.569" filterUnits="userSpaceOnUse">
      <feOffset dy="16" input="SourceAlpha"/>
      <feGaussianBlur stdDeviation="12" result="blur-13"/>
      <feFlood flood-color="#0061b5" flood-opacity="0.388"/>
      <feComposite operator="in" in2="blur-13"/>
      <feComposite in="SourceGraphic"/>
    </filter>
    <linearGradient id="linear-gradient-3" x1="0.5" x2="-3.702" y2="-1.923" gradientUnits="objectBoundingBox">
      <stop offset="0" stop-color="#fb8f83"/>
      <stop offset="1" stop-color="#ecc284"/>
    </linearGradient>
  </defs>
  <g id="pic04" transform="translate(-30 -7701)">
    <g id="蒙版组_151" data-name="蒙版组 151" clip-path="url(#clip-path)">
      <rect id="矩形_217" data-name="矩形 217" width="303.521" height="226.312" rx="20" transform="translate(30 7701)" fill="url(#linear-gradient)"/>
      <g id="组_8178" data-name="组 8178" transform="translate(68.203 7713.435)">
        <g id="Background_Complete" data-name="Background Complete" transform="translate(0 0)">
          <path id="路径_5316" data-name="路径 5316" d="M296.549,101.925,237.415,81.952l-.046-.047L206.128,49.884,181.074,72.768l-.367-.4L206.15,49.129l31.563,32.351,58.631,19.8,24.065-33.106.439.319Z" transform="translate(-113.267 -46.584)" fill="#f0f0f0" opacity="0.16"/>
          <g id="组_1931" data-name="组 1931">
            <path id="路径_5317" data-name="路径 5317" d="M50.7,234.331a2.923,2.923,0,1,1-2.922-2.923A2.922,2.922,0,0,1,50.7,234.331Z" transform="translate(-44.854 -132.784)" fill="url(#radial-gradient)"/>
            <path id="路径_5318" data-name="路径 5318" d="M227.983,47.367a2.923,2.923,0,1,1-2.923-2.923A2.923,2.923,0,0,1,227.983,47.367Z" transform="translate(-128.727 -44.444)" fill="url(#radial-gradient)"/>
            <path id="路径_5319" data-name="路径 5319" d="M438.717,82.024a2.923,2.923,0,1,1-2.922-2.922A2.923,2.923,0,0,1,438.717,82.024Z" transform="translate(-228.434 -60.273)" fill="url(#radial-gradient)"/>
            <path id="路径_5320" data-name="路径 5320" d="M439.185,365.928a2.923,2.923,0,1,1-2.922-2.923A2.922,2.922,0,0,1,439.185,365.928Z" transform="translate(-228.648 -194.964)" fill="url(#radial-gradient)"/>
            <path id="路径_5321" data-name="路径 5321" d="M285.826,106.653a2.923,2.923,0,1,1-2.923-2.923A2.923,2.923,0,0,1,285.826,106.653Z" transform="translate(-156.093 -72.457)" fill="url(#radial-gradient)"/>
          </g>
          <path id="路径_5322" data-name="路径 5322" d="M129.545,249.967l-.227-.043-73.3-13.841.1-.534,73.073,13.8,51.169-140.409.51.186Z" transform="translate(-49.953 -78.929)" fill="#f0f0f0" opacity="0.16"/>
          <rect id="矩形_1047" data-name="矩形 1047" width="0.543" height="33.407" transform="matrix(0.663, -0.749, 0.749, 0.663, 9.213, 46.926)" fill="#f0f0f0" opacity="0.16"/>
          <path id="路径_5323" data-name="路径 5323" d="M407.992,266.828l-36.24-22.459.791-.217,38.075-36.631L383.45,145.733l.5-.219,27.321,62.135-.137.132-38.155,36.707,35.3,21.878Z" transform="translate(-200.52 -95.633)" fill="#f0f0f0" opacity="0.16"/>
          <path id="路径_5324" data-name="路径 5324" d="M53.333,265.414l-.456-.295,21.9-33.833L49.528,207.862l.184-.2L81.34,173.42l.188.109L225.654,256.9l-.272.47L81.444,174.108,50.295,207.832,75.483,231.2Z" transform="translate(-46.989 -108.378)" fill="#f0f0f0" opacity="0.16"/>
        </g>
        <g id="Shadow" transform="translate(6.116 190.81)" opacity="0.2">
          <ellipse id="_Path_" data-name="&lt;Path&gt;" cx="102.154" cy="6.152" rx="102.154" ry="6.152" fill="#f5f5f5"/>
        </g>
        <g id="World" transform="translate(62.977 48.082)">
          <g id="组_1937" data-name="组 1937">
            <g id="组_1936" data-name="组 1936">
              <g id="组_1932" data-name="组 1932">
                <path id="路径_5325" data-name="路径 5325" d="M206.931,225q2.192.181,4.343.147a44.161,44.161,0,0,0,43.31-40.522c.022-.268.041-.537.06-.8a44.062,44.062,0,0,0-1.88-15.923v0a44.208,44.208,0,0,0-34.073-30.326,45.121,45.121,0,0,0-4.482-.6A44.164,44.164,0,1,0,206.931,225Z" transform="translate(-166.403 -136.823)" fill="#407bff"/>
              </g>
              <g id="组_1933" data-name="组 1933">
                <g transform="matrix(1, 0, 0, 1, -101.18, -60.52)" filter="url(#路径_5326)">
                  <path id="路径_5326-2" data-name="路径 5326" d="M206.931,225q2.192.181,4.343.147a44.161,44.161,0,0,0,43.31-40.522c.022-.268.041-.537.06-.8a44.062,44.062,0,0,0-1.88-15.923v0a44.208,44.208,0,0,0-34.073-30.326,45.121,45.121,0,0,0-4.482-.6A44.164,44.164,0,1,0,206.931,225Z" transform="translate(-65.22 -76.31)" fill="#c9beff"/>
                </g>
              </g>
              <g id="组_1934" data-name="组 1934" transform="translate(1.512 0.569)">
                <path id="路径_5327" data-name="路径 5327" d="M178.764,226.86c-.142.821-1.187,1.116-2.028,1.222q-1.895.234-3.789.471c-.6-1.569-2.453-1.583-3.761-.971A44.181,44.181,0,0,0,208.2,260.1q2.192.181,4.343.147a1.275,1.275,0,0,0,.071-.108c.658-1.157-.3-2.182-.808-3.13-.115-.215-1.2-2.95-.839-2.958a11.688,11.688,0,0,1-3.44-.445.348.348,0,0,1-.221-.131c-.1-.181.147-.357.35-.405.52-.122,1.06-.15,1.572-.3a1.808,1.808,0,0,0,1.214-.961,9.727,9.727,0,0,0,.166-1.594,2.2,2.2,0,0,1,1.251-1.427,7.2,7.2,0,0,1,1.824-.486c-1.334-.726-.363-2.24-1.41-3.252-.336-.325-.826-.722-.619-1.141.2-.4.9-.393.99-.829.062-.3-.26-.556-.563-.625a3.328,3.328,0,0,1-.908-.194.813.813,0,0,1-.256-1.134c.228-.319.65-.418,1-.6s.66-.612.451-.946a.62.62,0,0,0-.2-.188,1.793,1.793,0,0,0-1.858.312,3.365,3.365,0,0,1-1.777.829.552.552,0,0,1,.218-.751.925.925,0,0,0,.269-.139c.155-.159.039-.419-.067-.614a3.98,3.98,0,0,1-.3-3.033l4.044.077c.034-.3.067-.484.387-.576a42.062,42.062,0,0,1-2.69-3.26.819.819,0,0,0-.361-.349,2.591,2.591,0,0,0-.53-.027c-.583-.079-.677-.877-.618-1.462-.082-.178-.369-.1-.476.062s-.133.375-.265.52a.75.75,0,0,1-.818.089,1.943,1.943,0,0,1-1.026-2.519.589.589,0,0,1,.221-.28c.231-.132.51.03.772.077,1.032.186.875-.955.626-1.494a3.216,3.216,0,0,0-2.071-1.389c-.852-.218-6.54-1.3-5.6-3.159a.857.857,0,0,1,.438-.37,13.059,13.059,0,0,1,1.737-.331c.569-.161,1.121-.753.873-1.29-.1-.215-.305-.363-.421-.57-.321-.578.173-1.327-.054-1.948a5.281,5.281,0,0,0-.5-.758c-.152-.263-.177-.659.082-.817.291-.177.69.086,1-.053a.534.534,0,0,0,.007-.882.92.92,0,0,0-1.006.075,1.233,1.233,0,0,1-.485.268c-.333.044-.58-.286-.75-.575l-.808-1.378a.782.782,0,0,0-.642.57c-.1.286-.124.6-.243.882-.572,1.362-2.645,1.2-2.377,3.065a.885.885,0,0,1,.9,1.1c-.216.66-1.207,1.021-1.068,1.7.048.237.237.429.274.667.1.658-.913.9-1.351,1.05-1.449.5-1.548-.455-2.8-.511-.575-.026-1.091.362-1.662.424-.526.058-1.05-.165-1.578-.134-1.453.085-.724,2.054-.622,2.91-.781-.52-1.824.087-2.445.788-.954,1.076-.865.887-2.128.934a.918.918,0,0,0-.819.482c-.235.531.265,1.1.278,1.685.006.279-.1.553-.077.831.067.729.931,1.046,1.454,1.558a2,2,0,0,1,.56,1.759,4.182,4.182,0,0,1-1.116-.08l-.656-1.266a2.729,2.729,0,0,0-.738-1.008,2.276,2.276,0,0,1-.56-.423c-.275-.379-.053-.9.012-1.361a13.69,13.69,0,0,0-.681-4.131c-.293-1.189-1.083-1.656-1.37-2.753a.343.343,0,0,0-.494-.158.755.755,0,0,0-.313.492,2.077,2.077,0,0,0,.12,1.36c-.252-.554-1.653.9-1.737,1.181-.139.453.162,1.1.15,1.571-.029,1.168-.311,1.825-1.519.965-.462-.329-1.053-.716-1.542-.43a.73.73,0,0,1-.407.826,1.542,1.542,0,0,1-.982.074.98.98,0,0,1-.6-.29,1.628,1.628,0,0,0-.218-.287c-.31-.241-.7.177-.869.532" transform="translate(-169.187 -172.493)" fill="#407bff" style="isolation: isolate"/>
                <path id="路径_5328" data-name="路径 5328" d="M272.108,157.7c.244.382-.014.881-.292,1.239s-.6.78-.482,1.216l1.572.143a.285.285,0,0,1,.314.39q-.062.505-.123,1.01c-.331.258-.65-.555-1.062-.474-.182.036-.275.232-.374.388-.851,1.334-2.336.335-3.132-.359a5.269,5.269,0,0,0-3.486-.871,1.669,1.669,0,0,0-1.234.324c-.3.3-.322.784-.476,1.191-.263.7-.939,1.165-1.322,1.814-1.336,2.267,1.066,4.009,3.109,3.392,1.059-.319.877-.5,1.96-.194.451.13,1,.018,1.281.519a.844.844,0,0,1-.737,1.227,3.59,3.59,0,0,1-1.741-.2,6.77,6.77,0,0,1-.078,2.294,1,1,0,0,0-1.069,1.337c.345.005.811.135.782.479a.576.576,0,0,1-.121.273c-.24.345-.548.643-.755,1.01-.317.564-.315,2.255-1.123,2.458-.142.036-.294.024-.434.068a.653.653,0,0,0-.4.755.884.884,0,0,0,.641.621c.2.054.416.048.613.117,1.045.364.128,1.4.378,1.906a9.259,9.259,0,0,0,2.083,1.386,2.462,2.462,0,0,0-1.177,1.856c-.024.85.622,1.262,1.43,1.514.854.267,1.888.355,2.5.593a1.052,1.052,0,0,0,1.012.027c.347-.274.271-.921.672-1.109a1.224,1.224,0,0,1,.413-.067,1.559,1.559,0,0,0,1.331-1.753c.19-.247.56-.224.872-.216s.706-.094.751-.4c.052-.355-.4-.552-.76-.573a3.95,3.95,0,0,0-1.09.087,1.3,1.3,0,0,1-.8.033,1.042,1.042,0,0,1-.42-.442,2.387,2.387,0,0,1-.444-1.4,1.016,1.016,0,0,1,.938-.973,2.06,2.06,0,0,0,.4.024c.338-.055.486-.471.466-.813a3.076,3.076,0,0,1-.043-1.021c.093-.33.551-.575.779-.319.192-.438.319-1.076-.111-1.288a1.289,1.289,0,0,0-.451-.078c-.945-.089-2.221-1.367-1.171-2.095.69-.479,1.8.519,2.411-.387.29-.434.111-1.064.409-1.492.177-.127.383.13.422.344a2.017,2.017,0,0,1-.658,1.858c.53.31,1.37-.043,1.73.454s-.171,1.345.3,1.729a.976.976,0,0,0,.488.165c.849.125,2.436-.019,2.488,1.2a1.74,1.74,0,0,0,.027.44c.13.429.713.469,1.159.425.229-.438-.07-.95-.267-1.4s-.184-1.148.3-1.262c.345-.081.746.215,1.037.013.135-.094.2-.273.342-.35.351-.186.648.354,1.026.475.522.166.917-.518.918-1.065s-.136-1.171.221-1.586c.114-.131.265-.224.39-.344a2.324,2.324,0,0,0,.513-1.482c.086-.849,3.436,1.35,3.647,1.385,1.611.268,2.6-1.328,3.7-2.2a9.841,9.841,0,0,1,1.923-1.088,44.551,44.551,0,0,0-31.976-29.883,14.3,14.3,0,0,0-2.05-.4c.208,1.026.842,2.647.153,3.621-.875,1.238-2.727.154-3.408,1.605-.023.37.594.309.88.547a1.287,1.287,0,0,1,.277.544c.079.191.263.383.461.323.23.343-.128.764-.431,1.043a2.688,2.688,0,0,0-.826,1.175c-.281.97.356,1.934.765,2.858a13.229,13.229,0,0,1,.717,2.4c.006-.386.552-.541.9-.366a3.965,3.965,0,0,1,.834.8c.475.456,1.089.179,1.6.569.637.482,1.044,1.349,1.831,1.479.953.16,1.646-.857,2.069-1.723,1.048.555,1.7,1.894,2.88,1.982a3.043,3.043,0,0,0,1.32-.3q1.3-.512,2.6-1.025a1.62,1.62,0,0,1,1.12-.155,1.639,1.639,0,0,1,.819,1.035l.561,1.364a.987.987,0,0,1,.1.588.87.87,0,0,1-.417.473,4.7,4.7,0,0,1-3.371.688,19.02,19.02,0,0,0,.92,4.627c-.886-.229-1.905.066-2.726-.275" transform="translate(-209.173 -138.061)" fill="#407bff" style="isolation: isolate"/>
                <path id="路径_5329" data-name="路径 5329" d="M263.73,239.03a1.753,1.753,0,0,1-1.332.683,8.349,8.349,0,0,1-.937-.177.866.866,0,0,0-.858.285c-.222.34-.011.787.2,1.135a1.339,1.339,0,0,0,.688.679,6.343,6.343,0,0,0,.721.04c.472.077.775.523,1.088.884s.825.686,1.242.452c.274-.154.392-.5.658-.669.649-.409,1.448.48,2.036.145.7-.4.442-1.532.153-2.172a5.866,5.866,0,0,0-1.387-1.63C264.587,237.316,264.785,237.773,263.73,239.03Z" transform="translate(-210.894 -183.533)" fill="#407bff" style="isolation: isolate"/>
                <path id="路径_5330" data-name="路径 5330" d="M301.028,246.669c6.948-6.885,11.011-16.919,11.809-26.567.022-.268.041-.537.06-.8-1.34-1.382-4.009-2.263-4.708.222-.275-.02-.332-.184-.542-.34-.329-.244-.792.087-.976.453-.606,1.2-.689,2.708-2.354,2.384-1.984-.386-.638-1.235-1.285-2.33a2.251,2.251,0,0,0-.387-.391,2.246,2.246,0,0,1-.316-1.923.769.769,0,0,0,1.043-.434,1.231,1.231,0,0,1,.153-.456c.224-.265.688-.017.8.314a9.985,9.985,0,0,1,.1,1.035c.072.34.443.674.74.493a.606.606,0,0,0,.233-.357,1.891,1.891,0,0,0-.341-1.722.761.761,0,0,0-.033-1.479c-.483-.105-1.174.18-1.369-.275a1.1,1.1,0,0,1-.425,1.062c-1.281.93-4.162.1-3.875,2.831a10.433,10.433,0,0,1,.19,1.307,1.008,1.008,0,0,1-.685,1.012c.778.628.493,2.064,1.329,2.613a1.061,1.061,0,0,0,1.3-.137.473.473,0,0,1,.182-.143c.152-.048.293.1.449.129.271.058.5-.223.781-.238.386-.022.6.44.664.82s.171.845.543.95c.127.035.264.018.391.054a.659.659,0,0,1,.423.614,1.927,1.927,0,0,1-.176.771c-.16.162-.447.063-.6-.1a4.431,4.431,0,0,0-.426-.531,19.519,19.519,0,0,1-2.336-.069c-.343.795-.517,2.534-1.71,2.091-.421-.156-.851-.442-1.282-.313q.307-.843.594-1.692c-.174-.155-.445.057-.519.278s-.086.489-.272.63a.749.749,0,0,1-.472.1l-1.6-.032a1.931,1.931,0,0,0-1.6.468,1.458,1.458,0,0,0,.263,1.794.6.6,0,0,1,.217.405.593.593,0,0,1-.23.349,2.388,2.388,0,0,0-.785,2.023,1.558,1.558,0,0,0,1.555,1.335c.288-.026.646-.122.816.112.1.137.1.36.251.43.2.088.359-.157.5-.318a.859.859,0,0,1,1.054-.171,4.281,4.281,0,0,1,.564,1.98c-.319.546-1.831.331-2.423.357a.858.858,0,0,0-.634.205c-.234.269-.044.7.218.941s.6.431.734.764a1.48,1.48,0,0,1,.058.615,1.571,1.571,0,0,1-.382,1.164c-.149.127-.343.194-.493.322a1.218,1.218,0,0,0-.247,1.251c.119.432.351.832.434,1.273.176.939-.34,1.958.034,2.838.18.425.742.764,1.094.465.3-.259.3-.869.7-.913.38-.043.85.914,1.165,1.1.249.147.752-.1,1.21.236C300.552,245.782,300.628,246.376,301.028,246.669Z" transform="translate(-226.169 -172.866)" fill="#407bff" style="isolation: isolate"/>
                <path id="路径_5331" data-name="路径 5331" d="M192.928,152.832c.391-.5.637-1.069,1.37-1.2,1-.174,1.377.386.94,1.333a.425.425,0,0,0-.059.267c.068.288.5.12.746-.046a1.987,1.987,0,0,1,1.917-.092,9.354,9.354,0,0,0,.274-2.992c-.5-1.1-2.809-.583-2.336-1.782.864-.018,1.75.094,2.618.158l.142-1.251c-.035.311,1.579.247,1.762.154.711-.361.518-1.655,1.793-1.445,1.614.266,1.706,3.438-.129,2.921a8.225,8.225,0,0,0-.654,3.073c-.332,0-.667-.007-1-.011a.9.9,0,0,0-.122.807,2.5,2.5,0,0,0,2.755.026c.524.4,1.265.017,1.8-.365A1.966,1.966,0,1,0,206,149.429a3.205,3.205,0,0,0-.681-1.844,4.18,4.18,0,0,0,3.991-2.765c.28-.826.343-1.827,1.041-2.352.309-.235.7-.333,1.025-.547a3.133,3.133,0,0,0,1.05-2.305q.112-.87.164-1.745a44.2,44.2,0,0,0-26.177,14.557,1.751,1.751,0,0,0,.066.9,1.92,1.92,0,0,0,1.384.857c2.118.56,3.473.438,4.941-1.21C192.849,152.929,192.889,152.88,192.928,152.832Z" transform="translate(-177.044 -137.871)" fill="#407bff" style="isolation: isolate"/>
              </g>
              <g id="组_1935" data-name="组 1935" transform="translate(1.512 0.569)">
                <path id="路径_5332" data-name="路径 5332" d="M178.764,226.86c-.142.821-1.187,1.116-2.028,1.222q-1.895.234-3.789.471c-.6-1.569-2.453-1.583-3.761-.971A44.181,44.181,0,0,0,208.2,260.1q2.192.181,4.343.147a1.275,1.275,0,0,0,.071-.108c.658-1.157-.3-2.182-.808-3.13-.115-.215-1.2-2.95-.839-2.958a11.688,11.688,0,0,1-3.44-.445.348.348,0,0,1-.221-.131c-.1-.181.147-.357.35-.405.52-.122,1.06-.15,1.572-.3a1.808,1.808,0,0,0,1.214-.961,9.727,9.727,0,0,0,.166-1.594,2.2,2.2,0,0,1,1.251-1.427,7.2,7.2,0,0,1,1.824-.486c-1.334-.726-.363-2.24-1.41-3.252-.336-.325-.826-.722-.619-1.141.2-.4.9-.393.99-.829.062-.3-.26-.556-.563-.625a3.328,3.328,0,0,1-.908-.194.813.813,0,0,1-.256-1.134c.228-.319.65-.418,1-.6s.66-.612.451-.946a.62.62,0,0,0-.2-.188,1.793,1.793,0,0,0-1.858.312,3.365,3.365,0,0,1-1.777.829.552.552,0,0,1,.218-.751.925.925,0,0,0,.269-.139c.155-.159.039-.419-.067-.614a3.98,3.98,0,0,1-.3-3.033l4.044.077c.034-.3.067-.484.387-.576a42.062,42.062,0,0,1-2.69-3.26.819.819,0,0,0-.361-.349,2.591,2.591,0,0,0-.53-.027c-.583-.079-.677-.877-.618-1.462-.082-.178-.369-.1-.476.062s-.133.375-.265.52a.75.75,0,0,1-.818.089,1.943,1.943,0,0,1-1.026-2.519.589.589,0,0,1,.221-.28c.231-.132.51.03.772.077,1.032.186.875-.955.626-1.494a3.216,3.216,0,0,0-2.071-1.389c-.852-.218-6.54-1.3-5.6-3.159a.857.857,0,0,1,.438-.37,13.059,13.059,0,0,1,1.737-.331c.569-.161,1.121-.753.873-1.29-.1-.215-.305-.363-.421-.57-.321-.578.173-1.327-.054-1.948a5.281,5.281,0,0,0-.5-.758c-.152-.263-.177-.659.082-.817.291-.177.69.086,1-.053a.534.534,0,0,0,.007-.882.92.92,0,0,0-1.006.075,1.233,1.233,0,0,1-.485.268c-.333.044-.58-.286-.75-.575l-.808-1.378a.782.782,0,0,0-.642.57c-.1.286-.124.6-.243.882-.572,1.362-2.645,1.2-2.377,3.065a.885.885,0,0,1,.9,1.1c-.216.66-1.207,1.021-1.068,1.7.048.237.237.429.274.667.1.658-.913.9-1.351,1.05-1.449.5-1.548-.455-2.8-.511-.575-.026-1.091.362-1.662.424-.526.058-1.05-.165-1.578-.134-1.453.085-.724,2.054-.622,2.91-.781-.52-1.824.087-2.445.788-.954,1.076-.865.887-2.128.934a.918.918,0,0,0-.819.482c-.235.531.265,1.1.278,1.685.006.279-.1.553-.077.831.067.729.931,1.046,1.454,1.558a2,2,0,0,1,.56,1.759,4.182,4.182,0,0,1-1.116-.08l-.656-1.266a2.729,2.729,0,0,0-.738-1.008,2.276,2.276,0,0,1-.56-.423c-.275-.379-.053-.9.012-1.361a13.69,13.69,0,0,0-.681-4.131c-.293-1.189-1.083-1.656-1.37-2.753a.343.343,0,0,0-.494-.158.755.755,0,0,0-.313.492,2.077,2.077,0,0,0,.12,1.36c-.252-.554-1.653.9-1.737,1.181-.139.453.162,1.1.15,1.571-.029,1.168-.311,1.825-1.519.965-.462-.329-1.053-.716-1.542-.43a.73.73,0,0,1-.407.826,1.542,1.542,0,0,1-.982.074.98.98,0,0,1-.6-.29,1.628,1.628,0,0,0-.218-.287c-.31-.241-.7.177-.869.532" transform="translate(-169.187 -172.493)" fill="#9f8cfb" style="isolation: isolate"/>
                <path id="路径_5333" data-name="路径 5333" d="M272.108,157.7c.244.382-.014.881-.292,1.239s-.6.78-.482,1.216l1.572.143a.285.285,0,0,1,.314.39q-.062.505-.123,1.01c-.331.258-.65-.555-1.062-.474-.182.036-.275.232-.374.388-.851,1.334-2.336.335-3.132-.359a5.269,5.269,0,0,0-3.486-.871,1.669,1.669,0,0,0-1.234.324c-.3.3-.322.784-.476,1.191-.263.7-.939,1.165-1.322,1.814-1.336,2.267,1.066,4.009,3.109,3.392,1.059-.319.877-.5,1.96-.194.451.13,1,.018,1.281.519a.844.844,0,0,1-.737,1.227,3.59,3.59,0,0,1-1.741-.2,6.77,6.77,0,0,1-.078,2.294,1,1,0,0,0-1.069,1.337c.345.005.811.135.782.479a.576.576,0,0,1-.121.273c-.24.345-.548.643-.755,1.01-.317.564-.315,2.255-1.123,2.458-.142.036-.294.024-.434.068a.653.653,0,0,0-.4.755.884.884,0,0,0,.641.621c.2.054.416.048.613.117,1.045.364.128,1.4.378,1.906a9.259,9.259,0,0,0,2.083,1.386,2.462,2.462,0,0,0-1.177,1.856c-.024.85.622,1.262,1.43,1.514.854.267,1.888.355,2.5.593a1.052,1.052,0,0,0,1.012.027c.347-.274.271-.921.672-1.109a1.224,1.224,0,0,1,.413-.067,1.559,1.559,0,0,0,1.331-1.753c.19-.247.56-.224.872-.216s.706-.094.751-.4c.052-.355-.4-.552-.76-.573a3.95,3.95,0,0,0-1.09.087,1.3,1.3,0,0,1-.8.033,1.042,1.042,0,0,1-.42-.442,2.387,2.387,0,0,1-.444-1.4,1.016,1.016,0,0,1,.938-.973,2.06,2.06,0,0,0,.4.024c.338-.055.486-.471.466-.813a3.076,3.076,0,0,1-.043-1.021c.093-.33.551-.575.779-.319.192-.438.319-1.076-.111-1.288a1.289,1.289,0,0,0-.451-.078c-.945-.089-2.221-1.367-1.171-2.095.69-.479,1.8.519,2.411-.387.29-.434.111-1.064.409-1.492.177-.127.383.13.422.344a2.017,2.017,0,0,1-.658,1.858c.53.31,1.37-.043,1.73.454s-.171,1.345.3,1.729a.976.976,0,0,0,.488.165c.849.125,2.436-.019,2.488,1.2a1.74,1.74,0,0,0,.027.44c.13.429.713.469,1.159.425.229-.438-.07-.95-.267-1.4s-.184-1.148.3-1.262c.345-.081.746.215,1.037.013.135-.094.2-.273.342-.35.351-.186.648.354,1.026.475.522.166.917-.518.918-1.065s-.136-1.171.221-1.586c.114-.131.265-.224.39-.344a2.324,2.324,0,0,0,.513-1.482c.086-.849,3.436,1.35,3.647,1.385,1.611.268,2.6-1.328,3.7-2.2a9.841,9.841,0,0,1,1.923-1.088,44.551,44.551,0,0,0-31.976-29.883,14.3,14.3,0,0,0-2.05-.4c.208,1.026.842,2.647.153,3.621-.875,1.238-2.727.154-3.408,1.605-.023.37.594.309.88.547a1.287,1.287,0,0,1,.277.544c.079.191.263.383.461.323.23.343-.128.764-.431,1.043a2.688,2.688,0,0,0-.826,1.175c-.281.97.356,1.934.765,2.858a13.229,13.229,0,0,1,.717,2.4c.006-.386.552-.541.9-.366a3.965,3.965,0,0,1,.834.8c.475.456,1.089.179,1.6.569.637.482,1.044,1.349,1.831,1.479.953.16,1.646-.857,2.069-1.723,1.048.555,1.7,1.894,2.88,1.982a3.043,3.043,0,0,0,1.32-.3q1.3-.512,2.6-1.025a1.62,1.62,0,0,1,1.12-.155,1.639,1.639,0,0,1,.819,1.035l.561,1.364a.987.987,0,0,1,.1.588.87.87,0,0,1-.417.473,4.7,4.7,0,0,1-3.371.688,19.02,19.02,0,0,0,.92,4.627c-.886-.229-1.905.066-2.726-.275" transform="translate(-209.173 -138.061)" fill="#9f8cfb" style="isolation: isolate"/>
                <path id="路径_5334" data-name="路径 5334" d="M263.73,239.03a1.753,1.753,0,0,1-1.332.683,8.349,8.349,0,0,1-.937-.177.866.866,0,0,0-.858.285c-.222.34-.011.787.2,1.135a1.339,1.339,0,0,0,.688.679,6.343,6.343,0,0,0,.721.04c.472.077.775.523,1.088.884s.825.686,1.242.452c.274-.154.392-.5.658-.669.649-.409,1.448.48,2.036.145.7-.4.442-1.532.153-2.172a5.866,5.866,0,0,0-1.387-1.63C264.587,237.316,264.785,237.773,263.73,239.03Z" transform="translate(-210.894 -183.533)" fill="#9f8cfb" style="isolation: isolate"/>
                <path id="路径_5335" data-name="路径 5335" d="M301.028,246.669c6.948-6.885,11.011-16.919,11.809-26.567.022-.268.041-.537.06-.8-1.34-1.382-4.009-2.263-4.708.222-.275-.02-.332-.184-.542-.34-.329-.244-.792.087-.976.453-.606,1.2-.689,2.708-2.354,2.384-1.984-.386-.638-1.235-1.285-2.33a2.251,2.251,0,0,0-.387-.391,2.246,2.246,0,0,1-.316-1.923.769.769,0,0,0,1.043-.434,1.231,1.231,0,0,1,.153-.456c.224-.265.688-.017.8.314a9.985,9.985,0,0,1,.1,1.035c.072.34.443.674.74.493a.606.606,0,0,0,.233-.357,1.891,1.891,0,0,0-.341-1.722.761.761,0,0,0-.033-1.479c-.483-.105-1.174.18-1.369-.275a1.1,1.1,0,0,1-.425,1.062c-1.281.93-4.162.1-3.875,2.831a10.433,10.433,0,0,1,.19,1.307,1.008,1.008,0,0,1-.685,1.012c.778.628.493,2.064,1.329,2.613a1.061,1.061,0,0,0,1.3-.137.473.473,0,0,1,.182-.143c.152-.048.293.1.449.129.271.058.5-.223.781-.238.386-.022.6.44.664.82s.171.845.543.95c.127.035.264.018.391.054a.659.659,0,0,1,.423.614,1.927,1.927,0,0,1-.176.771c-.16.162-.447.063-.6-.1a4.431,4.431,0,0,0-.426-.531,19.519,19.519,0,0,1-2.336-.069c-.343.795-.517,2.534-1.71,2.091-.421-.156-.851-.442-1.282-.313q.307-.843.594-1.692c-.174-.155-.445.057-.519.278s-.086.489-.272.63a.749.749,0,0,1-.472.1l-1.6-.032a1.931,1.931,0,0,0-1.6.468,1.458,1.458,0,0,0,.263,1.794.6.6,0,0,1,.217.405.593.593,0,0,1-.23.349,2.388,2.388,0,0,0-.785,2.023,1.558,1.558,0,0,0,1.555,1.335c.288-.026.646-.122.816.112.1.137.1.36.251.43.2.088.359-.157.5-.318a.859.859,0,0,1,1.054-.171,4.281,4.281,0,0,1,.564,1.98c-.319.546-1.831.331-2.423.357a.858.858,0,0,0-.634.205c-.234.269-.044.7.218.941s.6.431.734.764a1.48,1.48,0,0,1,.058.615,1.571,1.571,0,0,1-.382,1.164c-.149.127-.343.194-.493.322a1.218,1.218,0,0,0-.247,1.251c.119.432.351.832.434,1.273.176.939-.34,1.958.034,2.838.18.425.742.764,1.094.465.3-.259.3-.869.7-.913.38-.043.85.914,1.165,1.1.249.147.752-.1,1.21.236C300.552,245.782,300.628,246.376,301.028,246.669Z" transform="translate(-226.169 -172.866)" fill="#9f8cfb" style="isolation: isolate"/>
                <path id="路径_5336" data-name="路径 5336" d="M192.928,152.832c.391-.5.637-1.069,1.37-1.2,1-.174,1.377.386.94,1.333a.425.425,0,0,0-.059.267c.068.288.5.12.746-.046a1.987,1.987,0,0,1,1.917-.092,9.354,9.354,0,0,0,.274-2.992c-.5-1.1-2.809-.583-2.336-1.782.864-.018,1.75.094,2.618.158l.142-1.251c-.035.311,1.579.247,1.762.154.711-.361.518-1.655,1.793-1.445,1.614.266,1.706,3.438-.129,2.921a8.225,8.225,0,0,0-.654,3.073c-.332,0-.667-.007-1-.011a.9.9,0,0,0-.122.807,2.5,2.5,0,0,0,2.755.026c.524.4,1.265.017,1.8-.365A1.966,1.966,0,1,0,206,149.429a3.205,3.205,0,0,0-.681-1.844,4.18,4.18,0,0,0,3.991-2.765c.28-.826.343-1.827,1.041-2.352.309-.235.7-.333,1.025-.547a3.133,3.133,0,0,0,1.05-2.305q.112-.87.164-1.745a44.2,44.2,0,0,0-26.177,14.557,1.751,1.751,0,0,0,.066.9,1.92,1.92,0,0,0,1.384.857c2.118.56,3.473.438,4.941-1.21C192.849,152.929,192.889,152.88,192.928,152.832Z" transform="translate(-177.044 -137.871)" fill="#9f8cfb" style="isolation: isolate"/>
              </g>
            </g>
          </g>
        </g>
        <g id="People" transform="translate(0.364 7.264)">
          <g id="组_1941" data-name="组 1941" transform="translate(0 29.504)">
            <g id="组_1938" data-name="组 1938" transform="translate(2.559 0)">
              <g transform="matrix(1, 0, 0, 1, -41.13, -49.2)" filter="url(#路径_5337)">
                <path id="路径_5337-2" data-name="路径 5337" d="M50.234,127.848a6.471,6.471,0,1,0,6.471-6.471A6.466,6.466,0,0,0,50.234,127.848Z" transform="translate(-9.11 -72.17)" fill="#c9beff"/>
              </g>
              <path id="路径_5338" data-name="路径 5338" d="M55.463,129.023a.985.985,0,0,0,.749.9,1.394,1.394,0,0,0,.027.9c.183.5,1.181.5,1.181.5a.51.51,0,0,0,.454.306c.021.029.046.053.064.078.043.064.091.132.142.2a3.409,3.409,0,0,1-.381,2.544s.008.005.011.011c-.419.046-.84.1-1.256.169-.2.029-.4.064-.593.1a6.467,6.467,0,0,0,7.217-.512c-.185,0-.394-.005-.623-.005-.338,0-.719,0-1.135.011a.1.1,0,0,0-.01-.024,1.321,1.321,0,0,1-1.175-.859,1.887,1.887,0,0,1-.078-.67,2.136,2.136,0,0,0,.536-.177,2.221,2.221,0,0,0,1.1-1.2,2.152,2.152,0,0,0,.075-.225,5.663,5.663,0,0,0,.14-1.926.907.907,0,0,0,.44-.622.666.666,0,0,0-.459-.813.867.867,0,0,0,.666-.907.69.69,0,0,0-.666-.8s.236-.341-.223-.974a.812.812,0,0,0-1.091-.244,1.272,1.272,0,0,0-1.269-.574,1.38,1.38,0,0,0-.99.652s0-.464-.9-.206a1.213,1.213,0,0,0-.786,1.29.657.657,0,0,0-.912.341c-.311.647.362,1.779.362,1.779A.881.881,0,0,0,55.463,129.023Z" transform="translate(-52.619 -122.654)" fill="#a492fc"/>
            </g>
            <g id="组_1939" data-name="组 1939" transform="translate(0 114.368)">
              <g transform="matrix(1, 0, 0, 1, -38.57, -163.57)" filter="url(#椭圆_2569)">
                <circle id="椭圆_2569-2" data-name="椭圆 2569" cx="5.752" cy="5.752" r="5.752" transform="translate(38.57 163.57)" fill="#c9beff"/>
              </g>
              <path id="路径_5341" data-name="路径 5341" d="M56.981,342.468a5.427,5.427,0,0,1-7.343,1.157c.181-.412.3-.658.3-.658A15.742,15.742,0,0,1,52,342.459a1.607,1.607,0,0,1,.711-.353,2.078,2.078,0,0,0-.041-1.235,2.148,2.148,0,0,1-.553-.546,1.547,1.547,0,0,1-.293-.288,2.573,2.573,0,0,1-1.38-2.5c0-.078,0-.155,0-.231-.358-.036-.73.076-.473.8a2.152,2.152,0,0,1-.021,1.912,4.888,4.888,0,0,0-.041-.83c0,1.3-.7,1.38-.7,1.38s.446-.467-.212-1.91-.467-3.4.785-3.481a1.634,1.634,0,0,1,1.386.582,2.1,2.1,0,0,1,2.458-.286s1.126-.274,1.443.021c.069.065.016.212-.12.408a1.467,1.467,0,0,1,.63.93,2.225,2.225,0,0,1-.308,1.762c.15,1.426-.093,2.494-1.226,2.594,0,.036,0,.072-.008.105,0,.05,0,.1,0,.145a1.706,1.706,0,0,0,.079.609,3.106,3.106,0,0,1,.474.129c1.016,0,2.151.107,2.151.107l.012.007A1.519,1.519,0,0,1,56.981,342.468Z" transform="translate(-46.942 -333.392)" fill="#a492fc"/>
            </g>
            <g id="组_1940" data-name="组 1940" transform="translate(201.081 66.206)">
              <g transform="matrix(1, 0, 0, 1, -239.65, -115.41)" filter="url(#椭圆_2571)">
                <circle id="椭圆_2571-2" data-name="椭圆 2571" cx="6.349" cy="6.349" r="6.349" transform="translate(239.65 124.39) rotate(-45)" fill="#c9beff"/>
              </g>
              <path id="路径_5343" data-name="路径 5343" d="M445.767,259.092a5.979,5.979,0,0,1-8.65,1.414,3.351,3.351,0,0,1,.035-.982c.073-.732.918-1.322.9-1.835s-.866-1.174-.316-1.469a1.6,1.6,0,0,0,.227-2.074A1.393,1.393,0,0,1,438,252.2a2.532,2.532,0,0,1,1.631-.887,3.006,3.006,0,0,1,1.772-.255,3.754,3.754,0,0,1,1.761.6,2.566,2.566,0,0,1,.916,1.129,3.574,3.574,0,0,1,.19,2.593c-.3.855,1.032.805,1.069,1.592s-.624.829-.508,1.355C444.883,258.569,445.341,258.8,445.767,259.092Z" transform="translate(-431.806 -246.797)" fill="#a492fc"/>
            </g>
          </g>
          <g id="组_1946" data-name="组 1946" transform="translate(26.339 8.513)" opacity="0.16">
            <rect id="矩形_1048" data-name="矩形 1048" width="52.82" height="0.543" transform="matrix(0.917, -0.398, 0.398, 0.917, 114.141, 57.501)" fill="#f0f0f0"/>
            <rect id="矩形_1049" data-name="矩形 1049" width="0.543" height="39.366" transform="matrix(0.85, -0.526, 0.526, 0.85, 47.057, 10.35)" fill="#f0f0f0"/>
            <rect id="矩形_1050" data-name="矩形 1050" width="54.921" height="0.543" transform="translate(0.234 107.081) rotate(-11.833)" fill="#f0f0f0"/>
            <rect id="矩形_1051" data-name="矩形 1051" width="52.82" height="0.543" transform="matrix(0.917, -0.398, 0.398, 0.917, 114.141, 57.501)" fill="#f0f0f0" opacity="0.8"/>
            <rect id="矩形_1052" data-name="矩形 1052" width="0.543" height="58.255" transform="matrix(0.847, -0.531, 0.531, 0.847, 120.23, 85.835)" fill="#f0f0f0"/>
            <rect id="矩形_1053" data-name="矩形 1053" width="0.543" height="58.255" transform="matrix(0.847, -0.531, 0.531, 0.847, 120.23, 85.835)" fill="#f0f0f0" opacity="0.8"/>
            <rect id="矩形_1054" data-name="矩形 1054" width="0.543" height="39.366" transform="matrix(0.85, -0.526, 0.526, 0.85, 47.057, 10.35)" fill="#f0f0f0" opacity="0.8"/>
            <rect id="矩形_1055" data-name="矩形 1055" width="54.921" height="0.543" transform="translate(0.234 107.081) rotate(-11.833)" fill="#f0f0f0" opacity="0.8"/>
            <path id="路径_5344" data-name="路径 5344" d="M146.634,228.729,94,180.8l7.442-54.513.055-.06,39.654-43.11.1-.013,71.863-9.627L257,110.29l-.016.138-11.343,98.966-.195.038ZM94.579,180.607,146.8,228.16l98.345-19.206,11.283-98.447-43.48-36.469-71.52,9.58-39.466,42.9Z" transform="translate(-94.004 -73.483)" fill="#f0f0f0"/>
            <path id="路径_5345" data-name="路径 5345" d="M146.634,228.729,94,180.8l7.442-54.513.055-.06,39.654-43.11.1-.013,71.863-9.627L257,110.29l-.016.138-11.343,98.966-.195.038ZM94.579,180.607,146.8,228.16l98.345-19.206,11.283-98.447-43.48-36.469-71.52,9.58-39.466,42.9Z" transform="translate(-94.004 -73.483)" fill="#f0f0f0" opacity="0.8"/>
            <g id="组_1942" data-name="组 1942" transform="translate(65.649 39.963)">
              <path id="路径_5346" data-name="路径 5346" d="M219.312,153.881l-.815,4.757-.815-4.757Z" transform="translate(-216.138 -151.522)" fill="#f0f0f0"/>
              <path id="路径_5347" data-name="路径 5347" d="M219.558,151.9a2.359,2.359,0,1,1-2.359-2.359A2.359,2.359,0,0,1,219.558,151.9Z" transform="translate(-214.84 -149.539)" fill="#f0f0f0"/>
              <path id="路径_5348" data-name="路径 5348" d="M217.933,150.622c.263.345.055.944-.463,1.339s-1.151.435-1.414.09-.055-.944.463-1.339S217.671,150.278,217.933,150.622Z" transform="translate(-215.344 -149.927)" fill="#f0f0f0" opacity="0.3"/>
            </g>
            <g id="组_1943" data-name="组 1943" transform="translate(111.891 54.902)">
              <path id="路径_5349" data-name="路径 5349" d="M304.428,182.31l-.815,4.757-.815-4.757Z" transform="translate(-301.254 -179.951)" fill="#fff"/>
              <circle id="椭圆_2573" data-name="椭圆 2573" cx="2.359" cy="2.359" r="2.359" fill="#fff"/>
              <path id="路径_5350" data-name="路径 5350" d="M303.05,179.052c.262.344.055.944-.463,1.339s-1.151.435-1.414.09-.055-.944.463-1.339S302.787,178.707,303.05,179.052Z" transform="translate(-300.46 -178.356)" fill="#fff" opacity="0.3"/>
            </g>
            <g id="组_1944" data-name="组 1944" transform="translate(51.687 93.633)">
              <path id="路径_5351" data-name="路径 5351" d="M193.613,256.022l-.815,4.757-.815-4.757Z" transform="translate(-190.439 -253.663)" fill="#f0f0f0"/>
              <circle id="椭圆_2574" data-name="椭圆 2574" cx="2.359" cy="2.359" r="2.359" fill="#f0f0f0"/>
              <path id="路径_5352" data-name="路径 5352" d="M192.235,252.763c.262.345.055.944-.463,1.339s-1.151.435-1.414.09-.055-.944.463-1.339S191.972,252.419,192.235,252.763Z" transform="translate(-189.645 -252.068)" fill="#f0f0f0" opacity="0.3"/>
            </g>
            <g id="组_1945" data-name="组 1945" transform="translate(118.102 85.459)">
              <path id="路径_5353" data-name="路径 5353" d="M315.859,240.466l-.815,4.757-.815-4.757Z" transform="translate(-312.686 -238.107)" fill="#f0f0f0"/>
              <path id="路径_5354" data-name="路径 5354" d="M316.106,238.483a2.359,2.359,0,1,1-2.359-2.359A2.359,2.359,0,0,1,316.106,238.483Z" transform="translate(-311.388 -236.124)" fill="#f0f0f0"/>
              <path id="路径_5355" data-name="路径 5355" d="M314.481,237.208c.262.344.055.944-.463,1.339s-1.151.435-1.414.09-.055-.944.463-1.339S314.218,236.863,314.481,237.208Z" transform="translate(-311.892 -236.512)" fill="#f0f0f0" opacity="0.3"/>
            </g>
          </g>
          <g id="组_1955" data-name="组 1955" transform="translate(164.7 28.614)">
            <g transform="matrix(1, 0, 0, 1, -203.27, -48.31)" filter="url(#路径_5356)">
              <path id="路径_5356-2" data-name="路径 5356" d="M396.626,130.487a18.05,18.05,0,0,1-3.613,10.858,17.478,17.478,0,0,1-2.759,2.923,17.188,17.188,0,0,1-2.991,2.076,18.1,18.1,0,0,1-16.239.628c-.212-.089-.424-.191-.629-.3l-.006-.007a17.32,17.32,0,0,1-3.551-2.335,18.107,18.107,0,0,1-6.44-13.842,18.114,18.114,0,1,1,36.228,0Z" transform="translate(-157.13 -64.06)" fill="#fff"/>
            </g>
            <g id="组_1954" data-name="组 1954" transform="translate(2.848 3.429)">
              <path id="路径_5357" data-name="路径 5357" d="M369.509,149.829l1.7-7.049s1.076-.858,1.144-1.482-.662-4.316-1.13-4.539-3.227.739-3.362,1.528a12.749,12.749,0,0,0,1.173,4.143l-2.787,8.2Z" transform="translate(-365.916 -126.923)" fill="#9d84f4"/>
              <path id="路径_5358" data-name="路径 5358" d="M370.593,152.514l-1.021,9.262a17.385,17.385,0,0,1-3.932-4.714c.63-2.221,1.266-4.217,1.565-5.112.1-.318.159-.5.159-.5l.583.073,2.42.3.3.04Z" transform="translate(-365.64 -133.648)" fill="#9d84f4"/>
              <path id="路径_5359" data-name="路径 5359" d="M378.519,160.865l-1.578,5.861c-.206-.086-.411-.186-.61-.292l-.007-.007a16.829,16.829,0,0,1-3.448-2.268c.126-.285,3.355-7.571,4.561-7.485Z" transform="translate(-368.945 -136.033)" fill="#9d84f4"/>
              <path id="路径_5360" data-name="路径 5360" d="M370.593,152.514l-1.021,9.262a17.385,17.385,0,0,1-3.932-4.714c.63-2.221,1.266-4.217,1.565-5.112.1-.318.159-.5.159-.5l.583.073,2.42.3.3.04Z" transform="translate(-365.64 -133.648)" fill="#9d84f4" opacity="0.3" style="isolation: isolate"/>
              <path id="路径_5361" data-name="路径 5361" d="M378.519,160.865l-1.578,5.861c-.206-.086-.411-.186-.61-.292l-.007-.007a16.829,16.829,0,0,1-3.448-2.268c.126-.285,3.355-7.571,4.561-7.485Z" transform="translate(-368.945 -136.033)" fill="#9d84f4" opacity="0.3" style="isolation: isolate"/>
              <path id="路径_5362" data-name="路径 5362" d="M372.442,151.077l-.556,1.248-3.856-.641.088-.71Z" transform="translate(-366.731 -133.429)" fill="#9d84f4"/>
              <path id="路径_5363" data-name="路径 5363" d="M399.2,132.6c-.45,1.724,2.01,6.478,1.013,15.127s-10.482,8.121-14.745,5.238-3.525-18.529-2.059-21.615S399.2,132.6,399.2,132.6Z" transform="translate(-373.23 -123.961)" fill="#9d84f4"/>
              <g id="组_1947" data-name="组 1947" transform="translate(7.379 20.323)">
                <path id="路径_5364" data-name="路径 5364" d="M400.325,158.39c-.093.252-.173.5-.259.749s-.172.491-.252.73c-.159.478-.312.942-.465,1.392-.3.9-.576,1.764-.835,2.572a16.651,16.651,0,0,1-2.9,2.016,17.562,17.562,0,0,1-15.766.61c-.206-.086-.411-.186-.61-.292.007-.172.007-.352.007-.517s0-.338.007-.5c.007-.5.027-.962.04-1.4.013-.292.027-.577.033-.842.006-.139.013-.265.02-.4.027-.484.047-.921.08-1.333.007-.133.02-.265.027-.391.026-.385.059-.73.086-1.047a9.282,9.282,0,0,1,.637-3.123.707.707,0,0,1,.093-.139c.053-.06.079-.066.079-.066s.265-.027.71-.06c1.174-.1,3.607-.272,5.808-.259a.814.814,0,0,1,.126.007q.438.01.875.04c1.134.06,2.267.159,3.388.3.418.053.835.112,1.253.172q.676.1,1.353.218c.059.014.126.02.186.034a44.981,44.981,0,0,1,4.932,1.127c.451.126.9.259,1.346.4Z" transform="translate(-379.228 -156.089)" fill="#9d84f4"/>
                <path id="路径_5365" data-name="路径 5365" d="M400.313,158.39c0,.007,0,.007-.007.014-.086.245-.172.491-.246.736-.092.246-.172.491-.252.73-.159.478-.312.942-.464,1.392-.3.9-.576,1.764-.835,2.572a16.651,16.651,0,0,1-2.9,2.016,17.562,17.562,0,0,1-15.766.61c-.206-.086-.411-.186-.61-.292l-.007-.007c0-.172.007-.345.013-.511s0-.338.007-.5c.007-.5.027-.962.04-1.4.013-.292.027-.577.033-.842.007-.139.013-.265.02-.4.02-.484.047-.921.08-1.333.007-.133.02-.265.027-.391.026-.385.059-.73.086-1.047a9.278,9.278,0,0,1,.637-3.123.7.7,0,0,1,.093-.139c.053-.06.079-.066.079-.066s.265-.027.71-.06c1.174-.1,3.607-.272,5.808-.259a.814.814,0,0,1,.126.007q.438.01.875.04c1.134.06,2.267.159,3.388.3.418.053.835.112,1.253.172q.676.1,1.353.218c.059.014.126.02.186.034a44.977,44.977,0,0,1,4.933,1.127C399.418,158.111,399.868,158.244,400.313,158.39Z" transform="translate(-379.223 -156.089)" fill="#9d84f4" opacity="0.3" style="isolation: isolate"/>
              </g>
              <path id="路径_5366" data-name="路径 5366" d="M395.045,155.2c3.88.3,4.356,1.477,3.942,2.091s-5.67,5.752-7.252,9.194C391.734,166.488,386.037,154.5,395.045,155.2Z" transform="translate(-376.746 -135.348)" fill="#9d84f4"/>
              <path id="路径_5367" data-name="路径 5367" d="M394.546,155.351c3.84-.492,4.994-2.132,4.994-2.132-2.437-2.3-.412-6.283-.412-6.283l-4.622.863a13.589,13.589,0,0,1,.18,1.946c.035,2.806-1.234,2.833-1.234,2.833C392.641,154.1,394.546,155.351,394.546,155.351Z" transform="translate(-378.25 -131.585)" fill="#9d84f4"/>
              <path id="路径_5368" data-name="路径 5368" d="M395.56,147.8a13.585,13.585,0,0,1,.18,1.946,5.143,5.143,0,0,0,4.442-2.809Z" transform="translate(-379.305 -131.585)" fill="#9d84f4" opacity="0.2" style="isolation: isolate"/>
              <g id="组_1952" data-name="组 1952" transform="translate(9.664)">
                <g id="组_1951" data-name="组 1951" transform="translate(3.014 1.729)">
                  <path id="路径_5369" data-name="路径 5369" d="M395.108,124.72c-4.018-.22-5.43,1.861-5.951,5.985-.651,5.155.294,8.894,5.38,8.064C401.443,137.642,401.782,125.085,395.108,124.72Z" transform="translate(-388.976 -123.161)" fill="#9d84f4"/>
                  <path id="路径_5370" data-name="路径 5370" d="M393.054,135.6a8.519,8.519,0,0,1-1.26,1.6,1.106,1.106,0,0,0,1.034.513Z" transform="translate(-390.263 -128.137)" fill="#9d84f4"/>
                  <g id="组_1948" data-name="组 1948" transform="translate(5.109 6.388)">
                    <path id="路径_5371" data-name="路径 5371" d="M398.672,134.765c-.026.329.131.611.351.628s.419-.236.444-.566-.131-.611-.351-.628S398.7,134.436,398.672,134.765Z" transform="translate(-398.512 -133.885)" fill="#9d84f4"/>
                    <path id="路径_5372" data-name="路径 5372" d="M399.075,133.959l-.695-.337S398.69,134.253,399.075,133.959Z" transform="translate(-398.38 -133.622)" fill="#9d84f4"/>
                  </g>
                  <g id="组_1949" data-name="组 1949" transform="translate(1.016 5.998)">
                    <path id="路径_5373" data-name="路径 5373" d="M391.139,134.049c-.026.33.131.611.351.628s.419-.236.445-.566-.131-.611-.352-.628S391.164,133.719,391.139,134.049Z" transform="translate(-390.978 -133.169)" fill="#9d84f4"/>
                    <path id="路径_5374" data-name="路径 5374" d="M391.541,133.242l-.7-.337S391.156,133.536,391.541,133.242Z" transform="translate(-390.846 -132.905)" fill="#9d84f4"/>
                  </g>
                  <path id="路径_5375" data-name="路径 5375" d="M400.581,130.868a.187.187,0,0,1-.151-.077,1.915,1.915,0,0,0-1.545-.627.184.184,0,0,1-.2-.172.187.187,0,0,1,.172-.2,2.267,2.267,0,0,1,1.874.779.186.186,0,0,1-.151.3Z" transform="translate(-393.41 -125.484)" fill="#9d84f4"/>
                  <path id="路径_5376" data-name="路径 5376" d="M390.532,129.734a.187.187,0,0,1-.1-.347,2.06,2.06,0,0,1,1.788-.253.187.187,0,0,1-.147.343,1.7,1.7,0,0,0-1.452.231A.185.185,0,0,1,390.532,129.734Z" transform="translate(-389.601 -125.139)" fill="#9d84f4"/>
                  <g id="组_1950" data-name="组 1950" transform="translate(3.065 10.582)">
                    <path id="路径_5377" data-name="路径 5377" d="M394.617,141.949a10.228,10.228,0,0,1,.392,1.421c.087,0,.173,0,.26-.01,1.176-.054,1.7-.468,1.932-.91a1.522,1.522,0,0,0,.154-.7,1.459,1.459,0,0,0-.053-.407,5.547,5.547,0,0,1-2.286.583C394.772,141.947,394.617,141.949,394.617,141.949Z" transform="translate(-394.617 -141.341)" fill="#9d84f4"/>
                    <path id="路径_5378" data-name="路径 5378" d="M395.354,141.925l.127.416a3.5,3.5,0,0,0,2.212-.592,1.462,1.462,0,0,0-.053-.407A5.547,5.547,0,0,1,395.354,141.925Z" transform="translate(-394.954 -141.341)" fill="#9d84f4"/>
                    <path id="路径_5379" data-name="路径 5379" d="M395.818,144.293c1.176-.054,1.7-.468,1.932-.91a3.8,3.8,0,0,0-1.294.319A1.419,1.419,0,0,0,395.818,144.293Z" transform="translate(-395.165 -142.274)" fill="#9d84f4"/>
                  </g>
                  <path id="路径_5380" data-name="路径 5380" d="M399.343,130.436s-1.7-3.4-1.274-5.938c0,0-7.785-3.689-8.62,4.372,0,0-.385-7.22,6.531-7s6.334,10.323,2.6,13.138C398.581,135.007,400.392,132.565,399.343,130.436Z" transform="translate(-389.19 -121.864)" fill="#9d84f4"/>
                  <path id="路径_5381" data-name="路径 5381" d="M406.34,137.85a1.766,1.766,0,0,1,1.986-1.507c1.238.2,1.691,2.793-1.44,3.238C406.437,139.645,406.21,139.2,406.34,137.85Z" transform="translate(-396.889 -128.466)" fill="#9d84f4"/>
                </g>
                <path id="路径_5382" data-name="路径 5382" d="M394.25,122.643a15.255,15.255,0,0,0,2.343,9.458,5.394,5.394,0,0,1-.336,6.405s4.012-2.555,4.152-6.405c0,0,3.316-9.208-3.566-11.691,0,0-.028-2.074-4.514-1.679s-8.1,4.24-8.786,9.141,1.87,10.368,1.87,10.368S382.7,120.871,394.25,122.643Z" transform="translate(-383.427 -118.681)" fill="#9d84f4"/>
                <path id="路径_5383" data-name="路径 5383" d="M403.16,125.987a11.6,11.6,0,0,0-.334,3.562,17.633,17.633,0,0,0,.578,3.595,15.219,15.219,0,0,0,1.344,3.4,9.808,9.808,0,0,0,2.274,2.857,9.874,9.874,0,0,1-2.391-2.789,15.428,15.428,0,0,1-1.488-3.387,17.967,17.967,0,0,1-.723-3.643,11.965,11.965,0,0,1,.222-3.754Z" transform="translate(-392.078 -121.943)" fill="#9d84f4"/>
              </g>
              <g id="组_1953" data-name="组 1953" transform="translate(23.762 22.624)">
                <path id="路径_5384" data-name="路径 5384" d="M414.96,162.93a16.939,16.939,0,0,1-2.678,2.838,16.65,16.65,0,0,1-2.9,2.016c.06-.232.139-.464.218-.7a17.962,17.962,0,0,1,2.9-4.966,20.08,20.08,0,0,1,1.585-1.784l.014-.014A4.585,4.585,0,0,1,414.96,162.93Z" transform="translate(-409.378 -160.324)" fill="#9d84f4"/>
                <path id="路径_5385" data-name="路径 5385" d="M414.96,162.93a16.939,16.939,0,0,1-2.678,2.838,16.65,16.65,0,0,1-2.9,2.016c.06-.232.139-.464.218-.7a17.962,17.962,0,0,1,2.9-4.966,20.08,20.08,0,0,1,1.585-1.784l.014-.014A4.585,4.585,0,0,1,414.96,162.93Z" transform="translate(-409.378 -160.324)" fill="#9d84f4" opacity="0.3" style="isolation: isolate"/>
              </g>
            </g>
          </g>
          <g id="组_1956" data-name="组 1956" transform="translate(130.761)">
            <g transform="matrix(1, 0, 0, 1, -169.33, -19.7)" filter="url(#椭圆_2576)">
              <circle id="椭圆_2576-2" data-name="椭圆 2576" cx="9.886" cy="9.886" r="9.886" transform="translate(169.33 19.7)" fill="#c9beff"/>
            </g>
            <path id="路径_5387" data-name="路径 5387" d="M312.887,75.411a9.319,9.319,0,0,1-14.013-.4,1.039,1.039,0,0,1,.147-.049,2.067,2.067,0,0,1,.447-.467.557.557,0,0,1,0-.078l.164-.029a1.954,1.954,0,0,1,1.02-.267,2.689,2.689,0,0,1,.3.016l.582-.106s0,.058-.012.16c.738.058,1.861.127,3.14.214a1.658,1.658,0,0,0,.578-.815,2.894,2.894,0,0,0,.111-1.074,3.231,3.231,0,0,1-1.3-.344,3.339,3.339,0,0,1-1.61-1.832,3.107,3.107,0,0,1-.1-.336,8.439,8.439,0,0,1-.049-3.521v-.008a.744.744,0,0,1-.1,0,.1.1,0,0,1-.082-.1c0-.008,0-.017,0-.024a.109.109,0,0,1,.123-.091c.009,0,.016,0,.029,0a7.15,7.15,0,0,1,.156-2.107,2.506,2.506,0,0,1-.016-2.127c.348-.5.078-.229.991-.307s.361-.889.943-.9.463.356,1.176.627.451-.541,1.263-.619.926.541,1.508.7a2.772,2.772,0,0,0,1.123,0c.426,0,.463,1.238.643,1.467s.48-.115.865.521a.579.579,0,0,1,.07.3,6.653,6.653,0,0,1-1.024,2.381,11.668,11.668,0,0,1-.209,1.156,1.064,1.064,0,0,1,.184,1.229,2.3,2.3,0,0,1-.9.963,6.677,6.677,0,0,1-.586,1.025,7.816,7.816,0,0,0,.1,4.164A30.979,30.979,0,0,1,312.887,75.411Z" transform="translate(-296.171 -59.183)" fill="#a492fc"/>
          </g>
          <g id="组_1957" data-name="组 1957" transform="translate(62.973 148.622)">
            <g transform="matrix(1, 0, 0, 1, -101.54, -168.32)" filter="url(#椭圆_2578)">
              <circle id="椭圆_2578-2" data-name="椭圆 2578" cx="9.886" cy="9.886" r="9.886" transform="translate(101.54 182.3) rotate(-45)" fill="#c9beff"/>
            </g>
            <path id="路径_5389" data-name="路径 5389" d="M193,366.746a9.318,9.318,0,0,1-11.681.918c.676-.094,1.389-.18,2.114-.254a8.976,8.976,0,0,0,.119-4.807,8,8,0,0,1-.672-1.185,2.594,2.594,0,0,1-1.041-1.11,1.23,1.23,0,0,1,.209-1.422,10.936,10.936,0,0,1-.3-2.242l-.041.02a3.325,3.325,0,0,1,2.053-3.955c2.8-1.061,5.636.836,5.636.836s.607-1.131,1.332-.836c.615.25.287,1.053.172,1.3a1.494,1.494,0,0,1,.635-.554c.5-.225,1.181.406-.356,1.943a2.243,2.243,0,0,1-.549.394,7.562,7.562,0,0,1,.041,2.1,9.7,9.7,0,0,1-.058,4.062,2.8,2.8,0,0,1-.119.39,3.812,3.812,0,0,1-1.861,2.114,3.644,3.644,0,0,1-1.5.4,3.413,3.413,0,0,0,.127,1.238,1.945,1.945,0,0,0,.668.943c1.48-.1,2.775-.176,3.627-.246-.008-.123-.016-.184-.016-.184l.673.123A2.829,2.829,0,0,1,193,366.746Z" transform="translate(-172.616 -345.999)" fill="#a492fc"/>
          </g>
          <g id="组_1958" data-name="组 1958" transform="translate(24.719 52.17)">
            <g transform="matrix(1, 0, 0, 1, -63.29, -71.87)" filter="url(#路径_5390)">
              <path id="路径_5390-2" data-name="路径 5390" d="M109.667,166.217a9.322,9.322,0,1,1-9.324-9.32A9.291,9.291,0,0,1,109.667,166.217Z" transform="translate(-27.74 -85.03)" fill="#c9beff"/>
            </g>
            <path id="路径_5391" data-name="路径 5391" d="M109.256,174.25a9.321,9.321,0,0,1-12.443,1.328l3.7-1.14c.07.078.135.164.2.254.155-.029.316-.061.475-.09.295-.053.59-.094.889-.139a2.764,2.764,0,0,0,.369-1.144c-.311.016-.509.02-.509.02.1-.368-.447-1.135-.447-1.135l-.184,1.012a2.013,2.013,0,0,1-.623-.217c-.246-.155-.569-1.258-.569-1.258s-.639,1.074-.779,1.32-.512,0-.512,0a3.754,3.754,0,0,1,.061-1.89.643.643,0,0,0-.651-.934,3.325,3.325,0,0,1-.246,1.057,3.25,3.25,0,0,0-.25,1.381c0,.39.033.664-.246.664s-.311-.246-.283-.664-.4-.824-.152-1.164.061-1.275.061-1.275c-.156.651-.869.623-.992,1.086s.34,1.119.123,1.352-.59,0-.59,0,.312-.512.095-.811-.562-.447-.406-1.053.434-.6.344-1.275-.406-.631,0-.881a3.317,3.317,0,0,0,.93-1.939c0-.512-.217-1.689.651-2.1s1.086-.734.931-1.828.68-1.016,1.738-.8c0,0,.524-.836,1.02-.68s.869.061.975-.217,1.476-.25,1.68,0a1.493,1.493,0,0,0,1.39.246c.447-.184,1.635.557,1.6,1.053s-.029.779.611,1.062.758.43,1.037,1.541-.185,1.557.373,1.987.5,2.144.529,2.672,0,1.115,0,1.115l-.155.045c-.156.041-.279-.574-.25-1.029.033-.434-.943-1.07-1.024-1.123.02.045.2.422.311.722a5.438,5.438,0,0,1,.123,1.664c-.029.529.59.82.59.82l-.68.34a3.347,3.347,0,0,1-.348-1.713,1.249,1.249,0,0,0-.336-1.111v1.111s-.184.4-.463.926.217.685.3.963-.611.3-.611.3l-.127-.668-.234.668a3.643,3.643,0,0,1-1.344.41,2.329,2.329,0,0,0,.271,1.062c.221-.012.442-.025.664-.033.438,0,.893,0,1.332.021h.008C107.965,174.16,108.707,174.209,109.256,174.25Z" transform="translate(-92.981 -158.721)" fill="#a492fc"/>
          </g>
          <g id="组_1963" data-name="组 1963" transform="translate(54.502 1.325)">
            <g transform="matrix(1, 0, 0, 1, -93.07, -21.02)" filter="url(#椭圆_2582)">
              <circle id="椭圆_2582-2" data-name="椭圆 2582" cx="16.582" cy="16.582" r="16.582" transform="translate(93.07 21.02)" fill="#fff"/>
            </g>
            <g id="_Group_" data-name="&lt;Group&gt;" transform="translate(3.985 3.552)">
              <path id="路径_5396" data-name="路径 5396" d="M194.309,111.774c.016.081.027.158.037.234-.043-.054-.087-.114-.13-.174a14.672,14.672,0,0,1-1.783,1c.142-1.1.3-2.1.44-2.928.125-.761.239-1.385.327-1.825s.136-.7.146-.739v-.005a2.112,2.112,0,0,1,.57.185,7.062,7.062,0,0,1,2.451,2.668A15,15,0,0,1,194.309,111.774Z" transform="translate(-172.973 -85.308)" fill="#9d84f4"/>
              <g id="组_1960" data-name="组 1960" transform="translate(0 21.959)">
                <path id="路径_5397" data-name="路径 5397" d="M178.316,111.952c-.043-.054-.087-.114-.13-.174a14.674,14.674,0,0,1-1.783,1,16.025,16.025,0,0,1-19.069-4.1c.278-.065.56-.125.843-.179l.086-.016.168-.033c.733-.141,1.483-.266,2.233-.375a.018.018,0,0,1,.016-.005c.327-.049.657-.092.983-.136.435-.06.87-.109,1.3-.158a.658.658,0,0,1,.1-.011c.994-.114,1.988-.206,2.956-.277.32-.022.635-.043.945-.06h.006c.407-.027.809-.054,1.206-.076s.793-.038,1.174-.054l.473-.016c.473-.016.928-.027,1.363-.038,1.429-.033,2.684-.033,3.684-.022.234.005.456.005.663.011.375.005.7.016.957.027.532.011.825.027.825.027.065.239.13.489.191.744v.005c.277,1.114.532,2.352.771,3.683C178.294,111.8,178.3,111.875,178.316,111.952Z" transform="translate(-156.943 -107.211)" fill="#9d84f4"/>
                <path id="路径_5398" data-name="路径 5398" d="M177.987,111.95c-.043-.054-.087-.114-.13-.174a14.673,14.673,0,0,1-1.783,1,16.025,16.025,0,0,1-19.069-4.1l-.391.081c.126-.027.255-.06.386-.087.283-.06.564-.12.848-.174l.086-.016.168-.033c.733-.141,1.483-.266,2.233-.375a.018.018,0,0,1,.016-.005c.327-.049.657-.092.983-.136.435-.06.87-.109,1.3-.158a.658.658,0,0,1,.1-.011c.994-.114,1.988-.206,2.955-.277l.939-.065c.413-.027.815-.049,1.217-.071s.793-.038,1.173-.054l.473-.016c.467-.016.923-.033,1.358-.043,1.434-.027,2.689-.027,3.688-.022.239.005.456.005.663.011.369.005.685.016.946.022.537.016.836.033.836.033v.005c.065.239.13.489.191.744v.005c.277,1.114.532,2.352.771,3.683C177.965,111.8,177.976,111.874,177.987,111.95Z" transform="translate(-156.614 -107.21)" fill="#9d84f4" opacity="0.2" style="isolation: isolate"/>
              </g>
              <path id="路径_5399" data-name="路径 5399" d="M167.648,100.383c1.764,1.6,6.085,1.01,6.085,1.01s2.7-.738,2.131-1.581a3,3,0,0,1-2.676-1.953,4.619,4.619,0,0,1-.161-1.814,9.656,9.656,0,0,1,.134-1.013l-5.342-3.956C168.518,93.687,169.375,98.49,167.648,100.383Z" transform="translate(-161.653 -77.881)" fill="#9d84f4"/>
              <path id="路径_5400" data-name="路径 5400" d="M170.234,95.7a4.528,4.528,0,0,0,4.136,4.269,4.619,4.619,0,0,1-.161-1.814Z" transform="translate(-162.834 -79.995)" fill="#9d84f4" opacity="0.2" style="isolation: isolate"/>
              <g id="组_1962" data-name="组 1962" transform="translate(3.864)">
                <path id="路径_5401" data-name="路径 5401" d="M183.387,76.668s.758,4.989-1.89,6.908-2.648-7.369-2.648-7.369Z" transform="translate(-170.633 -71.091)" fill="#9d84f4"/>
                <path id="路径_5402" data-name="路径 5402" d="M168.689,86.81a4.528,4.528,0,0,0,5.2,1.755,5.11,5.11,0,0,0,3.117-2.823c1.3-3.049,1.718-8.382-1.506-10.381a4.911,4.911,0,0,0-7.5,3.7C167.606,82.624,167.205,84.7,168.689,86.81Z" transform="translate(-165.512 -70.36)" fill="#9d84f4"/>
                <path id="路径_5403" data-name="路径 5403" d="M177.858,85.915c-.069.282.061.545.253.578s.38-.178.43-.464-.066-.547-.253-.578S177.91,85.625,177.858,85.915Z" transform="translate(-170.172 -75.312)" fill="#9d84f4"/>
                <path id="路径_5404" data-name="路径 5404" d="M183.848,86.938c-.069.282.066.547.253.578s.38-.178.43-.463-.066-.547-.253-.579S183.895,86.665,183.848,86.938Z" transform="translate(-172.907 -75.779)" fill="#9d84f4"/>
                <path id="路径_5405" data-name="路径 5405" d="M181.518,87.266a10.41,10.41,0,0,0,.955,2.7,1.69,1.69,0,0,1-1.427.022Z" transform="translate(-171.636 -76.142)" fill="#9d84f4"/>
                <path id="路径_5406" data-name="路径 5406" d="M176.25,83.4a.179.179,0,0,0,.175-.038,1.383,1.383,0,0,1,1.178-.381.17.17,0,1,0,.081-.331h0a1.7,1.7,0,0,0-1.492.461.17.17,0,0,0-.015.241l0,0A.269.269,0,0,0,176.25,83.4Z" transform="translate(-169.393 -74.02)" fill="#9d84f4"/>
                <path id="路径_5407" data-name="路径 5407" d="M185.9,84.567a.168.168,0,0,0,.1.024.17.17,0,0,0,.119-.209v0a1.7,1.7,0,0,0-1.055-1.158.17.17,0,0,0-.212.114h0a.175.175,0,0,0,.114.213h0a1.381,1.381,0,0,1,.821.93A.175.175,0,0,0,185.9,84.567Z" transform="translate(-173.371 -74.291)" fill="#9d84f4"/>
                <path id="路径_5408" data-name="路径 5408" d="M170.4,75.5v1.592a1.179,1.179,0,0,0-.768,1.4,4.3,4.3,0,0,1-1.765,4.03s.039-.576-.461-.5-.729,3.07.039,4.6a9.346,9.346,0,0,1-1.689-4.682c-.391-2.981-.189-5.4.542-6.447Z" transform="translate(-164.565 -70.769)" fill="#9d84f4"/>
                <path id="路径_5409" data-name="路径 5409" d="M164.5,85.925a3.413,3.413,0,0,0,1.637,2.03c1.054.566,1.842-.315,1.771-1.447-.073-1.006-.7-2.543-1.866-2.631A1.523,1.523,0,0,0,164.5,85.925Z" transform="translate(-164.045 -74.592)" fill="#9d84f4"/>
                <path id="路径_5410" data-name="路径 5410" d="M169.563,73.115a1.636,1.636,0,0,0,2.039.275s1.137.947,2.064.275a2.1,2.1,0,0,0,1.339.962.726.726,0,0,0,.835-.756s1.315.756,1.8.4-.265-1.766-.265-1.766.618-.334.221-1.469-2.234-.871-2.234-.871A2.892,2.892,0,0,0,174.151,68a1.245,1.245,0,0,0-2.044.265s-1.241-1.678-2.778-1.457-1.361,1.281-1.361,1.281-1.766-1.1-2.561,0,0,1.634,0,1.634-1.766.593-1.678,1.8.994,1.028.994,1.028-.508.574.64,1.06,2.226-.706,2.226-.706a.784.784,0,0,0,.379,1.148C168.795,74.516,169.563,73.115,169.563,73.115Z" transform="translate(-163.726 -66.79)" fill="#9d84f4"/>
                <g id="组_1961" data-name="组 1961" transform="translate(6.812 13.134)">
                  <path id="路径_5411" data-name="路径 5411" d="M178.789,92.745a10.16,10.16,0,0,0-1,1.08c-.077-.042-.153-.083-.226-.129-1.019-.591-1.3-1.2-1.3-1.7a1.517,1.517,0,0,1,.187-.694,1.466,1.466,0,0,1,.235-.337,5.549,5.549,0,0,0,1.759,1.572C178.652,92.671,178.789,92.745,178.789,92.745Z" transform="translate(-176.264 -90.966)" fill="#9d84f4"/>
                  <path id="路径_5412" data-name="路径 5412" d="M178.6,92.538l-.3.311c-.958-.558-1.558-1.08-1.69-1.545a1.466,1.466,0,0,1,.235-.337A5.548,5.548,0,0,0,178.6,92.538Z" transform="translate(-176.421 -90.966)" fill="#9d84f4"/>
                  <path id="路径_5413" data-name="路径 5413" d="M177.559,94.563c-1.019-.591-1.3-1.2-1.3-1.7a3.8,3.8,0,0,1,1,.88A1.422,1.422,0,0,1,177.559,94.563Z" transform="translate(-176.264 -91.833)" fill="#9d84f4"/>
                </g>
              </g>
              <path id="路径_5414" data-name="路径 5414" d="M169.666,106.293s-6.232-4.234-8.216-4.472-1.631,2.236-1.631,2.236-1.531,0-.942,1.884,9.053,2.923,12.181,1.992,4.985-2.685,4.469-4.34-1.964-.237-1.964-.237-.841-1.559-2.052-1.194S169.666,106.293,169.666,106.293Z" transform="translate(-157.586 -82.782)" fill="#9d84f4"/>
            </g>
          </g>
          <g id="组_1967" data-name="组 1967" transform="translate(11.439 100.815)">
            <g transform="matrix(1, 0, 0, 1, -50.01, -120.51)" filter="url(#椭圆_2583)">
              <circle id="椭圆_2583-2" data-name="椭圆 2583" cx="15.678" cy="15.678" r="15.678" transform="translate(50.01 120.51)" fill="#fff"/>
            </g>
            <g id="组_1966" data-name="组 1966" transform="translate(4.62 3.963)">
              <path id="路径_5417" data-name="路径 5417" d="M97.166,280.732c-.25.206-.511.407-.782.6a14.718,14.718,0,0,1-2.347,1.385,15.084,15.084,0,0,1-14.071-.614,14.114,14.114,0,0,1-1.646-1.114h-.005a.946.946,0,0,1-.081-.071c.011-.038.016-.065.027-.1v-.005c.13-.489.255-1,.369-1.532.163-.717.31-1.461.44-2.238a33.1,33.1,0,0,0,.456-6.4c-.266-8.013,1.19-10.953,4.466-12.523.147-.071.3-.147.462-.212a4.389,4.389,0,0,1,2.309-.288h.005c2.8.38,5.237,2.993,5.237,2.993a18.443,18.443,0,0,1,1.282,2.168A36.127,36.127,0,0,1,97.051,276.6v.005A40.767,40.767,0,0,1,97.166,280.732Z" transform="translate(-76.521 -257.316)" fill="#9d84f4"/>
              <path id="路径_5418" data-name="路径 5418" d="M95.613,291.659v-.005a4.529,4.529,0,0,0-1.581-.826s-3.195-.31-5.971-.288c-.3.011-.614.027-.918.043-1.423.076-2.847.223-4.254.435-.413.06-.826.125-1.233.2a40.526,40.526,0,0,0-4.026.875c-.636.168-1.266.353-1.9.554a5.176,5.176,0,0,0-.652,1.749,13.436,13.436,0,0,0,1.711,1.576.94.94,0,0,0,.081.071h.005a14.111,14.111,0,0,0,1.646,1.114,15.084,15.084,0,0,0,14.071.614,14.714,14.714,0,0,0,2.347-1.385c.272-.19.532-.391.782-.6a15.191,15.191,0,0,0,2.146-2.157A20.786,20.786,0,0,0,95.613,291.659Z" transform="translate(-75.082 -272.372)" fill="#9d84f4"/>
              <path id="路径_5419" data-name="路径 5419" d="M95.613,291.659v-.005a4.529,4.529,0,0,0-1.581-.826s-3.195-.31-5.971-.288c-.3.011-.614.027-.918.043-1.423.076-2.847.223-4.254.435-.413.06-.826.125-1.233.2a40.526,40.526,0,0,0-4.026.875c-.636.168-1.266.353-1.9.554a5.176,5.176,0,0,0-.652,1.749,13.436,13.436,0,0,0,1.711,1.576.94.94,0,0,0,.081.071h.005a14.111,14.111,0,0,0,1.646,1.114,15.084,15.084,0,0,0,14.071.614,14.714,14.714,0,0,0,2.347-1.385c.272-.19.532-.391.782-.6a15.191,15.191,0,0,0,2.146-2.157A20.786,20.786,0,0,0,95.613,291.659Z" transform="translate(-75.082 -272.372)" fill="#9d84f4" opacity="0.2" style="isolation: isolate"/>
              <path id="路径_5420" data-name="路径 5420" d="M92.963,289.867c-3.518-.451-4.576-1.956-4.576-1.956,1.438-1.354,1.177-3.355.809-4.6a7.121,7.121,0,0,0-.434-1.151L93,282.95a12.159,12.159,0,0,0-.164,1.784,5.363,5.363,0,0,0,.12,1.31c.288,1.266,1.009,1.283,1.009,1.283C94.707,288.717,92.963,289.867,92.963,289.867Z" transform="translate(-81.159 -268.544)" fill="#9d84f4"/>
              <path id="路径_5421" data-name="路径 5421" d="M93.15,284.734a5.362,5.362,0,0,0,.12,1.31,5.846,5.846,0,0,1-3.757-2.735,7.121,7.121,0,0,0-.434-1.151l4.235.792A12.162,12.162,0,0,0,93.15,284.734Z" transform="translate(-81.475 -268.544)" fill="#9d84f4" opacity="0.2" style="isolation: isolate"/>
              <g id="组_1965" data-name="组 1965" transform="translate(3.916)">
                <path id="路径_5422" data-name="路径 5422" d="M91.114,262.029c3.682.136,4.8,2.152,4.924,5.958.161,4.755-1.015,8.086-5.583,6.9C84.252,273.281,85,261.8,91.114,262.029Z" transform="translate(-84.053 -259.35)" fill="#9d84f4"/>
                <path id="路径_5423" data-name="路径 5423" d="M99.982,272.456A7.8,7.8,0,0,0,101,274.023a1.012,1.012,0,0,1-.986.38Z" transform="translate(-90.37 -264.113)" fill="#9d84f4"/>
                <path id="路径_5424" data-name="路径 5424" d="M92.819,267.576a.19.19,0,0,1-.127-.047.193.193,0,0,1-.018-.272,2.1,2.1,0,0,1,1.794-.56.192.192,0,0,1-.064.379,1.74,1.74,0,0,0-1.442.435A.191.191,0,0,1,92.819,267.576Z" transform="translate(-87.011 -261.472)" fill="#9d84f4"/>
                <path id="路径_5425" data-name="路径 5425" d="M102.192,267.315a.193.193,0,0,1-.112-.037,1.536,1.536,0,0,0-1.285-.33.192.192,0,0,1-.119-.366,1.9,1.9,0,0,1,1.629.384.193.193,0,0,1-.112.349Z" transform="translate(-90.627 -261.408)" fill="#9d84f4"/>
                <g id="组_1964" data-name="组 1964" transform="translate(6.56 10.94)">
                  <path id="路径_5426" data-name="路径 5426" d="M96.855,278.016a9.291,9.291,0,0,0-.478,1.263c-.079-.009-.158-.018-.236-.031-1.068-.148-1.515-.57-1.686-.992a1.389,1.389,0,0,1-.082-.653,1.353,1.353,0,0,1,.083-.367,5.078,5.078,0,0,0,2.035.724C96.714,278,96.855,278.016,96.855,278.016Z" transform="translate(-94.366 -277.236)" fill="#9d84f4"/>
                  <path id="路径_5427" data-name="路径 5427" d="M96.5,277.96l-.15.369a3.206,3.206,0,0,1-1.967-.725,1.354,1.354,0,0,1,.083-.367A5.078,5.078,0,0,0,96.5,277.96Z" transform="translate(-94.373 -277.236)" fill="#9d84f4"/>
                  <path id="路径_5428" data-name="路径 5428" d="M96.218,280.106c-1.068-.148-1.515-.57-1.686-.992a3.483,3.483,0,0,1,1.153.4A1.3,1.3,0,0,1,96.218,280.106Z" transform="translate(-94.442 -278.094)" fill="#9d84f4"/>
                </g>
                <path id="路径_5429" data-name="路径 5429" d="M86.064,266.843s1.834-2.963,1.66-5.308c0,0,7.409-2.711,7.494,4.71,0,0,.957-6.552-5.369-6.933s-6.642,8.882-3.475,11.763C86.375,271.075,84.929,268.7,86.064,266.843Z" transform="translate(-83.259 -258.105)" fill="#9d84f4"/>
                <path id="路径_5430" data-name="路径 5430" d="M86.277,273.355a1.618,1.618,0,0,0-1.685-1.541c-1.146.083-1.777,2.405,1.041,3.074C86.037,274.984,86.282,274.594,86.277,273.355Z" transform="translate(-82.899 -263.818)" fill="#9d84f4"/>
                <path id="路径_5431" data-name="路径 5431" d="M87.283,257.345c1.992-.554,7.3-.627,8.556,4.868l-.737.369a11.771,11.771,0,0,0-3.983-1.18,9.094,9.094,0,0,0-1.032-1.475,8.258,8.258,0,0,1,0,1.4s-3.465.507-5.016,1.918c-2.434,2.213-2.582,3.614-2.582,3.614S80.8,259.146,87.283,257.345Z" transform="translate(-82.291 -257.1)" fill="#9d84f4"/>
                <path id="路径_5432" data-name="路径 5432" d="M100.193,262.231a.133.133,0,0,1-.126-.091,6.422,6.422,0,0,0-3.2-3.957,8.782,8.782,0,0,0-5.994-.238.131.131,0,0,1-.169-.081.133.133,0,0,1,.081-.169,9.068,9.068,0,0,1,6.2.25,6.68,6.68,0,0,1,3.339,4.112.132.132,0,0,1-.084.167A.128.128,0,0,1,100.193,262.231Z" transform="translate(-86.128 -257.169)" fill="#9d84f4"/>
                <path id="路径_5433" data-name="路径 5433" d="M93.991,271.535s.862-.733,1.271.253A2.574,2.574,0,0,0,93.991,271.535Z" transform="translate(-87.634 -263.573)" fill="#9d84f4"/>
                <path id="路径_5434" data-name="路径 5434" d="M101.531,272.3s.478-1,1.112-.292A2.474,2.474,0,0,0,101.531,272.3Z" transform="translate(-91.078 -263.793)" fill="#9d84f4"/>
              </g>
            </g>
          </g>
          <g id="组_1971" data-name="组 1971" transform="translate(144.536 114.412)">
            <g transform="matrix(1, 0, 0, 1, -183.1, -134.11)" filter="url(#椭圆_2584)">
              <circle id="椭圆_2584-2" data-name="椭圆 2584" cx="19.43" cy="19.43" r="19.43" transform="translate(183.1 161.59) rotate(-45)" fill="#fff"/>
            </g>
            <g id="_Group_2" data-name="&lt;Group&gt;" transform="translate(10.165 11.873)">
              <path id="路径_5436" data-name="路径 5436" d="M350.466,321.8a9.812,9.812,0,0,1-1.168,1.413l-1.63,7.709-1.065,5.031a19.01,19.01,0,0,1-3.33-4.428c.13-.408.272-.831.407-1.26,1.152-3.575,2.477-7.715,2.575-8.122.174-.728-.462-4.3-.315-4.955s3.406-1.423,4.113-1.413S350.705,321.338,350.466,321.8Z" transform="translate(-342.578 -306.942)" fill="#9d84f4"/>
              <path id="路径_5437" data-name="路径 5437" d="M352.43,342.321a.1.1,0,0,1-.005.027l-.685,7.025-.239,2.4c-.3-.141-.608-.288-.907-.44v-.005a19.112,19.112,0,0,1-7.9-7.774c-.25-.467-.483-.951-.7-1.44l1.1.179,3.988.657.858.141-1.005,4.873S350.593,342.876,352.43,342.321Z" transform="translate(-341.993 -318.972)" fill="#9d84f4"/>
              <path id="路径_5438" data-name="路径 5438" d="M352.43,342.321a.1.1,0,0,1-.005.027l-.685,7.025-.239,2.4c-.3-.141-.608-.288-.907-.44v-.005a19.112,19.112,0,0,1-7.9-7.774c-.25-.467-.483-.951-.7-1.44l1.1.179,3.988.657.858.141-1.005,4.873S350.593,342.876,352.43,342.321Z" transform="translate(-341.993 -318.972)" fill="#9d84f4" opacity="0.3"/>
              <g id="组_1968" data-name="组 1968" transform="translate(8.6 21.891)">
                <path id="路径_5439" data-name="路径 5439" d="M383.406,342c-.255.511-.538,1.005-.837,1.489-.234.375-.478.744-.744,1.1a18.905,18.905,0,0,1-3.939,4.015c-.342.261-.7.505-1.059.744a18.856,18.856,0,0,1-18.1,1.369c-.3-.141-.608-.288-.907-.44v-.005a62.073,62.073,0,0,1,1.831-8.98.1.1,0,0,0,.005-.027,39.239,39.239,0,0,1,5.976-1.217c.033,0,.06-.005.092-.005h.005a75.66,75.66,0,0,1,8.742-.185h.027a41.528,41.528,0,0,1,6.025.6A16.528,16.528,0,0,1,383.406,342Z" transform="translate(-357.823 -339.811)" fill="#9d84f4"/>
                <path id="路径_5440" data-name="路径 5440" d="M383.406,342c-.255.511-.538,1.005-.837,1.489-.234.375-.478.744-.744,1.1a18.905,18.905,0,0,1-3.939,4.015c-.342.261-.7.505-1.059.744a18.856,18.856,0,0,1-18.1,1.369c-.3-.141-.608-.288-.907-.44v-.005a62.073,62.073,0,0,1,1.831-8.98.1.1,0,0,0,.005-.027,39.239,39.239,0,0,1,5.976-1.217c.033,0,.06-.005.092-.005h.005a75.66,75.66,0,0,1,8.742-.185h.027a41.528,41.528,0,0,1,6.025.6A16.528,16.528,0,0,1,383.406,342Z" transform="translate(-357.823 -339.811)" fill="#9d84f4" opacity="0.3"/>
                <path id="路径_5441" data-name="路径 5441" d="M377.887,350.223c-.342.261-.7.505-1.059.744a18.856,18.856,0,0,1-18.1,1.369c-.3-.141-.608-.288-.907-.44v-.005c.027-.158.049-.315.071-.467a17.542,17.542,0,0,1,1.076-1.489,50.692,50.692,0,0,1,6.069-6.2,3.455,3.455,0,0,0,2.113,1.1c1.782.348,3.819-.484,5.509-1.489a41.385,41.385,0,0,1,2.961,3.265,17.238,17.238,0,0,1,2,3.01Q377.773,349.93,377.887,350.223Z" transform="translate(-357.823 -341.425)" fill="#9d84f4" opacity="0.8"/>
              </g>
              <path id="路径_5442" data-name="路径 5442" d="M380.9,331.575a9.163,9.163,0,0,1-6.433,2.919c-3.658.161-2.435-2.73-2.435-2.73a3.5,3.5,0,0,0,2.463-1.746,5.1,5.1,0,0,0,.034-3.4l-.067-.25,5.343-4.759C379.313,324.475,378.868,329.713,380.9,331.575Z" transform="translate(-355.624 -309.608)" fill="#9d84f4"/>
              <path id="路径_5443" data-name="路径 5443" d="M381.165,327.169c-.284,1.835-2.513,3.642-4.432,4.209a5.1,5.1,0,0,0,.034-3.4l4.426-3.392A6.934,6.934,0,0,1,381.165,327.169Z" transform="translate(-357.859 -310.968)" fill="#9d84f4" opacity="0.2" style="isolation: isolate"/>
              <g id="组_1970" data-name="组 1970" transform="translate(13.976)">
                <path id="路径_5444" data-name="路径 5444" d="M374.739,308.8c1.269,1.432.12,3.017-4.055,4.892-.942-2.188-.271-5.8,1.077-6.4S373.632,307.558,374.739,308.8Z" transform="translate(-368.872 -302.977)" fill="#9d84f4"/>
                <path id="路径_5445" data-name="路径 5445" d="M379.452,312.819c-1.123,3.706-1.594,5.929-3.948,7.411-3.544,2.225-7.779-.6-7.786-4.565,0-3.563,1.832-9.029,5.866-9.65a5.282,5.282,0,0,1,5.868,6.8Z" transform="translate(-367.718 -302.454)" fill="#9d84f4"/>
                <path id="路径_5446" data-name="路径 5446" d="M377.9,317.5c-.073.306-.295.516-.495.467s-.3-.331-.228-.637.291-.516.491-.472S377.953,317.19,377.9,317.5Z" transform="translate(-372.029 -307.432)" fill="#9d84f4"/>
                <path id="路径_5447" data-name="路径 5447" d="M371.492,315.986c-.073.306-.3.516-.494.467s-.306-.331-.233-.642.3-.516.495-.467S371.565,315.68,371.492,315.986Z" transform="translate(-369.099 -306.742)" fill="#9d84f4"/>
                <path id="路径_5448" data-name="路径 5448" d="M372.4,317.292a11.248,11.248,0,0,1-2.085,2.271,1.818,1.818,0,0,0,1.4.619Z" transform="translate(-368.903 -307.635)" fill="#9d84f4"/>
                <path id="路径_5449" data-name="路径 5449" d="M379.679,315.315a.182.182,0,0,0,.12,0,.187.187,0,0,0,.1-.243,1.825,1.825,0,0,0-1.288-1.089.178.178,0,0,0-.21.139l0,.013a.192.192,0,0,0,.152.212h0a1.456,1.456,0,0,1,1.008.87A.191.191,0,0,0,379.679,315.315Z" transform="translate(-372.594 -306.122)" fill="#9d84f4"/>
                <path id="路径_5450" data-name="路径 5450" d="M369.6,312.834a.191.191,0,0,0,.188-.064,1.469,1.469,0,0,1,1.2-.573.186.186,0,0,0,.043-.369,1.842,1.842,0,0,0-1.533.71.182.182,0,0,0,.024.257l0,0A.21.21,0,0,0,369.6,312.834Z" transform="translate(-368.515 -305.139)" fill="#9d84f4"/>
                <path id="路径_5451" data-name="路径 5451" d="M386.7,311.688c-1.9.186-2.135,2.132-.346,6.341,2.179-.964,4.141-4.071,3.557-5.427S388.359,311.529,386.7,311.688Z" transform="translate(-375.672 -305.012)" fill="#9d84f4"/>
                <path id="路径_5452" data-name="路径 5452" d="M388.1,322.775a3.684,3.684,0,0,1-2.212,1.739c-1.245.337-1.855-.78-1.5-1.949.319-1.054,1.353-2.5,2.6-2.319A1.641,1.641,0,0,1,388.1,322.775Z" transform="translate(-375.283 -308.976)" fill="#9d84f4"/>
                <path id="路径_5453" data-name="路径 5453" d="M375.387,304.626s-.4,3.9,3.155,5.057,4.9-.875,4.9-.875a6.912,6.912,0,0,1-.908-.153,3.88,3.88,0,0,0,.915-3.585c-.607-2.032-3.743-4.786-6.659-4.523a6.565,6.565,0,0,0-5.186-.8c-2.878.817-3.242,4.1-3.242,4.1s.38-1.954,1.685-2.194c0,0-2.457,3.6-.559,5.206C369.492,306.858,370.7,303.012,375.387,304.626Z" transform="translate(-368.013 -299.516)" fill="#9d84f4"/>
                <g id="组_1969" data-name="组 1969" transform="translate(2.143 12.727)">
                  <path id="路径_5454" data-name="路径 5454" d="M371.662,324.175a10.436,10.436,0,0,1,.721,1.325c.086-.022.172-.044.257-.071,1.159-.328,1.589-.863,1.714-1.357a1.556,1.556,0,0,0-.01-.736,1.488,1.488,0,0,0-.148-.394,5.684,5.684,0,0,1-2.142,1.114C371.816,324.136,371.662,324.175,371.662,324.175Z" transform="translate(-371.662 -322.943)" fill="#9d84f4"/>
                  <path id="路径_5455" data-name="路径 5455" d="M372.386,324.057l.223.385a3.581,3.581,0,0,0,2.066-1.105,1.488,1.488,0,0,0-.148-.394A5.684,5.684,0,0,1,372.386,324.057Z" transform="translate(-371.993 -322.943)" fill="#9d84f4"/>
                  <path id="路径_5456" data-name="路径 5456" d="M373.463,326.379c1.159-.328,1.589-.863,1.714-1.357a3.868,3.868,0,0,0-1.215.619A1.456,1.456,0,0,0,373.463,326.379Z" transform="translate(-372.485 -323.893)" fill="#9d84f4"/>
                </g>
              </g>
            </g>
          </g>
        </g>
        <g id="Speech_bubble" data-name="Speech bubble" transform="translate(108.428 49.505)">
          <g id="组_1972" data-name="组 1972" transform="translate(0 0)">
            <g transform="matrix(1, 0, 0, 1, -146.63, -61.94)" filter="url(#矩形_1056)">
              <rect id="矩形_1056-2" data-name="矩形 1056" width="11.463" height="11.463" rx="4" transform="matrix(1, 0.05, -0.05, 1, 147.18, 61.94)" fill="#fff"/>
            </g>
            <path id="路径_5457" data-name="路径 5457" d="M261.943,144.309c-.746-1.352-2.315-.921-3.162.061-.75-1.058-2.27-1.637-3.142-.362-1.469,2.149,1.242,4.334,2.531,5.2.146.1.267.181.367.246.106-.055.235-.124.39-.21C260.292,148.5,263.2,146.588,261.943,144.309Z" transform="translate(-252.684 -140.413)" fill="#ff3f2a" stroke="rgba(0,0,0,0)" stroke-miterlimit="10" stroke-width="1" opacity="0.6" style="isolation: isolate"/>
            <g transform="matrix(1, 0, 0, 1, -146.63, -61.94)" filter="url(#路径_5458)">
              <path id="路径_5458-2" data-name="路径 5458" d="M259.166,157.811a8.885,8.885,0,0,1-5.082,4.276s1.912-.984,1.94-4.569Z" transform="translate(-105.54 -84.98)" fill="#fff"/>
            </g>
          </g>
        </g>
        <g id="Character" transform="translate(74.264 57.401)">
          <g id="组_1982" data-name="组 1982">
            <path id="路径_5459" data-name="路径 5459" d="M279.506,212.422s4.313-4.315,5.7-7.388a4.318,4.318,0,0,1-.033-2.607c.493-.889,3.366-3.442,4.132-2.9s1.877,2.682,1.418,3.58-3.275,2.735-3.275,2.735-3.492,7-5.655,8.584S279.506,212.422,279.506,212.422Z" transform="translate(-229.31 -177.668)" fill="#ffc5bc"/>
            <path id="路径_5460" data-name="路径 5460" d="M259.045,199.453c2.513.327,5.379,12.506,7.384,13.652s7.212-5.586,7.212-5.586l2.388,2.725s-6.877,9.583-9.6,8.73-7.842-10.31-7.842-10.31Z" transform="translate(-219.756 -177.668)" fill="#fb8f83"/>
            <path id="路径_5461" data-name="路径 5461" d="M259.045,199.453c2.513.327,5.379,12.506,7.384,13.652s7.212-5.586,7.212-5.586l2.388,2.725s-6.877,9.583-9.6,8.73-7.842-10.31-7.842-10.31Z" transform="translate(-219.756 -177.668)" fill="none" opacity="0.05" style="isolation: isolate"/>
            <path id="路径_5462" data-name="路径 5462" d="M282.542,398.362l-3.3.583-1.353-4.5-1.235-4.13,3.8-1.329,1.1,4.963Z" transform="translate(-228.008 -264.231)" fill="#ffc5bc"/>
            <path id="路径_5463" data-name="路径 5463" d="M280.048,406.425c-.056-.365,4.464-.869,4.464-.869s3.244,2.311,6.026,2.468,1.572,2.023-1.413,2.55l-7.385,1.3C279.618,412.253,280.625,410.212,280.048,406.425Z" transform="translate(-229.558 -271.798)" fill="#263238"/>
            <g id="组_1973" data-name="组 1973" transform="translate(55.468 132.482)">
              <path id="路径_5464" data-name="路径 5464" d="M290.918,405.238a7.02,7.02,0,0,1-1.62-.265.11.11,0,0,1-.039-.019h0a.117.117,0,0,1-.03-.033h0a.107.107,0,0,1-.012-.029h0a.127.127,0,0,1,0-.053c.009-.052.2-1.158.761-1.516a.7.7,0,0,1,.581-.087c.221.061.342.17.36.324.028.237-.249.529-.579.788a1.872,1.872,0,0,1,1.022-.068.489.489,0,0,1,.292.26.437.437,0,0,1-.024.5A.952.952,0,0,1,290.918,405.238Zm-1.224-.412c.708.163,1.57.265,1.75.054.016-.018.064-.074-.012-.241a.253.253,0,0,0-.156-.134A2.963,2.963,0,0,0,289.694,404.826Zm.66-1.379a.458.458,0,0,0-.251.077,2,2,0,0,0-.6,1.1c.618-.369,1.2-.829,1.172-1.032-.008-.064-.12-.1-.186-.121A.515.515,0,0,0,290.353,403.446Z" transform="translate(-289.21 -403.207)" fill="#407bff"/>
            </g>
            <path id="路径_5465" data-name="路径 5465" d="M281.589,394.071l-3.677.484-1.243-4.175,3.8-1.352Z" transform="translate(-228.015 -264.25)" opacity="0.2" style="isolation: isolate"/>
            <path id="路径_5466" data-name="路径 5466" d="M243.244,400.78h-3.351l-.55-4.666-.5-4.281,3.978-.647.225,5.08Z" transform="translate(-210.74 -265.235)" fill="#ffc5bc"/>
            <path id="路径_5467" data-name="路径 5467" d="M239.034,408.293c.009-.369,4.548-.08,4.548-.08s2.792,2.84,5.5,3.478,1.2,2.266-1.835,2.266h-7.5C237.6,413.957,238.944,412.122,239.034,408.293Z" transform="translate(-210.599 -272.962)" fill="#263238"/>
            <g id="组_1974" data-name="组 1974" transform="translate(33.421 134.272)">
              <path id="路径_5468" data-name="路径 5468" d="M250.58,408.642a5.7,5.7,0,0,1-1.881-.575.108.108,0,0,1-.04-.031h0a.148.148,0,0,1-.016-.025.122.122,0,0,1,0-.092c.016-.045.4-1.1,1.013-1.361a.7.7,0,0,1,.587.016c.207.1.307.227.3.382-.013.239-.337.478-.706.675a1.85,1.85,0,0,1,1.018.111.485.485,0,0,1,.243.307.436.436,0,0,1-.11.484A.629.629,0,0,1,250.58,408.642Zm-1.466-.651c.669.283,1.5.534,1.715.357.018-.015.075-.062.03-.24a.253.253,0,0,0-.13-.159A2.969,2.969,0,0,0,249.114,407.991Zm.812-1.25a.47.47,0,0,0-.184.039,1.994,1.994,0,0,0-.779.976c.673-.256,1.322-.609,1.334-.813,0-.064-.1-.123-.162-.152A.479.479,0,0,0,249.926,406.741Z" transform="translate(-248.631 -406.502)" fill="#407bff"/>
            </g>
            <path id="路径_5469" data-name="路径 5469" d="M243.047,396.388l-3.705-.163-.5-4.327,3.978-.67Z" transform="translate(-210.74 -265.254)" opacity="0.2" style="isolation: isolate"/>
            <g id="组_1975" data-name="组 1975" transform="translate(20.389 47.357)">
              <path id="路径_5470" data-name="路径 5470" d="M258.138,326.368l-5.425.956c-5.474-13.639-9.368-25.023-12.118-34.471-1.481-5.1-2.635-9.631-3.522-13.653l.248,14.848v33.728h-5.509c-13.4-63.909-3.9-78.513-3.9-78.513l16.032-2.74a72.6,72.6,0,0,1,1.342,8.972l.723,5.3,6.267,32.361Z" transform="translate(-224.643 -246.522)" fill="#263238"/>
            </g>
            <path id="路径_5471" data-name="路径 5471" d="M274.746,392.141l6.729-2.231-.091,2.862-5.565,1.775Z" transform="translate(-227.136 -264.653)" fill="#fff"/>
            <path id="路径_5472" data-name="路径 5472" d="M236.515,393.726l7.014-1.027-.587,2.8-5.789.78Z" transform="translate(-209.676 -265.926)" fill="#fff"/>
            <path id="路径_5473" data-name="路径 5473" d="M254.118,182a.134.134,0,0,1-.07-.02c-2.045-1.235-3.869-5.772-3.946-5.965a.136.136,0,0,1,.253-.1c.018.046,1.867,4.645,3.834,5.833a.136.136,0,0,1-.071.252Z" transform="translate(-215.877 -166.879)" fill="#263238"/>
            <path id="路径_5474" data-name="路径 5474" d="M224.471,162.557s.8-2.71,6.12-3.173,7.972,4.783,6.717,8.68c0,0,1.119,5.307,3.267,6.863,0,0-10.243,4.63-15.415,4.655-1.151.006-3.611-5.708-3.928-9.827C220.927,165.79,222.124,162.684,224.471,162.557Z" transform="translate(-202.675 -159.355)" fill="#263238"/>
            <path id="路径_5475" data-name="路径 5475" d="M230.653,245.734v2.393L247,246.874v-2.831Z" transform="translate(-206.999 -198.033)" fill="#263238"/>
            <path id="路径_5476" data-name="路径 5476" d="M230.653,245.734v2.393L247,246.874v-2.831Z" transform="translate(-206.999 -198.033)" fill="#fff" opacity="0.3" style="isolation: isolate"/>
            <rect id="矩形_1057" data-name="矩形 1057" width="3.589" height="2.722" transform="translate(32.648 46.914) rotate(-5.118)" fill="#fff"/>
            <g id="组_1976" data-name="组 1976" transform="translate(28.332 46.694)">
              <rect id="矩形_1058" data-name="矩形 1058" width="0.812" height="4.136" transform="translate(0 0.041) rotate(-2.927)" fill="#263238"/>
            </g>
            <g id="组_1977" data-name="组 1977" transform="translate(38.32 45.597)">
              <rect id="矩形_1059" data-name="矩形 1059" width="0.812" height="4.136" transform="translate(0 0.041) rotate(-2.919)" fill="#263238"/>
            </g>
            <path id="路径_5477" data-name="路径 5477" d="M241.831,223.686,225.478,225.1c-.158-2.472-.315-4.591-.69-6.965-.239-1.521-.57-3.151-1.049-5.047-.369-1.483-.831-3.135-1.418-5.025-.027-.1-.06-.206-.092-.31-.337-1.081-2.733-.255-2.95-1.554-.945-5.781,5.292-6.2,7.59-6.585a52.05,52.05,0,0,1,7.345-.771c3.178-.027,6.835.331,6.835.331s.522.125.848,3.5C242.195,205.834,242.488,212.169,241.831,223.686Z" transform="translate(-201.76 -177.389)" fill="url(#linear-gradient-3)"/>
            <path id="路径_5478" data-name="路径 5478" d="M239.958,198.063c-4.03-.516-5.241-2.237-5.241-2.237,2.557-2.412.432-6.593.432-6.593l4.851.906a14.215,14.215,0,0,0-.19,2.042c-.037,2.944,1.295,2.973,1.295,2.973C241.957,196.749,239.958,198.063,239.958,198.063Z" transform="translate(-208.855 -173.001)" fill="#ffc5bc"/>
            <path id="路径_5479" data-name="路径 5479" d="M240.364,190.139a14.21,14.21,0,0,0-.19,2.042,5.4,5.4,0,0,1-4.661-2.948Z" transform="translate(-209.218 -173.001)" opacity="0.2" style="isolation: isolate"/>
            <g id="组_1980" data-name="组 1980" transform="translate(21.951 1.886)">
              <path id="路径_5480" data-name="路径 5480" d="M234.238,165.715c4.119-.933,5.944.972,7.207,5.148,1.578,5.219,1.256,9.254-4.151,9.287C229.952,180.2,227.4,167.263,234.238,165.715Z" transform="translate(-228.763 -164.039)" fill="#ffc5bc"/>
              <path id="路径_5481" data-name="路径 5481" d="M245.865,176.072a8.926,8.926,0,0,0,1.585,1.436,1.16,1.16,0,0,1-.98.712Z" transform="translate(-235.897 -168.876)" fill="#efaba0"/>
              <g id="组_1978" data-name="组 1978" transform="translate(6.53 6.491)">
                <path id="路径_5482" data-name="路径 5482" d="M240.378,176.069c.085.336-.029.655-.253.711s-.475-.171-.559-.507.029-.655.253-.711S240.293,175.732,240.378,176.069Z" transform="translate(-239.537 -175.13)" fill="#263238"/>
                <path id="路径_5483" data-name="路径 5483" d="M239.89,175.246l.66-.471S240.34,175.482,239.89,175.246Z" transform="translate(-239.698 -174.775)" fill="#263238"/>
              </g>
              <g id="组_1979" data-name="组 1979" transform="translate(10.696 5.371)">
                <path id="路径_5484" data-name="路径 5484" d="M248.046,174.006c.084.337-.029.655-.253.712s-.475-.171-.56-.507.029-.655.253-.711S247.962,173.669,248.046,174.006Z" transform="translate(-247.206 -173.067)" fill="#263238"/>
                <path id="路径_5485" data-name="路径 5485" d="M247.558,173.183l.66-.471S248.008,173.419,247.558,173.183Z" transform="translate(-247.367 -172.712)" fill="#263238"/>
              </g>
              <path id="路径_5486" data-name="路径 5486" d="M236.629,172.343a.2.2,0,0,1-.176-.284,2.374,2.374,0,0,1,1.8-1.136.2.2,0,0,1,.037.392,2.017,2.017,0,0,0-1.488.919A.2.2,0,0,1,236.629,172.343Z" transform="translate(-231.589 -166.524)" fill="#263238"/>
              <path id="路径_5487" data-name="路径 5487" d="M245.1,169.577a.2.2,0,0,1-.108-.361,2.159,2.159,0,0,1,1.9-.052.2.2,0,0,1-.14.368,1.777,1.777,0,0,0-1.542.015A.2.2,0,0,1,245.1,169.577Z" transform="translate(-235.456 -165.637)" fill="#263238"/>
              <path id="路径_5488" data-name="路径 5488" d="M244.117,183.126a10.7,10.7,0,0,0-.156,1.539c-.09.014-.18.027-.271.036-1.226.15-1.844-.185-2.158-.6a1.591,1.591,0,0,1-.283-.7,1.544,1.544,0,0,1-.017-.431,5.833,5.833,0,0,0,2.467.2C243.956,183.151,244.117,183.126,244.117,183.126Z" transform="translate(-233.777 -172.025)" fill="#263238"/>
              <path id="路径_5489" data-name="路径 5489" d="M243.7,183.171l-.058.453a3.675,3.675,0,0,1-2.392-.224,1.544,1.544,0,0,1-.017-.431A5.833,5.833,0,0,0,243.7,183.171Z" transform="translate(-233.777 -172.025)" fill="#fff"/>
              <path id="路径_5490" data-name="路径 5490" d="M243.948,185.636c-1.226.15-1.844-.185-2.158-.6a3.972,3.972,0,0,1,1.395.1A1.489,1.489,0,0,1,243.948,185.636Z" transform="translate(-234.036 -172.96)" fill="#de5753"/>
              <path id="路径_5491" data-name="路径 5491" d="M230.064,172.463s1.159-3.82.276-6.367c0,0,7.407-5.183,9.686,3.01,0,0-.869-7.537-7.986-6.1s-4.741,11.791-.385,14.049C231.654,177.059,229.352,174.849,230.064,172.463Z" transform="translate(-227.518 -162.827)" fill="#263238"/>
              <path id="路径_5492" data-name="路径 5492" d="M231.208,180.782a1.854,1.854,0,0,0-2.319-1.21c-1.245.429-1.259,3.186,2.058,3.1C231.423,182.656,231.579,182.153,231.208,180.782Z" transform="translate(-227.792 -170.429)" fill="#ffc5bc"/>
            </g>
            <path id="路径_5493" data-name="路径 5493" d="M232.458,167.617s4.268-1.571,6.671-.387c0,0-2.59-2.324-6.974-.136Z" transform="translate(-207.685 -162.461)" fill="#263238"/>
            <path id="路径_5494" data-name="路径 5494" d="M227.84,200.629s4.731,3.839,9.137,3.777,5.953-5.016,5.953-5.016A25.107,25.107,0,0,0,227.84,200.629Z" transform="translate(-205.714 -177.356)" fill="#ffc5bc"/>
            <path id="路径_5495" data-name="路径 5495" d="M251.045,308.354c-1.481-5.1-2.635-9.631-3.522-13.653a125.753,125.753,0,0,1,1.036-14.238S250.907,298.827,251.045,308.354Z" transform="translate(-214.703 -214.666)" opacity="0.2" style="isolation: isolate"/>
            <path id="路径_5496" data-name="路径 5496" d="M196,205.42s-3.242-5.169-3.912-8.474a4.313,4.313,0,0,0,.613-2.534c-.282-.976-2.513-4.106-3.381-3.749s-2.428,2.2-2.181,3.173,2.583,3.4,2.583,3.4,1.842,7.606,3.6,9.629S196,205.42,196,205.42Z" transform="translate(-187.114 -173.641)" fill="#ffc5bc"/>
            <path id="路径_5497" data-name="路径 5497" d="M207.152,206.4c1.649-.228,4.975,2.989,4.469,5.771s-5.165,10.6-8.761,10c-5.08-.86-10.661-14.25-10.661-14.25l2.788-2.43s6.577,11.394,7.873,11.171S207.152,206.4,207.152,206.4Z" transform="translate(-189.436 -180.424)" fill="#fb8f83"/>
            <path id="路径_5499" data-name="路径 5499" d="M190.1,206.4l4.069-2.442.645,1.053-3.839,3.4Z" transform="translate(-188.479 -179.726)" fill="#fb8f83"/>
            <path id="路径_5500" data-name="路径 5500" d="M284.626,213.623l3.3,4.078.573-1.28-2.962-3.443Z" transform="translate(-231.649 -183.845)" fill="#fa8f83"/>
            <g id="组_1981" data-name="组 1981" transform="translate(54.303 17.482)">
              <path id="路径_5501" data-name="路径 5501" d="M287.564,198.526l5.208-6.343a.491.491,0,0,1,.716-.045l2.321,2.192a.491.491,0,0,1,.043.667l-5.288,6.489a.491.491,0,0,1-.735.03l-2.241-2.338A.49.49,0,0,1,287.564,198.526Z" transform="translate(-287.243 -191.748)" fill="#407bff"/>
              <path id="路径_5502" data-name="路径 5502" d="M287.564,198.526l5.208-6.343a.491.491,0,0,1,.716-.045l2.321,2.192a.491.491,0,0,1,.043.667l-5.288,6.489a.491.491,0,0,1-.735.03l-2.241-2.338A.49.49,0,0,1,287.564,198.526Z" transform="translate(-287.243 -191.748)" opacity="0.3" style="isolation: isolate"/>
              <path id="路径_5503" data-name="路径 5503" d="M287.178,198.056l5.208-6.343a.491.491,0,0,1,.716-.046l2.322,2.192a.491.491,0,0,1,.043.667l-5.288,6.489a.49.49,0,0,1-.735.03l-2.241-2.337A.491.491,0,0,1,287.178,198.056Z" transform="translate(-287.066 -191.534)" fill="#40acff"/>
              <path id="路径_5504" data-name="路径 5504" d="M293.067,192.333l2.574,2.489-5.036,6.2-2.506-2.632Z" transform="translate(-287.538 -191.899)" fill="#fff" opacity="0.6" style="isolation: isolate"/>
            </g>
          </g>
        </g>
      </g>
    </g>
  </g>
</svg>
